
<svg width="291px" height="183px" viewBox="0 0 291 183" version="1.1" xmlns="http://www.w3.org/2000/svg" xmlns:xlink="http://www.w3.org/1999/xlink">
    <defs>
        <linearGradient x1="96.92%" y1="-30.7337777%" x2="-22.4294023%" y2="179.326796%" id="linearGradient-1">
            <stop stop-color="#8B3FAE" offset="0%"></stop>
            <stop stop-color="#9140AE" offset="15.67%"></stop>
            <stop stop-color="#A043AC" offset="35.73%"></stop>
            <stop stop-color="#BB49AA" offset="58.16%"></stop>
            <stop stop-color="#DF50A7" offset="82.14%"></stop>
            <stop stop-color="#FF57A4" offset="100%"></stop>
        </linearGradient>
        <linearGradient x1="21.7101493%" y1="7.72246269%" x2="91.9595522%" y2="112.706119%" id="linearGradient-2">
            <stop stop-color="#525DEA" offset="0%"></stop>
            <stop stop-color="#5154E4" offset="26.97%"></stop>
            <stop stop-color="#4E3CD2" offset="70.83%"></stop>
            <stop stop-color="#4B28C4" offset="100%"></stop>
        </linearGradient>
        <linearGradient x1="-7.91534011%" y1="-254.132889%" x2="86.4063069%" y2="237.517333%" id="linearGradient-3">
            <stop stop-color="#8B3FAE" offset="0%"></stop>
            <stop stop-color="#9140AE" offset="15.67%"></stop>
            <stop stop-color="#A043AC" offset="35.73%"></stop>
            <stop stop-color="#BB49AA" offset="58.16%"></stop>
            <stop stop-color="#DF50A7" offset="82.14%"></stop>
            <stop stop-color="#FF57A4" offset="100%"></stop>
        </linearGradient>
    </defs>
    <g id="Page-1" stroke="none" stroke-width="1" fill="none" fill-rule="evenodd">
        <g id="Landing-Cool" transform="translate(-250.000000, -337.000000)">
            <g id="Artwork" transform="translate(0.000000, 28.000000)">
                <g id="case" transform="translate(250.000000, 309.000000)">
                    <ellipse id="Oval" fill="#3A109D" cx="145.5" cy="179" rx="145.5" ry="4"></ellipse>
                    <g id="Group" transform="translate(67.000000, 23.000000)">
                        <path d="M148.62,103.5 C148.62,103.5 155.54,93.87 155.54,53.27 C155.54,25.3 152.26,12.02 150.21,6.47 C149.44,4.37 147.36,2.87 144.87,2.63 C136.94,1.88 116.17,0.31 80.19,0.3 C41.78,0.28 19.73,1.89 11.48,2.65 C8.98,2.88 6.89,4.38 6.11,6.49 C4.07,12.05 0.79,25.32 0.79,53.27 C0.79,93.87 7.71,103.5 7.71,103.5 L148.62,103.5 Z" id="Path" stroke="#8B3FAE" stroke-width="2.6124" fill="url(#linearGradient-1)"></path>
                        <path d="M13.41,99 C12.03,99 10.82,98.18 10.45,97 C8.78,91.64 5.98,78.84 5.98,53.37 C5.98,25.86 9.16,13.11 11.05,7.96 C11.18,7.61 11.52,7.37 11.93,7.33 C19.56,6.63 41.42,5 79.65,5 L80.2,5 C116.4,5.01 137.17,6.62 144.42,7.31 C144.83,7.35 145.16,7.59 145.29,7.94 C147.19,13.09 150.37,25.83 150.37,53.37 C150.37,78.84 147.57,91.64 145.9,97 C145.53,98.18 144.32,99 142.94,99 L13.41,99 Z" id="Path" fill="#6B1783"></path>
                    </g>
                    <g id="Group" transform="translate(48.000000, 122.000000)">
                        <polygon id="Path" fill="#383838" points="26.72 4 0.54 10 193.8 10 167.62 4"></polygon>
                        <polyline id="Path" fill="#4B28C4" points="27.18 4.22 1 10.08 1 6.65 27.18 0.79"></polyline>
                        <polyline id="Path" fill="#4B28C4" points="167.82 4.22 194 10.08 194 6.65 167.82 0.79"></polyline>
                        <rect id="Rectangle" fill="#4B28C4" x="27" y="1" width="141" height="3"></rect>
                    </g>
                    <g id="globe" transform="translate(78.000000, 0.000000)">
                        <circle id="Oval" fill="url(#linearGradient-2)" cx="67" cy="67" r="67"></circle>
                        <g id="Group">
                            <path d="M45,130.77 L45,129.77 L46.84,129.23 C47.31,129.07 47.63,128.63 47,128.13 L47,127.62 C47.62,126.98 48.78,126 48.78,126 L49.76,126 C50.02,126 50.27,125.9 50.47,125.72 L53.62,122.83 C53.86,122.61 54,122.29 54,121.95 L54,120.46 C54,120.06 54.2,119.68 54.52,119.47 L58.2,117.09 C58.3,117.03 58.39,116.94 58.47,116.85 L60.74,114 C60.91,113.79 61,113.53 61,113.25 L61,109.74 C61,109.43 61.12,109.14 61.34,108.92 L63.66,106.6 C63.88,106.38 64,106.09 64,105.78 L64,103.5 C64,103.19 63.88,102.9 63.66,102.68 L61.3,100.33 C61.08,100.11 60.79,99.99 60.48,99.99 L58.29,99.99 C57.97,99.99 57.66,99.85 57.44,99.62 L55.37,97.37 C55.15,97.13 54.84,97 54.52,97 L53.15,97 C52.51,97 51.99,96.48 51.99,95.84 L51.99,95.38 C51.99,95.18 51.94,94.98 51.84,94.8 L49.4,90.57 C49.19,90.21 48.81,89.99 48.4,89.99 L45.14,89.99 C44.71,89.99 44.32,89.76 44.12,89.38 L42.62,86.6 C42.42,86.23 42.03,85.99 41.6,85.99 L39.52,85.99 C39.4,85.97 39.28,85.95 39.16,85.93 L35.24,84.66 C34.86,84.54 34.43,84.62 34.13,84.89 L30.59,87.95 C30.26,88.24 29.79,88.31 29.39,88.14 L27.09,87.18 C26.79,87.06 26.56,86.81 26.45,86.51 L24.8,82.04 C24.69,81.73 24.44,81.48 24.14,81.36 L22.38,80.67 C21.8,80.44 21.5,79.79 21.71,79.2 L22.58,76.74 C22.73,76.31 22.62,75.84 22.3,75.52 L22.19,75.41 C21.72,74.94 20.94,74.95 20.49,75.45 L18.52,77.6 C18.3,77.84 17.99,77.98 17.67,77.98 L17.85,77.98 C17.35,77.98 16.91,77.66 16.75,77.18 L15.75,74.14 C15.68,73.93 15.67,73.71 15.73,73.5 L16.65,69.85 C16.78,69.34 17.24,68.98 17.77,68.98 L21.6,68.98 C21.81,68.98 22.01,68.92 22.19,68.82 L24.4,67.52 C24.86,67.25 25.45,67.33 25.82,67.72 L27.03,68.98 C28.09,70.09 29.96,69.34 29.96,67.8 L29.96,65.67 C29.96,65.32 30.12,64.98 30.4,64.76 L32.52,63.1 C32.8,62.88 32.96,62.55 32.96,62.19 L32.96,61.04 C32.96,60.66 33.15,60.3 33.46,60.08 L38.45,56.68 C38.77,56.46 38.96,56.11 38.96,55.72 L38.96,54.14 C38.96,53.72 39.19,53.33 39.56,53.13 L45.18,50.04 C45.83,49.68 45.98,48.81 45.49,48.25 L44.27,46.89 C44.07,46.67 43.96,46.38 43.96,46.08 L43.96,45.75 C43.96,45.75 44.31,44.59 44.94,44.97 L46.98,44.97 C47.27,44.59 47.56,44.48 47.77,44.28 L51.35,40.91 C51.83,40.46 51.84,39.71 51.38,39.25 L49.65,37.52 C49.49,37.36 49.38,37.16 49.34,36.95 L48.2,31.72 C48.08,31.19 47.61,30.81 47.07,30.97 L46.49,30.97 C45.85,30.81 45.96,31.96 45.96,31.96 L45.96,33.05 L42.02,29.61 C41.8,29.38 41.5,29.26 41.19,28.96 L38.48,28.96 C37.84,29.25 37.32,29.77 36.96,30.41 L36.96,35.65 C37.32,35.97 37.19,36.27 36.96,36.49 L34.46,38.88 C34.22,39.11 34.09,39.43 34.1,39.76 L34.18,41.91 C34.2,42.59 33.64,43.15 32.96,43.11 C32.34,43.07 31.85,42.55 31.87,41.92 L31.95,39.09 C31.96,38.59 31.66,38.14 31.2,37.97 L26.61,36.26 C26.19,36.11 25.9,35.73 25.86,35.29 L25.71,33.72 C25.67,33.31 25.85,32.92 26.18,32.67 L28.55,30.95 C28.67,30.86 28.78,30.75 28.86,30.61 L31.8,25.75 C31.91,25.56 32.08,25.41 32.27,25.31 L36.49,23.2 C36.83,23.03 37.06,22.7 37.12,22.33 L37.62,18.81 C37.69,18.33 38.05,17.94 38.52,17.84 L39,17.74 C39.43,17.65 39.87,17.81 40.15,18.15 L42.09,20.57 C42.36,20.9 42.42,21.35 42.25,21.74 L41.2,24.23 C41.06,24.56 40.77,24.81 40.42,24.9 L40.09,24.98 C39.38,25.16 39.01,25.93 39.32,26.59 L39.44,26.86 C39.61,27.22 39.94,27.46 40.33,27.52 L42.42,27.81 C42.66,27.84 42.91,27.8 43.13,27.68 L45.74,26.27 C46.02,26.12 46.22,25.86 46.3,25.56 L47.21,22.26 C47.26,22.06 47.27,21.85 47.21,21.65 L45.86,16.62 C45.79,16.35 45.62,16.11 45.38,15.95 L41.22,13.21 C40.97,13.04 40.66,12.98 40.36,13.04 L34.66,14.18 C34.15,14.28 33.77,14.71 33.73,15.23 L33.59,17.19 C33.54,17.86 34.74,17.96 34.74,17.96 L35.21,17.96 L33.97,20.16 C33.8,20.46 33.52,20.66 33.19,20.72 C31.27,21.05 24.19,22.28 16.33,23.67 C16.05,23.72 15.79,23.87 15.61,24.09 C6.76,35.09 1.26,49.05 0.69,64.32 C0.68,64.57 0.75,64.82 0.9,65.03 L10.5,78.99 C10.68,79.26 10.97,79.44 11.29,79.48 L15.57,80.08 C15.74,80.1 15.9,80.16 16.05,80.26 L21.81,84.05 C22,84.17 22.15,84.35 22.24,84.56 L23.28,86.98 C23.4,87.27 23.64,87.49 23.93,87.6 L28.19,89.25 C28.64,89.42 28.93,89.85 28.93,90.33 L28.93,92.76 C28.93,93.16 28.73,93.52 28.39,93.74 L26.46,94.96 C26.13,95.17 25.92,95.54 25.92,95.94 L25.92,100.17 C25.92,100.58 26.14,100.96 26.5,101.17 L27.93,102 C28.11,102.11 28.27,102.26 28.37,102.45 L30.69,106.75 C30.77,106.85 30.84,106.95 30.92,107.05 L36.55,112.25 C36.79,112.47 36.92,112.78 36.92,113.1 L36.92,126.61 C36.92,127.05 37.17,127.46 37.57,127.66 C40.02,128.87 42.48,129.89 45,130.77 Z" id="Path" fill="#3D36C6"></path>
                            <path d="M131.06,83.68 C131.65,84.02 132.41,83.71 132.57,83.05 C133.77,78.03 134.4,72.79 134.4,67.41 C134.4,46.46 124.8,27.76 109.77,15.45 C109.33,15.09 108.66,15.17 108.31,15.63 L98.4,28.68 C98.19,28.96 98.14,29.32 98.26,29.65 L99.03,31.72 C99.24,32.3 99.92,32.55 100.46,32.26 L101.08,31.93 C101.49,31.71 102,31.79 102.31,32.14 L104.43,34.46 C104.62,34.67 105.18,35.01 105.18,35.01 L106,35.01 C106.56,35.01 107.01,34.56 107.01,34 L107.01,32.27 C107.01,32.05 107.08,31.83 107.22,31.65 L108.46,30.05 C108.76,29.67 108.74,29.13 108.43,28.77 L107.73,27.96 C107.45,27.64 107.4,27.18 107.61,26.81 L110.45,21.68 C110.74,21.15 111.4,21.02 111.85,21.4 L112.04,21.56 C112.57,22.01 112.5,22.9 111.91,23.24 L111.5,23.48 C111.2,23.66 111.01,24 111.01,24.37 L111.01,27.46 C111.01,27.46 112.24,28.65 112.9,28.42 L114.49,27.86 C114.88,27.72 115.32,27.84 115.59,28.15 L115.63,28.2 C116.2,28.86 115.74,29.88 114.87,29.88 C114.31,29.88 114.01,30.89 114.01,30.89 L114.01,32.01 C114.01,32.57 113.56,33.02 113,33.02 L112.03,33.02 C111.47,33.02 111.02,33.47 111.02,34.03 L111.02,36 C111.02,36.56 110.57,37.01 110.01,37.01 L102.06,37.01 C102.06,37.01 101.71,37.36 101.55,37.45 L92.03,42.93 C91.72,43.11 91.52,43.45 92.02,43.81 L92.02,44.67 C91.52,44.83 91.56,44.99 91.63,45.13 L93.43,48.64 C93.78,49.31 93.29,50.12 92.53,50.01 L89.86,50.01 C89.3,50.11 89.02,51.13 89.02,51.13 L89.02,52.13 C89.02,52.27 88.99,52.4 88.94,52.53 L88.1,54.51 C88.05,54.64 88.02,54.77 88.02,54.91 L88.02,57.01 C88.02,57.57 88.47,58.02 89.03,58.02 L92.84,58.02 C93.05,58.02 93.25,57.96 93.42,57.84 L94.99,56.75 C95.1,56.67 95.2,56.57 95.27,56.45 L98.13,51.8 C98.24,51.62 98.41,51.47 98.61,51.39 L102,50.01 C102.43,49.84 102.92,49.97 103.2,50.34 L107.25,55.78 C107.62,56.27 108.33,56.33 108.77,55.9 L109.22,55.46 C109.59,55.1 109.63,54.53 109.32,54.12 L105.44,49.02 L106.32,49.02 C106.32,49.02 106.96,49.58 107.15,49.85 L113.29,58.46 C113.61,58.91 114.23,59.02 114.69,58.71 L115.75,57.99 C116.2,57.68 116.33,57.07 116.04,56.61 L115.86,56.32 C115.43,55.64 115.92,54.76 116.72,55.02 L116.82,55.02 C117.38,54.76 118.04,55.78 118.04,55.78 L118.04,58.01 C118.04,58.57 118.49,59.02 119.05,59.02 L123.02,59.02 C123.58,59.02 124.03,59.47 124.03,60.03 L124.03,62 C124.03,62.56 123.58,63.01 123.02,63.01 L114.05,63.01 C113.49,63.01 113.04,63.46 113.04,64.02 L113.04,64.49 C113.04,65.06 112.59,65.51 112.03,65.52 C111.47,65.53 110.8,65.55 110.35,65.58 C110.02,65.6 109.7,65.45 109.5,65.18 L108.55,63.93 C108.47,63.82 108.36,63.73 108.24,63.66 L105.57,62.17 C105.25,61.99 105.05,61.65 105.05,61.28 L105.05,59.03 C105.05,58.47 104.6,58.02 104.04,58.02 L97.03,58.02 C97.03,58.02 96.68,58.6 96.53,58.69 L94.05,60.12 C93.9,60.21 93.72,60.25 93.55,60.03 L91.31,60.03 C91.11,60.26 90.92,60.32 90.75,60.42 L87.38,62.63 C87.09,62.82 86.92,63.14 87.06,63.48 L87.06,65.89 C86.92,66.12 86.84,66.35 86.69,66.53 L81.38,73.06 C81.23,73.24 81.06,73.7 81.06,73.7 L81.06,79.78 C81.06,80.08 80.3,81.35 79.83,82.1 C79.62,82.44 79.63,82.87 79.85,83.21 L86.15,92.47 C86.38,92.81 86.78,92.97 87.18,92.89 L96.45,91.09 C96.73,91.04 97.02,91.1 97.25,91.27 L100.65,93.79 C100.91,93.98 101.06,94.28 101.06,94.61 L101.06,98.51 C101.06,98.67 101.1,98.83 101.17,98.98 L103.87,104.2 C103.98,104.42 104.01,104.67 103.95,104.92 L101.78,113.44 C101.77,113.57 101.76,113.69 101.76,113.82 L102.78,122 C102.87,122.74 103.71,123.14 104.34,122.73 C116.47,114.77 125.77,102.86 130.41,88.83 C130.53,88.46 130.43,88.06 130.16,87.79 L129.62,87.25 C129.51,87.14 129.43,87.02 129.38,86.88 L124.64,73.74 C124.3,72.79 125.4,71.98 126.21,72.59 L126.66,72.93 C126.91,73.12 127.06,73.42 127.06,73.74 L127.06,75.75 C127.06,75.75 127.64,76.04 127.7,76.17 L129.15,79.36 C129.21,79.49 129.24,79.64 129.05,79.78 L129.05,82.07 C129.24,82.43 129.43,82.76 129.74,82.94 L131.06,83.68 Z M127.41,53.96 L123.72,52.52 C123.32,52.36 122.86,52.46 122.56,52.76 L121.65,53.67 C121.45,53.87 121.17,53.99 120.88,53.99 L119.57,53.99 C119.27,53.99 118.98,53.86 118.77,53.64 L118.44,53.28 C118.13,52.95 118.07,52.46 118.27,52.06 L120.5,47.59 C120.68,47.22 121.06,46.99 121.47,46.99 L123.49,46.99 C123.6,46.99 123.71,46.97 123.82,46.94 L125.59,46.38 C126.29,46.16 127,46.68 127,47.42 L127,48.94 C127,49.24 127.12,49.52 127.33,49.72 L129.19,51.5 C129.62,51.92 129.64,52.61 129.22,53.04 L128.58,53.7 C128.28,54.02 127.82,54.12 127.41,53.96 Z" id="Shape" fill="#3D36C6" fill-rule="nonzero"></path>
                            <polygon id="Path" fill="#4B28C4" points="92.88 41 95.84 39.4 93 36.06 93 32.82 90.66 30.79 90 31.62 90 33.38 92.33 36.53 92 38.05 89.59 35.09 87.05 39.58 88.11 40.18 89.92 37.22 91 38.89 91 41"></polygon>
                            <path d="M73.96,16 L74.85,16 C75.16,16 75.46,15.88 75.69,15.67 C76.24,15.15 76.2,14.26 75.6,13.8 L75.48,13.71 C75.18,13.48 75,13.12 75,12.74 L75,12 L77.42,12 C77.79,12 78.15,11.84 78.39,11.56 L78.67,11.24 C78.88,11.01 78.99,10.71 78.99,10.39 L78.99,2.31 C78.99,1.67 78.53,1.13 77.9,1.03 C74.56,0.52 71.13,0.26 67.65,0.26 C60.41,0.26 53.43,1.39 46.89,3.48 C46.36,3.65 46,4.15 46,4.71 L46,5.63 C46,5.92 46.1,6.21 46.29,6.44 L47.2,7.57 C47.54,8 48.12,8.16 48.63,7.97 L51.1,7.08 C51.24,7.03 51.39,7 51.54,7 L52.43,7 C52.88,7 53.3,7.24 53.53,7.63 L54.82,9.78 C54.94,9.98 55,10.21 55,10.44 L55,19.55 C55.02,19.68 55.04,19.82 55.06,19.95 L57.7,27.99 C57.83,28.38 58.13,28.68 58.51,28.81 L60.48,29.47 C61.03,29.65 61.64,29.44 61.96,28.95 L63.38,26.78 C63.44,26.65 63.49,26.53 63.55,26.4 L64.7,21.96 C64.85,21.39 65.36,21 65.94,21 L67.49,21 C67.81,21 68.12,20.88 68.36,20.66 L73.09,16.33 C73.33,16.12 73.64,16 73.96,16 Z" id="Path" fill="#3D36C6"></path>
                        </g>
                        <path d="M6.96,74.78 C6.96,37.72 37,7.68 74.06,7.68 C91.87,7.68 108.05,14.64 120.07,25.96 C107.79,10.34 88.73,0.29 67.31,0.29 C30.25,0.29 0.21,30.33 0.21,67.39 C0.21,86.63 8.32,103.97 21.3,116.2 C12.32,104.8 6.96,90.42 6.96,74.78 Z" id="Path" fill-opacity="0.3" fill="#FFFFFF" opacity="0.301548549"></path>
                    </g>
                    <g id="Group" transform="translate(43.000000, 129.000000)">
                        <path d="M197.71,48 C204.79,39.97 201.65,11.74 200.73,4.63 C200.61,3.7 199.72,3 198.66,3 L5.72,3 C4.65,3 3.75,3.72 3.64,4.66 C-0.42,39.95 6.63,48 6.63,48 L197.71,48 Z" id="Path" fill="url(#linearGradient-3)"></path>
                        <path d="M2.04,4.69 C-1.09,31.83 2.26,43.11 4.07,47 L20.12,47 C5.52,39.09 10.24,7 26.84,7 L202.04,7 C201.94,6.11 201.84,5.34 201.76,4.73 C201.63,3.74 200.69,3 199.56,3 L199.45,3 L4.94,3 L4.16,3 C3.06,3 2.15,3.73 2.04,4.69 Z" id="Path" fill-opacity="0.3" fill="#FFFFFF" opacity="0.5"></path>
                        <path d="M199.42,50 L4.92,50 C3.95,50.18 3.17,49.4 3.17,48.43 C3.17,47.46 3.96,46.68 4.92,46 L199.42,46 C200.39,46.68 201.17,47.46 201.17,48.43 C201.17,49.4 200.39,50.18 199.42,50 Z" id="Path" fill="#8B3FAE"></path>
                        <g transform="translate(22.000000, 9.000000)">
                            <g>
                                <path d="M4.25,13.65 C2.65,13.65 1.35,12.35 1.35,10.75 L1.35,4.25 C1.35,2.65 2.65,1.35 4.25,1.35 L24.75,1.35 C26.35,1.35 27.65,2.65 27.65,4.25 L27.65,10.75 C27.65,12.35 26.35,13.65 24.75,13.65 L4.25,13.65 Z" id="Path" fill="#FF57A4"></path>
                                <path d="M24.75,2 C25.99,2 27,3.01 27,4.25 L27,10.75 C27,11.99 25.99,13 24.75,13 L4.25,13 C3.01,13 2,11.99 2,10.75 L2,4.25 C2,3.01 3.01,2 4.25,2 L24.75,2 Z M24.75,0.71 L4.25,0.71 C2.3,0.71 0.71,2.3 0.71,4.25 L0.71,10.75 C0.71,12.7 2.3,14.29 4.25,14.29 L24.75,14.29 C26.7,14.29 28.29,12.7 28.29,10.75 L28.29,4.25 C28.29,2.3 26.7,0.71 24.75,0.71 Z" id="Shape" fill="#8B3FAE" fill-rule="nonzero"></path>
                            </g>
                            <g transform="translate(4.000000, 3.000000)" id="Path">
                                <path d="M8.35,1.37 C10.08,2.9 10.08,5.37 8.35,6.9 C6.62,8.43 3.82,8.43 2.1,6.9 C0.37,5.37 0.37,2.9 2.1,1.37 C3.83,-0.16 6.63,-0.16 8.35,1.37 Z" fill="#FF79B6"></path>
                                <polygon fill="#6535B9" points="7.9 5.94 7.28 6.5 2.55 2.32 3.18 1.77"></polygon>
                            </g>
                            <path d="M23.34,11 L15.67,11 C15.3,11 15.01,10.7 15.01,10.34 L15.01,4.67 C15.01,4.3 15.31,4.01 15.67,4.01 L23.35,4.01 C23.72,4.01 24.01,4.31 24.01,4.67 L24.01,10.34 C24,10.7 23.7,11 23.34,11 Z" id="Path" fill="#4B28C4"></path>
                            <g transform="translate(15.000000, 4.000000)">
                                <path d="M5.31,6 L1.69,6 C1.31,6 1,5.69 1,5.31 L1,0.69 C1,0.31 1.31,-1.13686838e-13 1.69,-1.13686838e-13 L5.31,-1.13686838e-13 C5.69,-1.13686838e-13 6,0.31 6,0.69 L6,5.31 C6,5.69 5.69,6 5.31,6 Z" id="Path" fill="#3F02A8"></path>
                                <path d="M4.42,6 L1.57,6 C1.25,6 0.99,5.74 0.99,5.42 L0.99,1.57 C0.99,1.25 1.25,0.99 1.57,0.99 L4.42,0.99 C4.74,0.99 5,1.25 5,1.57 L5,5.42 C5,5.74 4.74,6 4.42,6 Z" id="Path" fill="#525DEA"></path>
                                <rect id="Rectangle" fill="#4B28C4" x="4" y="1" width="1" height="4"></rect>
                            </g>
                        </g>
                        <g transform="translate(153.000000, 9.000000)">
                            <g>
                                <path d="M4.25,13.65 C2.65,13.65 1.35,12.35 1.35,10.75 L1.35,4.25 C1.35,2.65 2.65,1.35 4.25,1.35 L24.75,1.35 C26.35,1.35 27.65,2.65 27.65,4.25 L27.65,10.75 C27.65,12.35 26.35,13.65 24.75,13.65 L4.25,13.65 Z" id="Path" fill="#FF57A4"></path>
                                <path d="M24.75,2 C25.99,2 27,3.01 27,4.25 L27,10.75 C27,11.99 25.99,13 24.75,13 L4.25,13 C3.01,13 2,11.99 2,10.75 L2,4.25 C2,3.01 3.01,2 4.25,2 L24.75,2 Z M24.75,0.71 L4.25,0.71 C2.3,0.71 0.71,2.3 0.71,4.25 L0.71,10.75 C0.71,12.7 2.3,14.29 4.25,14.29 L24.75,14.29 C26.7,14.29 28.29,12.7 28.29,10.75 L28.29,4.25 C28.29,2.3 26.7,0.71 24.75,0.71 Z" id="Shape" fill="#8B3FAE" fill-rule="nonzero"></path>
                            </g>
                            <g transform="translate(15.000000, 3.000000)" id="Path">
                                <path d="M2.25,1.37 C0.52,2.9 0.52,5.37 2.25,6.9 C3.98,8.43 6.78,8.43 8.5,6.9 C10.23,5.37 10.23,2.9 8.5,1.37 C6.77,-0.16 3.97,-0.16 2.25,1.37 Z" fill="#FF79B6"></path>
                                <polygon fill="#6535B9" points="2.7 5.94 3.33 6.5 8.05 2.32 7.42 1.77"></polygon>
                            </g>
                            <path d="M6.66,11 L14.33,11 C14.7,11 14.99,10.7 14.99,10.34 L14.99,4.67 C14.99,4.3 14.69,4.01 14.33,4.01 L6.66,4.01 C6.29,4.01 6,4.31 6,4.67 L6,10.34 C6,10.7 6.3,11 6.66,11 Z" id="Path" fill="#4B28C4"></path>
                            <g transform="translate(9.000000, 4.000000)">
                                <path d="M0.69,6 L4.31,6 C4.69,6 5,5.69 5,5.31 L5,0.69 C5,0.31 4.69,-1.13686838e-13 4.31,-1.13686838e-13 L0.69,-1.13686838e-13 C0.31,-1.13686838e-13 0,0.31 0,0.69 L0,5.31 C0,5.69 0.31,6 0.69,6 Z" id="Path" fill="#3F02A8"></path>
                                <path d="M1.58,6 L4.43,6 C4.75,6 5.01,5.74 5.01,5.42 L5.01,1.57 C5.01,1.25 4.75,0.99 4.43,0.99 L1.58,0.99 C1.26,0.99 1,1.25 1,1.57 L1,5.42 C1,5.74 1.26,6 1.58,6 Z" id="Path" fill="#525DEA"></path>
                                <rect id="Rectangle" fill="#4B28C4" transform="translate(1.111800, 3.000000) rotate(-180.000000) translate(-1.111800, -3.000000) " x="1.0018" y="1" width="1" height="4"></rect>
                            </g>
                        </g>
                        <g transform="translate(63.000000, 20.000000)">
                            <g>
                                <g>
                                    <g transform="translate(0.000000, 1.000000)" fill="#8B3FAE">
                                        <path d="M6.12,10.49 C3.37,10.49 1.13,8.25 1.13,5.5 C1.13,2.75 3.37,0.51 6.12,0.51 L16.67,0.51 C19.42,0.51 21.66,2.75 21.66,5.5 C21.66,8.25 19.42,10.49 16.67,10.49 L6.12,10.49 Z" id="Path"></path>
                                        <path d="M16.66,1 C19.15,1 21.16,3.01 21.16,5.5 C21.16,7.99 19.15,10 16.66,10 L6.11,10 C3.62,10 1.61,7.99 1.61,5.5 C1.61,3.01 3.62,1 6.11,1 L16.66,1 Z M16.66,0.02 L6.11,0.02 C3.09,0.02 0.63,2.48 0.63,5.5 C0.63,8.52 3.09,10.98 6.11,10.98 L16.66,10.98 C19.68,10.98 22.14,8.52 22.14,5.5 C22.14,2.48 19.69,0.02 16.66,0.02 Z" id="Shape" fill-rule="nonzero"></path>
                                    </g>
                                    <g>
                                        <path d="M6.12,10.49 C3.37,10.49 1.13,8.25 1.13,5.5 C1.13,2.75 3.37,0.51 6.12,0.51 L16.67,0.51 C19.42,0.51 21.66,2.75 21.66,5.5 C21.66,8.25 19.42,10.49 16.67,10.49 L6.12,10.49 Z" id="Path" fill="#FF57A4"></path>
                                        <path d="M16.66,1 C19.15,1 21.16,3.01 21.16,5.5 C21.16,7.99 19.15,10 16.66,10 L6.11,10 C3.62,10 1.61,7.99 1.61,5.5 C1.61,3.01 3.62,1 6.11,1 L16.66,1 Z M16.66,0.02 L6.11,0.02 C3.09,0.02 0.63,2.48 0.63,5.5 C0.63,8.52 3.09,10.98 6.11,10.98 L16.66,10.98 C19.68,10.98 22.14,8.52 22.14,5.5 C22.14,2.48 19.69,0.02 16.66,0.02 Z" id="Shape" fill="#8B3FAE" fill-rule="nonzero"></path>
                                    </g>
                                </g>
                                <g transform="translate(3.000000, 4.000000)" fill="#383838">
                                    <circle id="Oval" cx="1" cy="2" r="1"></circle>
                                    <path d="M16.31,1.67 C16.31,2.1 15.92,2.45 15.43,2.45 C14.94,2.45 14.55,2.1 14.55,1.67 C14.55,1.24 14.94,0.89 15.43,0.89 C15.92,0.9 16.31,1.24 16.31,1.67 Z" id="Path"></path>
                                </g>
                            </g>
                            <g transform="translate(56.000000, 0.000000)">
                                <g>
                                    <g transform="translate(0.000000, 1.000000)" fill="#8B3FAE">
                                        <path d="M5.88,10.49 C3.13,10.49 0.89,8.25 0.89,5.5 C0.89,2.75 3.13,0.51 5.88,0.51 L16.43,0.51 C19.18,0.51 21.42,2.75 21.42,5.5 C21.42,8.25 19.18,10.49 16.43,10.49 L5.88,10.49 Z" id="Path"></path>
                                        <path d="M16.43,1 C18.92,1 20.93,3.01 20.93,5.5 C20.93,7.99 18.92,10 16.43,10 L5.88,10 C3.39,10 1.38,7.99 1.38,5.5 C1.38,3.01 3.39,1 5.88,1 L16.43,1 Z M16.43,0.02 L5.88,0.02 C2.86,0.02 0.4,2.48 0.4,5.5 C0.4,8.52 2.86,10.98 5.88,10.98 L16.43,10.98 C19.45,10.98 21.91,8.52 21.91,5.5 C21.91,2.48 19.45,0.02 16.43,0.02 Z" id="Shape" fill-rule="nonzero"></path>
                                    </g>
                                    <g>
                                        <path d="M5.88,10.49 C3.13,10.49 0.89,8.25 0.89,5.5 C0.89,2.75 3.13,0.51 5.88,0.51 L16.43,0.51 C19.18,0.51 21.42,2.75 21.42,5.5 C21.42,8.25 19.18,10.49 16.43,10.49 L5.88,10.49 Z" id="Path" fill="#FF57A4"></path>
                                        <path d="M16.43,1 C18.92,1 20.93,3.01 20.93,5.5 C20.93,7.99 18.92,10 16.43,10 L5.88,10 C3.39,10 1.38,7.99 1.38,5.5 C1.38,3.01 3.39,1 5.88,1 L16.43,1 Z M16.43,0.02 L5.88,0.02 C2.86,0.02 0.4,2.48 0.4,5.5 C0.4,8.52 2.86,10.98 5.88,10.98 L16.43,10.98 C19.45,10.98 21.91,8.52 21.91,5.5 C21.91,2.48 19.45,0.02 16.43,0.02 Z" id="Shape" fill="#8B3FAE" fill-rule="nonzero"></path>
                                    </g>
                                </g>
                                <g transform="translate(3.000000, 5.000000)" fill="#383838" id="Oval">
                                    <circle cx="1" cy="1" r="1"></circle>
                                    <circle cx="15" cy="1" r="1"></circle>
                                </g>
                            </g>
                            <g transform="translate(6.000000, 1.000000)" id="Path">
                                <path d="M56,3.42 L56,12.41 C56,14.62 53.68,16.26 51.22,15.78 C43.94,14.37 29.37,12.43 14.87,15.59 C12.4,16.13 10,14.48 10,12.24 L10,3.41 C10,2.08 8.77,0.99 7.25,0.99 L2.73,0.99 C1.23,0.99 0.01,2.07 0.01,3.4 L0.01,16.82 C0.01,22.44 5.15,26.99 11.49,26.99 L54.53,26.99 C60.87,26.99 66.01,22.44 66.01,16.82 L66.01,3.4 C66.01,2.07 64.79,0.99 63.29,0.99 L58.77,0.99 C57.23,1 56,2.08 56,3.42 Z" fill="#525DEA"></path>
                                <path d="M58,1.43 C57.19,1.57 56,3.82 56,3.82 L56,12.8 C56,15.03 53.68,16.68 51.22,16.2 C43.94,14.78 29.37,12.82 14.87,16.01 C12.4,16.55 10,14.89 10,12.64 L10,3.83 C10,3.83 9.42,1.59 8,1.44 L8,15.21 C8.07,17.56 12.89,19.01 12.89,19.01 L53.72,19.01 C53.72,19.01 58.54,17.56 58,15.21 L58,1.43 Z" fill="#4B28C4"></path>
                            </g>
                        </g>
                        <rect id="Rectangle" fill="#525DEA" x="6" y="0" width="193" height="3"></rect>
                    </g>
                </g>
            </g>
        </g>
    </g>
</svg>
