
<svg width="143px" height="180px" viewBox="0 0 143 180" version="1.1" xmlns="http://www.w3.org/2000/svg" xmlns:xlink="http://www.w3.org/1999/xlink">
    <defs>
        <linearGradient x1="106.814997%" y1="60.8577894%" x2="-25.4564458%" y2="33.9573599%" id="linearGradient-1">
            <stop stop-color="#9BA0B4" offset="0%"></stop>
            <stop stop-color="#A0A5B8" offset="6.81%"></stop>
            <stop stop-color="#C8CCD5" offset="68.22%"></stop>
            <stop stop-color="#D8DBE0" offset="100%"></stop>
        </linearGradient>
        <linearGradient x1="116.215319%" y1="72.576754%" x2="-34.0096427%" y2="17.179237%" id="linearGradient-2">
            <stop stop-color="#9BA0B4" offset="0%"></stop>
            <stop stop-color="#A1A5B8" offset="23.25%"></stop>
            <stop stop-color="#B0B5C3" offset="52.99%"></stop>
            <stop stop-color="#CBCED6" offset="86.13%"></stop>
            <stop stop-color="#D8DBE0" offset="100%"></stop>
        </linearGradient>
    </defs>
    <g id="Page-1" stroke="none" stroke-width="1" fill="none" fill-rule="evenodd">
        <g id="Landing-Cool" transform="translate(-224.000000, -301.000000)">
            <g id="Artwork" transform="translate(0.000000, 28.000000)">
                <g id="leaves" transform="translate(224.000000, 273.000000)">
                    <g id="left">
                        <path d="M141.83,89.15 C141.84,89.15 141.84,89.15 141.85,89.14 C142.06,89.03 142.16,88.78 142.08,88.56 C141.94,88.16 141.79,87.79 141.62,87.44 C141.61,87.38 141.6,87.32 141.6,87.26 C141.62,87.19 141.63,87.12 141.61,87.05 C141.6,87 141.57,86.87 141.52,86.68 C141.09,83.44 140.57,80.32 139.98,77.33 C140.04,77.22 140.06,77.08 140.02,76.95 C139.94,76.73 139.86,76.52 139.78,76.31 C138.88,71.9 137.84,67.77 136.69,63.91 C136.69,63.91 136.69,63.9 136.69,63.9 C136.69,63.89 136.69,63.89 136.68,63.89 C135.3,59.25 133.78,55 132.2,51.15 C132.2,51.11 132.2,51.07 132.18,51.03 C131.92,50.28 131.62,49.6 131.28,48.97 C130.12,46.28 128.94,43.8 127.77,41.53 C127.23,40.48 126.68,39.46 126.14,38.47 C125.53,36.69 124.66,35.27 123.62,34.13 C123.18,33.41 122.74,32.7 122.3,32.02 C122.3,32.02 122.3,32.01 122.3,32.01 C122.27,31.94 121.89,31.19 121.03,30.08 C119.32,27.54 117.67,25.29 116.12,23.34 C116.12,23.33 116.12,23.32 116.11,23.31 C116.02,23.16 106.88,7.72 93.86,0.81 C93.66,0.7 93.42,0.75 93.27,0.92 C93.12,1.09 93.11,1.33 93.24,1.51 C93.3,1.59 99.12,9.64 115.28,23.83 C115.84,24.53 116.41,25.27 116.99,26.05 C116.39,25.57 115.74,25.09 115.01,24.61 C110.15,21.39 101.36,17.75 87.09,18.72 C86.84,18.74 86.65,18.94 86.64,19.19 C86.64,19.44 86.82,19.65 87.07,19.68 C87.32,19.71 111.9,22.42 121.03,32.04 C116.82,29.54 111.12,29.56 106.21,29.58 C105.53,29.58 104.86,29.59 104.22,29.58 C100.31,29.56 91.66,28.44 86.84,24.39 C86.66,24.24 86.39,24.24 86.21,24.4 C86.03,24.56 86,24.83 86.14,25.03 C86.29,25.25 89.3,29.45 96.02,31.58 C97.75,32.13 99.73,32.54 101.96,32.71 L104.34,32.89 C114.06,33.6 121.73,34.17 125.26,38.9 C125.81,39.9 126.37,40.94 126.92,42 C127.35,42.84 127.78,43.71 128.21,44.61 C127.1,43.45 125.61,42.12 123.65,40.82 C118.79,37.6 109.99,33.97 95.73,34.93 C95.48,34.95 95.29,35.15 95.28,35.4 C95.28,35.65 95.46,35.86 95.71,35.89 C95.9,35.91 110.4,37.51 121.27,42.59 C118.29,42.09 115.12,42.1 112.23,42.11 C111.55,42.11 110.89,42.12 110.24,42.11 C106.33,42.09 97.68,40.97 92.86,36.92 C92.68,36.77 92.41,36.77 92.23,36.93 C92.05,37.09 92.02,37.36 92.16,37.56 C92.32,37.78 95.32,41.98 102.04,44.11 C102.25,44.18 102.47,44.23 102.69,44.3 C100.31,44.2 97.77,44.19 95.03,44.3 C94.78,44.31 94.58,44.51 94.57,44.75 C94.56,45 94.74,45.21 94.98,45.25 C95.25,45.29 117.05,48.64 128.81,56.21 C125.05,54.95 120.64,54.97 116.72,54.98 C116.04,54.98 115.38,54.99 114.73,54.98 C110.82,54.96 102.17,53.84 97.35,49.79 C97.16,49.64 96.9,49.64 96.72,49.8 C96.54,49.96 96.51,50.23 96.65,50.43 C96.81,50.65 99.81,54.85 106.53,56.98 C108.26,57.53 110.24,57.94 112.47,58.11 L114.85,58.29 C124.54,59 132.2,59.57 135.75,64.27 C136.37,66.36 136.96,68.53 137.51,70.79 C136.56,69.32 135.17,67.62 133.14,65.94 C128.26,61.91 118.6,57.27 100.27,58.02 C100.02,58.03 99.82,58.23 99.81,58.47 C99.8,58.72 99.98,58.93 100.22,58.97 C100.49,59.01 122.59,62.41 133.51,70.11 C129.88,68.66 125.46,68.68 121.57,68.69 C120.94,68.69 120.33,68.7 119.74,68.69 C116.14,68.67 108.17,67.64 103.74,63.91 C103.55,63.76 103.29,63.76 103.11,63.92 C102.93,64.08 102.9,64.35 103.04,64.55 C103.18,64.76 105.96,68.64 112.17,70.6 C113.77,71.11 115.59,71.49 117.66,71.64 L119.85,71.8 C128.63,72.44 135.6,72.96 138.92,77.1 C139.33,79.14 139.7,81.24 140.03,83.4 C137.1,78.52 128.82,70.58 106.07,71.52 C105.82,71.53 105.62,71.73 105.61,71.97 C105.6,72.22 105.78,72.43 106.02,72.47 C106.27,72.51 126.7,75.65 136.45,82.77 C133.48,81.65 129.92,81.66 126.78,81.67 C126.26,81.67 125.76,81.67 125.27,81.67 C121.84,81.65 115.5,80.59 112.13,77.75 C111.94,77.6 111.68,77.6 111.5,77.76 C111.32,77.92 111.29,78.19 111.43,78.39 C111.55,78.56 113.86,81.78 119.01,83.42 C120.33,83.84 121.84,84.15 123.55,84.28 L125.36,84.42 C132.34,84.93 137.93,85.35 140.75,88.43 C142.25,100.6 142.54,114.49 140.85,130.14 L141.8,130.24 C143.51,114.89 143.25,101.19 141.83,89.15 Z M129.51,52.6 C126.47,50.09 121.63,47.36 114.19,45.72 C122.04,46.37 128.18,47.33 131.26,51.36 C131.93,52.99 132.59,54.69 133.23,56.46 C132.3,55.23 131.1,53.91 129.51,52.6 Z" id="Shape" fill="#8B3FAE" fill-rule="nonzero"></path>
                        <g id="Group" transform="translate(0.000000, 80.000000)">
                            <path d="M98.86,90.18 C98.86,90.18 85.02,96.72 70.64,86.46 C59.58,78.57 47.53,89.24 36.64,77.08 C24.63,63.66 37.16,48.35 20.14,41.01 C-1.43,31.7 -0.46,23.33 2.47,3.7 C21.67,-1.33 29.88,-3.2 41.47,17.24 C50.61,33.36 64.48,19.25 79.11,29.75 C92.38,39.26 83.07,52.39 92.11,62.54 C103.87,75.71 98.86,90.18 98.86,90.18 Z" id="Path" fill="url(#linearGradient-1)"></path>
                            <path d="M109.1,99.36 L13.28,13.4" id="Path" stroke="#525DEA" stroke-width="1.4662"></path>
                            <g transform="translate(13.000000, 11.000000)" id="Path" stroke="#525DEA" stroke-width="1.4662">
                                <path d="M30.36,55.74 C30.36,55.74 45.52,42.98 60.94,56.82"></path>
                                <path d="M0.31,15.6 C0.31,15.6 8.92,10.14 20.64,20.66"></path>
                                <path d="M56.57,26.53 C56.57,26.53 45.52,42.98 60.95,56.82"></path>
                                <path d="M13.41,0.99 C13.41,0.99 8.92,10.14 20.64,20.65"></path>
                            </g>
                        </g>
                        <g id="Group" transform="translate(62.000000, 4.000000)">
                            <path d="M54.91,81.11 C54.91,81.11 43.82,82.78 35.89,72.55 C29.79,64.68 19.09,69.63 14.01,58.8 C8.41,46.85 20.43,38.75 10.03,30.01 C-3.14,18.93 -0.7,13.27 5.49,0.11 C20.02,0.62 26.18,1.04 30,17.83 C33.02,31.07 45.72,24.09 53.78,34.54 C61.09,44.01 51.79,51.26 55.99,60.29 C61.47,72.02 54.91,81.11 54.91,81.11 Z" id="Path" fill="url(#linearGradient-2)"></path>
                            <path d="M60.16,89.71 L11.05,9.21" id="Path" stroke="#4B28C4" stroke-width="1.0996"></path>
                            <g transform="translate(8.000000, 10.000000)" id="Path" stroke="#4B28C4" stroke-width="1.0996">
                                <path d="M12.91,42.97 C12.91,42.97 26.23,37.21 34.14,50.17"></path>
                                <path d="M0.28,8.47 C0.28,8.47 7.47,6.46 13.48,16.3"></path>
                                <path d="M37.45,28 C37.45,28 26.23,37.21 34.14,50.17"></path>
                                <path d="M12.55,0.99 C12.55,0.99 7.47,6.46 13.48,16.31"></path>
                            </g>
                        </g>
                        <path d="M114.63,117.18 C114.64,117.17 114.65,117.17 114.65,117.16 C114.9,116.91 114.92,116.52 114.72,116.24 C114.35,115.74 113.97,115.29 113.57,114.87 C113.53,114.79 113.5,114.71 113.46,114.63 C113.46,114.53 113.44,114.42 113.38,114.33 C113.35,114.27 113.24,114.09 113.09,113.85 C111.04,109.48 108.92,105.32 106.76,101.37 C106.8,101.18 106.77,100.98 106.64,100.82 C106.44,100.54 106.23,100.28 106.01,100.02 C102.78,94.21 99.47,88.86 96.14,83.94 C96.14,83.94 96.14,83.93 96.13,83.93 C96.13,83.92 96.12,83.92 96.12,83.91 C92.11,77.99 88.07,72.69 84.13,67.98 C84.11,67.92 84.09,67.87 84.05,67.81 C83.35,66.87 82.62,66.05 81.87,65.31 C79.04,62.04 76.27,59.07 73.61,56.4 C72.38,55.16 71.16,53.97 69.94,52.82 C68.28,50.59 66.43,48.97 64.46,47.83 C63.52,47.01 62.58,46.21 61.66,45.44 C61.66,45.44 61.65,45.43 61.65,45.43 C61.57,45.35 60.71,44.47 59,43.28 C55.46,40.46 52.13,38.03 49.09,35.98 C49.08,35.97 49.08,35.96 49.06,35.95 C48.86,35.77 29.11,18.11 7.7,14.19 C7.38,14.13 7.06,14.3 6.92,14.6 C6.79,14.9 6.88,15.25 7.14,15.45 C7.26,15.54 19.04,24.27 48.13,37.05 C49.22,37.79 50.36,38.57 51.53,39.41 C50.47,39.01 49.34,38.62 48.1,38.27 C39.82,35.91 25.82,34.71 6.16,42.43 C5.82,42.56 5.64,42.94 5.74,43.29 C5.84,43.64 6.2,43.85 6.56,43.78 C6.93,43.7 42.75,36.57 59.89,46.04 C52.85,44.4 44.84,46.97 37.93,49.19 C36.98,49.5 36.04,49.8 35.13,50.08 C29.62,51.79 16.94,54.08 8.35,50.52 C8.02,50.39 7.64,50.51 7.47,50.82 C7.29,51.13 7.37,51.52 7.65,51.74 C7.97,51.98 14.07,56.56 24.49,56.55 C27.17,56.55 30.14,56.25 33.36,55.49 L36.79,54.68 C50.79,51.35 61.85,48.72 68.93,53.82 C70.16,54.99 71.4,56.19 72.65,57.45 C73.63,58.44 74.63,59.48 75.63,60.54 C73.55,59.4 70.86,58.2 67.52,57.24 C59.24,54.88 45.24,53.68 25.58,61.4 C25.24,61.54 25.05,61.91 25.16,62.26 C25.26,62.61 25.62,62.82 25.98,62.75 C26.26,62.69 47.39,58.48 64.96,60.79 C60.54,61.41 56.09,62.84 52.01,64.15 C51.05,64.46 50.12,64.76 49.21,65.04 C43.7,66.75 31.01,69.04 22.43,65.48 C22.1,65.35 21.72,65.47 21.55,65.78 C21.37,66.09 21.45,66.48 21.73,66.7 C22.05,66.94 28.15,71.52 38.57,71.51 C38.89,71.51 39.24,71.49 39.57,71.48 C36.17,72.4 32.6,73.52 28.79,74.9 C28.45,75.02 28.25,75.39 28.35,75.74 C28.44,76.09 28.79,76.31 29.15,76.26 C29.55,76.19 61.74,71.2 81.68,76.6 C75.82,76.51 69.62,78.49 64.11,80.26 C63.16,80.57 62.22,80.87 61.31,81.15 C55.8,82.86 43.11,85.15 34.53,81.59 C34.2,81.46 33.82,81.58 33.65,81.89 C33.47,82.2 33.55,82.59 33.83,82.81 C34.15,83.05 40.25,87.63 50.67,87.62 C53.35,87.62 56.32,87.32 59.54,86.56 L62.97,85.75 C76.94,82.43 87.97,79.81 95.06,84.85 C96.86,87.52 98.66,90.32 100.44,93.24 C98.45,91.59 95.73,89.82 92.12,88.36 C83.45,84.86 67.78,82.63 42.3,91.88 C41.96,92 41.76,92.37 41.86,92.72 C41.95,93.07 42.3,93.3 42.66,93.24 C43.06,93.18 75.69,88.11 94.5,94.08 C88.74,93.66 82.52,95.66 77.06,97.41 C76.18,97.69 75.32,97.97 74.48,98.23 C69.41,99.8 57.72,101.91 49.82,98.64 C49.49,98.51 49.11,98.63 48.94,98.94 C48.76,99.25 48.84,99.64 49.12,99.86 C49.41,100.09 55.06,104.31 64.68,104.31 C67.16,104.31 69.89,104.03 72.87,103.33 L76.03,102.58 C88.68,99.57 98.72,97.2 105.25,101.54 C106.73,104.23 108.19,107.03 109.63,109.92 C103.34,104.36 88.13,96.86 56.51,108.34 C56.17,108.46 55.97,108.83 56.07,109.18 C56.16,109.53 56.51,109.76 56.87,109.7 C57.23,109.64 87.41,104.95 104.3,110.63 C99.62,110.38 94.61,111.97 90.19,113.39 C89.47,113.62 88.75,113.85 88.06,114.07 C83.22,115.57 73.83,116.9 67.81,114.41 C67.48,114.28 67.1,114.4 66.93,114.71 C66.75,115.02 66.83,115.41 67.11,115.63 C67.35,115.82 72.04,119.33 80.02,119.33 C82.07,119.33 84.34,119.1 86.8,118.52 L89.41,117.9 C99.47,115.51 107.52,113.6 112.86,116.68 C120.39,133.14 127,152.58 131.6,175.36 L132.99,175.08 C128.47,152.68 122,133.5 114.63,117.18 Z M80.99,71.21 C75.59,69.03 67.56,67.34 56.34,68.36 C67.69,65.77 76.76,64.39 82.89,68.69 C84.56,70.68 86.24,72.78 87.94,74.99 C86.08,73.66 83.8,72.35 80.99,71.21 Z" id="Shape" fill="#FF57A4" fill-rule="nonzero"></path>
                    </g>
                </g>
            </g>
        </g>
    </g>
</svg>
