
<svg width="156px" height="153px" viewBox="0 0 156 153" version="1.1" xmlns="http://www.w3.org/2000/svg" xmlns:xlink="http://www.w3.org/1999/xlink">
    <defs>
        <linearGradient x1="-8.89305802%" y1="63.9884596%" x2="127.416162%" y2="29.2907859%" id="linearGradient-1">
            <stop stop-color="#9BA0B4" offset="0%"></stop>
            <stop stop-color="#A1A5B8" offset="23.25%"></stop>
            <stop stop-color="#B0B5C3" offset="52.99%"></stop>
            <stop stop-color="#CBCED6" offset="86.13%"></stop>
            <stop stop-color="#D8DBE0" offset="100%"></stop>
        </linearGradient>
        <linearGradient x1="-6.81260782%" y1="60.8577985%" x2="125.458692%" y2="33.9573607%" id="linearGradient-2">
            <stop stop-color="#9BA0B4" offset="0%"></stop>
            <stop stop-color="#A1A5B8" offset="23.25%"></stop>
            <stop stop-color="#B0B5C3" offset="52.99%"></stop>
            <stop stop-color="#CBCED6" offset="86.13%"></stop>
            <stop stop-color="#D8DBE0" offset="100%"></stop>
        </linearGradient>
    </defs>
    <g id="Page-1" stroke="none" stroke-width="1" fill="none" fill-rule="evenodd">
        <g id="Landing-Cool" transform="translate(-396.000000, -328.000000)">
            <g id="Artwork" transform="translate(0.000000, 28.000000)">
                <g id="leaves" transform="translate(224.000000, 273.000000)">
                    <g id="right" transform="translate(172.000000, 27.000000)">
                        <g id="Group" transform="translate(35.000000, 0.000000)">
                            <path d="M6.08,54.24 C6.08,54.24 14.15,57.41 21.89,51.07 C27.84,46.19 35.06,51.76 40.75,44.47 C47.03,36.43 39.37,28.25 48.71,23.46 C60.55,17.38 59.68,12.69 57.28,1.7 C46.24,-0.41 41.53,-1.16 35.75,10.83 C31.2,20.29 22.82,12.84 14.95,19.33 C7.81,25.21 13.57,32.28 8.85,38.35 C2.7,46.26 6.08,54.24 6.08,54.24 Z" id="Path" fill="url(#linearGradient-1)"></path>
                            <path d="M0.65,59.82 L51.53,7.6" id="Path" stroke="#4B28C4" stroke-width="1.0996"></path>
                            <g transform="translate(19.000000, 7.000000)" id="Path" stroke="#4B28C4" stroke-width="1.0996">
                                <path d="M17.56,31.89 C17.56,31.89 8.51,25.26 0.32,33.66"></path>
                                <path d="M33.02,8.06 C33.02,8.06 27.95,5.3 21.72,11.69"></path>
                                <path d="M1.64,16.38 C1.64,16.38 8.51,25.26 0.32,33.66"></path>
                                <path d="M25.06,0.3 C25.06,0.3 27.95,5.3 21.72,11.69"></path>
                            </g>
                        </g>
                        <g id="Group" transform="translate(47.000000, 53.000000)">
                            <path d="M11.05,90.18 C11.05,90.18 24.89,96.72 39.27,86.46 C50.33,78.57 62.38,89.24 73.27,77.08 C85.28,63.66 72.75,48.35 89.77,41.01 C111.34,31.7 110.37,23.33 107.44,3.7 C88.24,-1.33 80.03,-3.2 68.44,17.24 C59.3,33.36 45.43,19.25 30.8,29.75 C17.53,39.26 26.84,52.39 17.8,62.54 C6.04,75.71 11.05,90.18 11.05,90.18 Z" id="Path" fill="url(#linearGradient-2)"></path>
                            <path d="M0.81,99.36 L96.63,13.4" id="Path" stroke="#525DEA" stroke-width="1.4662"></path>
                            <g transform="translate(35.000000, 11.000000)" id="Path" stroke="#525DEA" stroke-width="1.4662">
                                <path d="M31.55,55.74 C31.55,55.74 16.39,42.98 0.97,56.82"></path>
                                <path d="M61.61,15.6 C61.61,15.6 53,10.14 41.28,20.66"></path>
                                <path d="M5.35,26.53 C5.35,26.53 16.4,42.98 0.97,56.82"></path>
                                <path d="M48.5,0.99 C48.5,0.99 52.99,10.14 41.27,20.65"></path>
                            </g>
                        </g>
                        <path d="M0.8,146.59 L2.15,147.03 C9.39,124.94 18.25,106.42 27.66,90.96 C33.33,88.53 41.1,91.37 50.81,94.93 L53.33,95.85 C55.71,96.71 57.93,97.21 59.97,97.45 C67.9,98.39 72.96,95.46 73.23,95.3 C73.53,95.12 73.66,94.74 73.52,94.41 C73.38,94.08 73.02,93.91 72.68,94.01 C66.41,95.77 57.24,93.35 52.61,91.29 C51.95,91 51.27,90.69 50.58,90.37 C46.36,88.44 41.57,86.27 36.89,85.97 C54.34,82.32 83.75,90.52 84.11,90.62 C84.46,90.72 84.83,90.54 84.96,90.19 C85.09,89.85 84.94,89.47 84.62,89.3 C54.57,74.18 38.59,79.84 31.68,84.62 C33.45,81.92 35.22,79.31 37.01,76.82 C44,73.28 53.69,76.81 65.9,81.29 L68.95,82.4 C71.83,83.45 74.51,84.05 76.97,84.34 C86.53,85.47 92.63,81.94 92.94,81.75 C93.24,81.57 93.37,81.19 93.23,80.86 C93.09,80.53 92.73,80.36 92.39,80.46 C84.16,82.78 72.81,79.31 67.95,77.15 C67.15,76.79 66.32,76.42 65.48,76.03 C60.26,73.65 54.32,70.93 48.55,70.67 C67.94,66.96 99.75,75.83 100.13,75.94 C100.48,76.03 100.85,75.86 100.98,75.51 C101.11,75.17 100.96,74.79 100.64,74.62 C76.43,62.44 60.6,62.81 51.58,65.27 C47.83,66.29 44.92,67.73 42.75,69.13 C44.86,66.44 46.98,63.87 49.08,61.43 C56.71,57.26 67.36,61.16 80.84,66.1 L84.15,67.31 C87.27,68.44 90.17,69.09 92.84,69.41 C103.18,70.64 109.78,66.81 110.13,66.61 C110.43,66.43 110.56,66.05 110.42,65.72 C110.28,65.39 109.92,65.22 109.58,65.32 C100.64,67.84 88.31,64.07 83.04,61.73 C82.17,61.34 81.28,60.93 80.36,60.52 C75.1,58.12 69.18,55.41 63.35,54.82 C83.79,51.8 115.16,60.55 115.55,60.66 C115.89,60.75 116.27,60.58 116.4,60.23 C116.53,59.89 116.38,59.51 116.06,59.34 C112.44,57.52 109.02,56 105.76,54.68 C106.09,54.73 106.43,54.79 106.75,54.83 C117.09,56.06 123.69,52.23 124.04,52.03 C124.34,51.85 124.47,51.47 124.33,51.14 C124.19,50.81 123.83,50.64 123.49,50.74 C114.55,53.26 102.22,49.5 96.95,47.15 C96.08,46.76 95.18,46.35 94.27,45.94 C90.38,44.16 86.12,42.22 81.81,41.08 C99.53,40.86 120.02,47.53 120.29,47.62 C120.64,47.73 121.02,47.56 121.16,47.23 C121.31,46.89 121.17,46.5 120.84,46.33 C102.23,36.35 88.18,35.9 79.68,37.27 C76.25,37.82 73.44,38.7 71.24,39.59 C72.37,38.65 73.48,37.74 74.57,36.87 C75.96,35.77 77.33,34.72 78.69,33.7 C86.32,29.47 97,33.38 110.51,38.34 L113.82,39.55 C116.93,40.68 119.84,41.33 122.51,41.65 C132.85,42.88 139.45,39.05 139.8,38.85 C140.11,38.67 140.23,38.29 140.09,37.96 C139.95,37.63 139.59,37.46 139.25,37.56 C130.3,40.08 117.98,36.31 112.71,33.97 C111.84,33.58 110.94,33.17 110.03,32.76 C103.43,29.75 95.78,26.25 88.59,27.05 C106.73,19.66 141.46,30.96 141.82,31.08 C142.17,31.19 142.55,31.02 142.69,30.69 C142.84,30.35 142.7,29.96 142.37,29.79 C123.76,19.81 109.71,19.35 101.21,20.73 C99.95,20.93 98.77,21.18 97.67,21.46 C98.93,20.77 100.15,20.12 101.32,19.52 C131.72,10.25 144.45,2.96 144.57,2.89 C144.85,2.73 144.99,2.39 144.89,2.07 C144.79,1.76 144.5,1.54 144.17,1.57 C122.45,2.95 100.75,18.16 100.54,18.31 C100.53,18.32 100.52,18.33 100.51,18.34 C97.25,20.02 93.65,22.03 89.81,24.42 C87.98,25.4 87.01,26.17 86.93,26.24 C86.93,26.24 86.92,26.25 86.92,26.25 C85.92,26.9 84.89,27.59 83.86,28.29 C81.76,29.19 79.74,30.57 77.83,32.6 C76.49,33.6 75.14,34.64 73.77,35.72 C70.82,38.06 67.71,40.69 64.52,43.6 C63.68,44.24 62.86,44.97 62.06,45.83 C62.02,45.88 61.99,45.93 61.96,45.98 C57.49,50.2 52.86,54.98 48.18,60.39 C48.17,60.4 48.17,60.4 48.16,60.41 C48.16,60.41 48.16,60.42 48.15,60.42 C44.26,64.91 40.34,69.84 36.45,75.23 C36.21,75.46 35.97,75.7 35.74,75.95 C35.6,76.1 35.55,76.29 35.56,76.49 C32.95,80.16 30.36,84.04 27.81,88.14 C27.62,88.37 27.5,88.53 27.46,88.59 C27.4,88.68 27.36,88.78 27.35,88.88 C27.3,88.95 27.26,89.03 27.21,89.1 C26.77,89.47 26.34,89.88 25.91,90.33 C25.67,90.58 25.65,90.98 25.87,91.25 C25.88,91.26 25.88,91.26 25.89,91.27 C16.6,106.59 7.93,124.87 0.8,146.59 Z M57.32,52.48 C59.26,50.49 61.18,48.6 63.07,46.82 C69.67,43.28 78.51,45.71 89.48,49.62 C78.46,47.29 70.29,48.03 64.67,49.55 C61.73,50.35 59.31,51.39 57.32,52.48 Z" id="Shape" fill="#FF57A4" fill-rule="nonzero"></path>
                    </g>
                </g>
            </g>
        </g>
    </g>
</svg>
