
<svg width="384px" height="169px" viewBox="0 0 384 169" version="1.1" xmlns="http://www.w3.org/2000/svg" xmlns:xlink="http://www.w3.org/1999/xlink">
    <defs>
        <linearGradient x1="172.261854%" y1="96.8691275%" x2="-56.4816488%" y2="24.0066091%" id="linearGradient-1">
            <stop stop-color="#4B28C4" offset="0%"></stop>
            <stop stop-color="#4C2EC8" offset="25.27%"></stop>
            <stop stop-color="#4E3DD3" offset="57.59%"></stop>
            <stop stop-color="#5158E6" offset="93.61%"></stop>
            <stop stop-color="#525DEA" offset="100%"></stop>
        </linearGradient>
        <linearGradient x1="49.3840848%" y1="44.4395648%" x2="51.7943195%" y2="83.2033434%" id="linearGradient-2">
            <stop stop-color="#CED2D8" offset="0%"></stop>
            <stop stop-color="#BFC3CD" offset="36.12%"></stop>
            <stop stop-color="#9BA0B4" offset="100%"></stop>
        </linearGradient>
        <linearGradient x1="49.148213%" y1="41.0063628%" x2="51.1693703%" y2="73.8008096%" id="linearGradient-3">
            <stop stop-color="#CED2D8" offset="0%"></stop>
            <stop stop-color="#BFC3CD" offset="36.12%"></stop>
            <stop stop-color="#9BA0B4" offset="100%"></stop>
        </linearGradient>
        <linearGradient x1="67.9297985%" y1="90.3254262%" x2="31.6407618%" y2="8.90048224%" id="linearGradient-4">
            <stop stop-color="#CED2D8" offset="0%"></stop>
            <stop stop-color="#BFC3CD" offset="36.12%"></stop>
            <stop stop-color="#9BA0B4" offset="100%"></stop>
        </linearGradient>
        <linearGradient x1="68.1780046%" y1="90.030494%" x2="31.2062244%" y2="9.2433337%" id="linearGradient-5">
            <stop stop-color="#9BA0B4" offset="0%"></stop>
            <stop stop-color="#BFC3CD" offset="63.88%"></stop>
            <stop stop-color="#CED2D8" offset="100%"></stop>
        </linearGradient>
        <linearGradient x1="67.9253982%" y1="90.3249996%" x2="31.6363616%" y2="8.88718481%" id="linearGradient-6">
            <stop stop-color="#CED2D8" offset="0%"></stop>
            <stop stop-color="#BFC3CD" offset="36.12%"></stop>
            <stop stop-color="#9BA0B4" offset="100%"></stop>
        </linearGradient>
        <linearGradient x1="68.1729279%" y1="90.0139756%" x2="31.2011477%" y2="9.22681532%" id="linearGradient-7">
            <stop stop-color="#9BA0B4" offset="0%"></stop>
            <stop stop-color="#BFC3CD" offset="63.88%"></stop>
            <stop stop-color="#CED2D8" offset="100%"></stop>
        </linearGradient>
        <linearGradient x1="67.9204368%" y1="90.3090358%" x2="31.6319613%" y2="8.87248049%" id="linearGradient-8">
            <stop stop-color="#CED2D8" offset="0%"></stop>
            <stop stop-color="#BFC3CD" offset="36.12%"></stop>
            <stop stop-color="#9BA0B4" offset="100%"></stop>
        </linearGradient>
        <linearGradient x1="68.1678513%" y1="90.0700042%" x2="31.1954236%" y2="9.21630538%" id="linearGradient-9">
            <stop stop-color="#9BA0B4" offset="0%"></stop>
            <stop stop-color="#BFC3CD" offset="63.88%"></stop>
            <stop stop-color="#CED2D8" offset="100%"></stop>
        </linearGradient>
        <linearGradient x1="67.9175093%" y1="90.364702%" x2="31.6290339%" y2="8.9857133%" id="linearGradient-10">
            <stop stop-color="#CED2D8" offset="0%"></stop>
            <stop stop-color="#BFC3CD" offset="36.12%"></stop>
            <stop stop-color="#9BA0B4" offset="100%"></stop>
        </linearGradient>
        <linearGradient x1="68.1644738%" y1="90.0529329%" x2="31.1920461%" y2="9.19923411%" id="linearGradient-11">
            <stop stop-color="#9BA0B4" offset="0%"></stop>
            <stop stop-color="#BFC3CD" offset="63.88%"></stop>
            <stop stop-color="#CED2D8" offset="100%"></stop>
        </linearGradient>
        <linearGradient x1="67.9131091%" y1="90.3500081%" x2="31.6246336%" y2="8.97101937%" id="linearGradient-12">
            <stop stop-color="#CED2D8" offset="0%"></stop>
            <stop stop-color="#BFC3CD" offset="36.12%"></stop>
            <stop stop-color="#9BA0B4" offset="100%"></stop>
        </linearGradient>
        <linearGradient x1="68.1587497%" y1="90.0349853%" x2="31.1869695%" y2="9.18270241%" id="linearGradient-13">
            <stop stop-color="#9BA0B4" offset="0%"></stop>
            <stop stop-color="#BFC3CD" offset="63.88%"></stop>
            <stop stop-color="#CED2D8" offset="100%"></stop>
        </linearGradient>
        <linearGradient x1="67.9087088%" y1="90.3353141%" x2="31.6202334%" y2="8.95632544%" id="linearGradient-14">
            <stop stop-color="#CED2D8" offset="0%"></stop>
            <stop stop-color="#BFC3CD" offset="36.12%"></stop>
            <stop stop-color="#9BA0B4" offset="100%"></stop>
        </linearGradient>
        <linearGradient x1="68.1553722%" y1="90.017914%" x2="31.183592%" y2="9.16563114%" id="linearGradient-15">
            <stop stop-color="#9BA0B4" offset="0%"></stop>
            <stop stop-color="#BFC3CD" offset="63.88%"></stop>
            <stop stop-color="#CED2D8" offset="100%"></stop>
        </linearGradient>
        <linearGradient x1="67.9043086%" y1="90.3206202%" x2="31.6152719%" y2="8.94037295%" id="linearGradient-16">
            <stop stop-color="#CED2D8" offset="0%"></stop>
            <stop stop-color="#BFC3CD" offset="36.12%"></stop>
            <stop stop-color="#9BA0B4" offset="100%"></stop>
        </linearGradient>
        <linearGradient x1="68.1485963%" y1="90.0019219%" x2="31.1768161%" y2="9.14963901%" id="linearGradient-17">
            <stop stop-color="#9BA0B4" offset="0%"></stop>
            <stop stop-color="#BFC3CD" offset="63.88%"></stop>
            <stop stop-color="#CED2D8" offset="100%"></stop>
        </linearGradient>
        <linearGradient x1="67.9013811%" y1="90.3550454%" x2="31.6123445%" y2="8.93010144%" id="linearGradient-18">
            <stop stop-color="#CED2D8" offset="0%"></stop>
            <stop stop-color="#BFC3CD" offset="36.12%"></stop>
            <stop stop-color="#9BA0B4" offset="100%"></stop>
        </linearGradient>
        <linearGradient x1="68.1452189%" y1="89.9848506%" x2="31.1734387%" y2="9.13256773%" id="linearGradient-19">
            <stop stop-color="#9BA0B4" offset="0%"></stop>
            <stop stop-color="#BFC3CD" offset="63.88%"></stop>
            <stop stop-color="#CED2D8" offset="100%"></stop>
        </linearGradient>
        <linearGradient x1="67.8969809%" y1="90.3403434%" x2="31.6079443%" y2="8.91539944%" id="linearGradient-20">
            <stop stop-color="#CED2D8" offset="0%"></stop>
            <stop stop-color="#BFC3CD" offset="36.12%"></stop>
            <stop stop-color="#9BA0B4" offset="100%"></stop>
        </linearGradient>
        <linearGradient x1="68.1401422%" y1="89.9683189%" x2="31.1677145%" y2="9.11462005%" id="linearGradient-21">
            <stop stop-color="#9BA0B4" offset="0%"></stop>
            <stop stop-color="#BFC3CD" offset="63.88%"></stop>
            <stop stop-color="#CED2D8" offset="100%"></stop>
        </linearGradient>
        <linearGradient x1="67.8920194%" y1="90.3243821%" x2="31.603544%" y2="8.90069744%" id="linearGradient-22">
            <stop stop-color="#CED2D8" offset="0%"></stop>
            <stop stop-color="#BFC3CD" offset="36.12%"></stop>
            <stop stop-color="#9BA0B4" offset="100%"></stop>
        </linearGradient>
        <linearGradient x1="68.1367648%" y1="89.9512476%" x2="31.1643371%" y2="9.09754878%" id="linearGradient-23">
            <stop stop-color="#9BA0B4" offset="0%"></stop>
            <stop stop-color="#BFC3CD" offset="63.88%"></stop>
            <stop stop-color="#CED2D8" offset="100%"></stop>
        </linearGradient>
        <linearGradient x1="67.8876192%" y1="90.3239553%" x2="31.5991438%" y2="8.88740005%" id="linearGradient-24">
            <stop stop-color="#CED2D8" offset="0%"></stop>
            <stop stop-color="#BFC3CD" offset="36.12%"></stop>
            <stop stop-color="#9BA0B4" offset="100%"></stop>
        </linearGradient>
        <linearGradient x1="68.1299889%" y1="90.0142174%" x2="31.1575612%" y2="9.22564227%" id="linearGradient-25">
            <stop stop-color="#9BA0B4" offset="0%"></stop>
            <stop stop-color="#BFC3CD" offset="63.88%"></stop>
            <stop stop-color="#CED2D8" offset="100%"></stop>
        </linearGradient>
        <linearGradient x1="67.8817462%" y1="90.3097309%" x2="31.5932707%" y2="8.87317565%" id="linearGradient-26">
            <stop stop-color="#CED2D8" offset="0%"></stop>
            <stop stop-color="#BFC3CD" offset="36.12%"></stop>
            <stop stop-color="#9BA0B4" offset="100%"></stop>
        </linearGradient>
        <linearGradient x1="68.1266114%" y1="90.0532631%" x2="31.1541838%" y2="9.21432528%" id="linearGradient-27">
            <stop stop-color="#9BA0B4" offset="0%"></stop>
            <stop stop-color="#BFC3CD" offset="63.88%"></stop>
            <stop stop-color="#CED2D8" offset="100%"></stop>
        </linearGradient>
        <linearGradient x1="67.8758731%" y1="90.3663558%" x2="31.5868365%" y2="8.98610858%" id="linearGradient-28">
            <stop stop-color="#CED2D8" offset="0%"></stop>
            <stop stop-color="#BFC3CD" offset="36.12%"></stop>
            <stop stop-color="#9BA0B4" offset="100%"></stop>
        </linearGradient>
        <linearGradient x1="68.1181364%" y1="90.0542541%" x2="31.1457087%" y2="9.20055523%" id="linearGradient-29">
            <stop stop-color="#9BA0B4" offset="0%"></stop>
            <stop stop-color="#BFC3CD" offset="63.88%"></stop>
            <stop stop-color="#CED2D8" offset="100%"></stop>
        </linearGradient>
        <linearGradient x1="67.8714729%" y1="90.3516619%" x2="31.5824363%" y2="8.97141465%" id="linearGradient-30">
            <stop stop-color="#CED2D8" offset="0%"></stop>
            <stop stop-color="#BFC3CD" offset="36.12%"></stop>
            <stop stop-color="#9BA0B4" offset="100%"></stop>
        </linearGradient>
        <linearGradient x1="68.1141115%" y1="90.0357668%" x2="31.1423313%" y2="9.18348396%" id="linearGradient-31">
            <stop stop-color="#9BA0B4" offset="0%"></stop>
            <stop stop-color="#BFC3CD" offset="63.88%"></stop>
            <stop stop-color="#CED2D8" offset="100%"></stop>
        </linearGradient>
        <linearGradient x1="67.8670726%" y1="90.336968%" x2="31.578036%" y2="8.95672072%" id="linearGradient-32">
            <stop stop-color="#CED2D8" offset="0%"></stop>
            <stop stop-color="#BFC3CD" offset="36.12%"></stop>
            <stop stop-color="#9BA0B4" offset="100%"></stop>
        </linearGradient>
        <linearGradient x1="68.1090348%" y1="90.0192351%" x2="31.1372546%" y2="9.16695226%" id="linearGradient-33">
            <stop stop-color="#9BA0B4" offset="0%"></stop>
            <stop stop-color="#BFC3CD" offset="63.88%"></stop>
            <stop stop-color="#CED2D8" offset="100%"></stop>
        </linearGradient>
        <linearGradient x1="67.8641452%" y1="90.3217945%" x2="31.5751086%" y2="8.94154721%" id="linearGradient-34">
            <stop stop-color="#CED2D8" offset="0%"></stop>
            <stop stop-color="#BFC3CD" offset="36.12%"></stop>
            <stop stop-color="#9BA0B4" offset="100%"></stop>
        </linearGradient>
        <linearGradient x1="68.1039581%" y1="90.0027034%" x2="31.1315305%" y2="9.14900458%" id="linearGradient-35">
            <stop stop-color="#9BA0B4" offset="0%"></stop>
            <stop stop-color="#BFC3CD" offset="63.88%"></stop>
            <stop stop-color="#CED2D8" offset="100%"></stop>
        </linearGradient>
        <linearGradient x1="67.8597449%" y1="90.3567001%" x2="31.5707083%" y2="8.9317562%" id="linearGradient-36">
            <stop stop-color="#CED2D8" offset="0%"></stop>
            <stop stop-color="#BFC3CD" offset="36.12%"></stop>
            <stop stop-color="#9BA0B4" offset="100%"></stop>
        </linearGradient>
        <linearGradient x1="68.0988815%" y1="89.9861717%" x2="31.1264538%" y2="9.13247288%" id="linearGradient-37">
            <stop stop-color="#9BA0B4" offset="0%"></stop>
            <stop stop-color="#BFC3CD" offset="63.88%"></stop>
            <stop stop-color="#CED2D8" offset="100%"></stop>
        </linearGradient>
        <linearGradient x1="67.8547835%" y1="90.3407389%" x2="31.5663081%" y2="8.9170542%" id="linearGradient-38">
            <stop stop-color="#CED2D8" offset="0%"></stop>
            <stop stop-color="#BFC3CD" offset="36.12%"></stop>
            <stop stop-color="#9BA0B4" offset="100%"></stop>
        </linearGradient>
        <linearGradient x1="68.095504%" y1="89.9691004%" x2="31.1230763%" y2="9.11540161%" id="linearGradient-39">
            <stop stop-color="#9BA0B4" offset="0%"></stop>
            <stop stop-color="#BFC3CD" offset="63.88%"></stop>
            <stop stop-color="#CED2D8" offset="100%"></stop>
        </linearGradient>
        <linearGradient x1="68.0068626%" y1="90.3235184%" x2="31.7195096%" y2="8.9023522%" id="linearGradient-40">
            <stop stop-color="#CED2D8" offset="0%"></stop>
            <stop stop-color="#BFC3CD" offset="36.12%"></stop>
            <stop stop-color="#9BA0B4" offset="100%"></stop>
        </linearGradient>
        <linearGradient x1="68.0884849%" y1="89.9483208%" x2="31.1179997%" y2="9.09886991%" id="linearGradient-41">
            <stop stop-color="#9BA0B4" offset="0%"></stop>
            <stop stop-color="#BFC3CD" offset="63.88%"></stop>
            <stop stop-color="#CED2D8" offset="100%"></stop>
        </linearGradient>
        <linearGradient x1="68.0039351%" y1="90.3083365%" x2="31.7165821%" y2="8.88717034%" id="linearGradient-42">
            <stop stop-color="#CED2D8" offset="0%"></stop>
            <stop stop-color="#BFC3CD" offset="36.12%"></stop>
            <stop stop-color="#9BA0B4" offset="100%"></stop>
        </linearGradient>
        <linearGradient x1="68.0834082%" y1="89.9317891%" x2="31.112923%" y2="9.08233821%" id="linearGradient-43">
            <stop stop-color="#9BA0B4" offset="0%"></stop>
            <stop stop-color="#BFC3CD" offset="63.88%"></stop>
            <stop stop-color="#CED2D8" offset="100%"></stop>
        </linearGradient>
        <linearGradient x1="67.9995349%" y1="90.3079072%" x2="31.7116207%" y2="8.87261135%" id="linearGradient-44">
            <stop stop-color="#CED2D8" offset="0%"></stop>
            <stop stop-color="#BFC3CD" offset="36.12%"></stop>
            <stop stop-color="#9BA0B4" offset="100%"></stop>
        </linearGradient>
        <linearGradient x1="68.0783316%" y1="89.9942354%" x2="31.1078464%" y2="9.2099048%" id="linearGradient-45">
            <stop stop-color="#9BA0B4" offset="0%"></stop>
            <stop stop-color="#BFC3CD" offset="63.88%"></stop>
            <stop stop-color="#CED2D8" offset="100%"></stop>
        </linearGradient>
        <linearGradient x1="67.9951346%" y1="90.2932029%" x2="31.7072204%" y2="8.85790703%" id="linearGradient-46">
            <stop stop-color="#CED2D8" offset="0%"></stop>
            <stop stop-color="#BFC3CD" offset="36.12%"></stop>
            <stop stop-color="#9BA0B4" offset="100%"></stop>
        </linearGradient>
        <linearGradient x1="68.0749541%" y1="90.0332687%" x2="31.1038214%" y2="9.19716229%" id="linearGradient-47">
            <stop stop-color="#9BA0B4" offset="0%"></stop>
            <stop stop-color="#BFC3CD" offset="63.88%"></stop>
            <stop stop-color="#CED2D8" offset="100%"></stop>
        </linearGradient>
        <linearGradient x1="67.991646%" y1="90.3476217%" x2="31.704293%" y2="8.97115015%" id="linearGradient-48">
            <stop stop-color="#CED2D8" offset="0%"></stop>
            <stop stop-color="#BFC3CD" offset="36.12%"></stop>
            <stop stop-color="#9BA0B4" offset="100%"></stop>
        </linearGradient>
        <linearGradient x1="68.0681783%" y1="90.0337164%" x2="31.0970456%" y2="9.18284954%" id="linearGradient-49">
            <stop stop-color="#9BA0B4" offset="0%"></stop>
            <stop stop-color="#BFC3CD" offset="63.88%"></stop>
            <stop stop-color="#CED2D8" offset="100%"></stop>
        </linearGradient>
        <linearGradient x1="67.9872457%" y1="90.3329278%" x2="31.6998927%" y2="8.95645622%" id="linearGradient-50">
            <stop stop-color="#CED2D8" offset="0%"></stop>
            <stop stop-color="#BFC3CD" offset="36.12%"></stop>
            <stop stop-color="#9BA0B4" offset="100%"></stop>
        </linearGradient>
        <linearGradient x1="68.0648008%" y1="90.0166451%" x2="31.0936681%" y2="9.16577826%" id="linearGradient-51">
            <stop stop-color="#9BA0B4" offset="0%"></stop>
            <stop stop-color="#BFC3CD" offset="63.88%"></stop>
            <stop stop-color="#CED2D8" offset="100%"></stop>
        </linearGradient>
        <linearGradient x1="67.9828455%" y1="90.3182338%" x2="31.6954925%" y2="8.94176229%" id="linearGradient-52">
            <stop stop-color="#CED2D8" offset="0%"></stop>
            <stop stop-color="#BFC3CD" offset="36.12%"></stop>
            <stop stop-color="#9BA0B4" offset="100%"></stop>
        </linearGradient>
        <linearGradient x1="68.0597241%" y1="90.0001134%" x2="31.0872965%" y2="9.14641461%" id="linearGradient-53">
            <stop stop-color="#9BA0B4" offset="0%"></stop>
            <stop stop-color="#BFC3CD" offset="63.88%"></stop>
            <stop stop-color="#CED2D8" offset="100%"></stop>
        </linearGradient>
        <linearGradient x1="67.9784452%" y1="90.3035399%" x2="31.6910923%" y2="8.92706836%" id="linearGradient-54">
            <stop stop-color="#CED2D8" offset="0%"></stop>
            <stop stop-color="#BFC3CD" offset="36.12%"></stop>
            <stop stop-color="#9BA0B4" offset="100%"></stop>
        </linearGradient>
        <linearGradient x1="68.0546475%" y1="89.9835817%" x2="31.0822198%" y2="9.12988291%" id="linearGradient-55">
            <stop stop-color="#9BA0B4" offset="0%"></stop>
            <stop stop-color="#BFC3CD" offset="63.88%"></stop>
            <stop stop-color="#CED2D8" offset="100%"></stop>
        </linearGradient>
        <linearGradient x1="67.9755178%" y1="90.3379557%" x2="31.6876036%" y2="8.91553028%" id="linearGradient-56">
            <stop stop-color="#CED2D8" offset="0%"></stop>
            <stop stop-color="#BFC3CD" offset="36.12%"></stop>
            <stop stop-color="#9BA0B4" offset="100%"></stop>
        </linearGradient>
        <linearGradient x1="68.0489233%" y1="89.9656341%" x2="31.0771431%" y2="9.11335121%" id="linearGradient-57">
            <stop stop-color="#9BA0B4" offset="0%"></stop>
            <stop stop-color="#BFC3CD" offset="63.88%"></stop>
            <stop stop-color="#CED2D8" offset="100%"></stop>
        </linearGradient>
        <linearGradient x1="94.8299098%" y1="-6.92264896%" x2="-5.1731586%" y2="103.61338%" id="linearGradient-58">
            <stop stop-color="#4B28C4" offset="0%"></stop>
            <stop stop-color="#4C2EC8" offset="25.27%"></stop>
            <stop stop-color="#4E3DD3" offset="57.59%"></stop>
            <stop stop-color="#5158E6" offset="93.61%"></stop>
            <stop stop-color="#525DEA" offset="100%"></stop>
        </linearGradient>
        <linearGradient x1="96.3762643%" y1="-3.83944629%" x2="-6.94980177%" y2="97.393266%" id="linearGradient-59">
            <stop stop-color="#CED2D8" offset="0%"></stop>
            <stop stop-color="#BFC3CD" offset="36.12%"></stop>
            <stop stop-color="#9BA0B4" offset="100%"></stop>
        </linearGradient>
        <linearGradient x1="34.6602307%" y1="101.024825%" x2="56.3310845%" y2="5.85584205%" id="linearGradient-60">
            <stop stop-color="#8B3FAE" offset="0%"></stop>
            <stop stop-color="#9140AE" offset="15.67%"></stop>
            <stop stop-color="#A043AC" offset="35.73%"></stop>
            <stop stop-color="#BB49AA" offset="58.16%"></stop>
            <stop stop-color="#DF50A7" offset="82.14%"></stop>
            <stop stop-color="#FF57A4" offset="100%"></stop>
        </linearGradient>
        <linearGradient x1="44.5187944%" y1="99.3963713%" x2="55.1916436%" y2="18.7304015%" id="linearGradient-61">
            <stop stop-color="#CED2D8" offset="0%"></stop>
            <stop stop-color="#BFC3CD" offset="36.12%"></stop>
            <stop stop-color="#9BA0B4" offset="100%"></stop>
        </linearGradient>
        <linearGradient x1="100.050523%" y1="49.6718065%" x2="-0.0503433907%" y2="50.1867801%" id="linearGradient-62">
            <stop stop-color="#8B3FAE" offset="0%"></stop>
            <stop stop-color="#9140AE" offset="15.67%"></stop>
            <stop stop-color="#A043AC" offset="35.73%"></stop>
            <stop stop-color="#BB49AA" offset="58.16%"></stop>
            <stop stop-color="#DF50A7" offset="82.14%"></stop>
            <stop stop-color="#FF57A4" offset="100%"></stop>
        </linearGradient>
        <linearGradient x1="28.8991018%" y1="141.553816%" x2="72.54946%" y2="-47.9084359%" id="linearGradient-63">
            <stop stop-color="#CED2D8" offset="0%"></stop>
            <stop stop-color="#BFC3CD" offset="36.12%"></stop>
            <stop stop-color="#9BA0B4" offset="100%"></stop>
        </linearGradient>
    </defs>
    <g id="Page-1" stroke="none" stroke-width="1" fill="none" fill-rule="evenodd">
        <g id="Landing-Cool" transform="translate(-398.000000, -139.000000)">
            <g id="Artwork" transform="translate(0.000000, 28.000000)">
                <g id="plane" transform="translate(398.000000, 111.000000)">
                    <polygon id="Path" fill="url(#linearGradient-1)" points="237.17 35.05 163.76 0.48 161.78 1.62 197.58 50.14"></polygon>
                    <path d="M383.6,17.21 C384.62,14.58 383.62,11.6 381.21,10.12 C372.35,4.68 348.85,-6.36 317.32,4.93 C281.03,17.92 79.98,95.14 38.64,111.03 C36.58,111.82 36.93,114.84 39.12,115.13 C53.96,117.1 88.62,120.08 134.13,113.64 C195.44,104.96 328.66,64.92 361.68,44.29 C374.83,36.07 381.07,23.75 383.6,17.21 Z" id="Path" fill="url(#linearGradient-2)"></path>
                    <path d="M321.26,15.21 C297.36,22.88 113.2,92.57 52.51,116.53 C47.06,116.09 42.55,115.59 39.12,115.13 C36.93,114.84 36.58,111.82 38.64,111.03 C79.98,95.14 281.03,17.92 317.32,4.93 C348.85,-6.36 372.35,4.68 381.21,10.12 C383.62,11.6 384.62,14.57 383.6,17.21 C384.82,12.63 376.84,16.02 363.89,14.04 C355.34,12.74 333.95,11.14 321.26,15.21 Z" id="Path" fill="url(#linearGradient-3)"></path>
                    <g id="Group" transform="translate(352.000000, 2.000000)" fill="#383838">
                        <path d="M8.21,2.71 C9.12,1.98 10.02,1.18 10.69,0.35 C12.76,0.81 15.53,1.79 15.53,1.79 C15.53,1.79 14.51,3.02 12.73,4.65 C12.15,5.18 11.27,5.23 10.63,4.78 C9.45,3.96 8.68,3.23 8.21,2.71 Z" id="Path"></path>
                        <path d="M2,6.36 C2.89,5.93 5.05,5 7.23,3.45 C7.68,3.97 8.45,4.73 9.69,5.6 C10.22,5.98 10.24,6.76 9.73,7.15 C7.1,9.14 3.85,11.06 0.52,11.68 C0.51,11.69 -0.55,7.6 2,6.36 Z" id="Path"></path>
                    </g>
                    <g id="Group" transform="translate(121.000000, 29.000000)">
                        <g transform="translate(172.000000, 0.000000)" id="Path">
                            <path d="M3.43,8.22 L6.11,7.2 C6.62,7.01 6.88,6.43 6.68,5.92 L5,1.5 C4.81,0.99 4.23,0.73 3.72,0.93 L1.04,1.95 C0.53,2.14 0.27,2.72 0.47,3.23 L2.15,7.65 C2.35,8.16 2.92,8.41 3.43,8.22 Z" fill="url(#linearGradient-4)"></path>
                            <path d="M3.33,7.83 L5.93,6.84 C6.25,6.72 6.41,6.36 6.29,6.05 L4.62,1.67 C4.5,1.35 4.14,1.19 3.83,1.31 L1.23,2.3 C0.91,2.42 0.75,2.78 0.87,3.09 L2.54,7.47 C2.65,7.8 3.01,7.96 3.33,7.83 Z" fill="url(#linearGradient-5)"></path>
                        </g>
                        <g transform="translate(165.000000, 3.000000)" id="Path">
                            <path d="M3.82,7.74 L6.5,6.72 C7.01,6.53 7.27,5.95 7.07,5.44 L5.39,1.02 C5.2,0.51 4.62,0.25 4.11,0.45 L1.43,1.47 C0.92,1.66 0.66,2.24 0.86,2.75 L2.54,7.17 C2.73,7.67 3.31,7.93 3.82,7.74 Z" fill="url(#linearGradient-6)"></path>
                            <path d="M3.72,7.35 L6.32,6.36 C6.64,6.24 6.8,5.88 6.68,5.57 L5.01,1.19 C4.89,0.87 4.53,0.71 4.22,0.83 L1.62,1.82 C1.3,1.94 1.14,2.3 1.26,2.61 L2.93,6.99 C3.04,7.32 3.4,7.48 3.72,7.35 Z" fill="url(#linearGradient-7)"></path>
                        </g>
                        <g transform="translate(159.000000, 5.000000)" id="Path">
                            <path d="M3.21,8.26 L5.89,7.24 C6.4,7.05 6.66,6.47 6.46,5.96 L4.78,1.54 C4.59,1.03 4.01,0.77 3.5,0.97 L0.82,1.99 C0.31,2.18 0.05,2.76 0.25,3.27 L1.93,7.69 C2.12,8.19 2.7,8.45 3.21,8.26 Z" fill="url(#linearGradient-8)"></path>
                            <path d="M3.11,7.87 L5.71,6.88 C6.03,6.76 6.19,6.4 6.07,6.09 L4.4,1.71 C4.28,1.39 3.92,1.23 3.61,1.35 L1.01,2.34 C0.69,2.46 0.53,2.82 0.65,3.13 L2.32,7.51 C2.43,7.83 2.79,7.99 3.11,7.87 Z" fill="url(#linearGradient-9)"></path>
                        </g>
                        <g transform="translate(152.000000, 8.000000)" id="Path">
                            <path d="M3.6,7.77 L6.28,6.75 C6.79,6.56 7.05,5.98 6.85,5.47 L5.17,1.05 C4.98,0.54 4.4,0.28 3.89,0.48 L1.21,1.5 C0.7,1.69 0.44,2.27 0.64,2.78 L2.32,7.2 C2.51,7.71 3.09,7.97 3.6,7.77 Z" fill="url(#linearGradient-10)"></path>
                            <path d="M3.5,7.39 L6.1,6.4 C6.42,6.28 6.58,5.92 6.46,5.61 L4.79,1.23 C4.67,0.91 4.31,0.75 4,0.87 L1.4,1.86 C1.08,1.98 0.92,2.34 1.04,2.65 L2.71,7.03 C2.82,7.35 3.18,7.51 3.5,7.39 Z" fill="url(#linearGradient-11)"></path>
                        </g>
                        <g transform="translate(145.000000, 10.000000)" id="Path">
                            <path d="M3.99,8.29 L6.67,7.27 C7.18,7.08 7.44,6.5 7.24,5.99 L5.56,1.57 C5.37,1.06 4.79,0.8 4.28,1 L1.6,2.02 C1.09,2.21 0.83,2.79 1.03,3.3 L2.71,7.72 C2.9,8.23 3.48,8.49 3.99,8.29 Z" fill="url(#linearGradient-12)"></path>
                            <path d="M3.89,7.91 L6.49,6.92 C6.81,6.8 6.97,6.44 6.85,6.13 L5.18,1.75 C5.06,1.43 4.7,1.27 4.39,1.39 L1.79,2.38 C1.47,2.5 1.31,2.86 1.43,3.17 L3.1,7.55 C3.21,7.87 3.57,8.03 3.89,7.91 Z" fill="url(#linearGradient-13)"></path>
                        </g>
                        <g transform="translate(139.000000, 13.000000)" id="Path">
                            <path d="M3.38,7.81 L6.06,6.79 C6.57,6.6 6.83,6.02 6.63,5.51 L4.95,1.09 C4.76,0.58 4.18,0.32 3.67,0.52 L0.99,1.54 C0.48,1.73 0.22,2.31 0.42,2.82 L2.1,7.24 C2.29,7.75 2.87,8.01 3.38,7.81 Z" fill="url(#linearGradient-14)"></path>
                            <path d="M3.28,7.43 L5.88,6.44 C6.2,6.32 6.36,5.96 6.24,5.65 L4.57,1.27 C4.45,0.95 4.09,0.79 3.78,0.91 L1.18,1.9 C0.86,2.02 0.7,2.38 0.82,2.69 L2.49,7.07 C2.6,7.39 2.96,7.55 3.28,7.43 Z" fill="url(#linearGradient-15)"></path>
                        </g>
                        <g transform="translate(132.000000, 15.000000)" id="Path">
                            <path d="M3.77,8.33 L6.45,7.31 C6.96,7.12 7.22,6.54 7.02,6.03 L5.34,1.61 C5.15,1.1 4.57,0.84 4.06,1.04 L1.38,2.06 C0.87,2.25 0.61,2.83 0.81,3.34 L2.49,7.76 C2.68,8.27 3.26,8.53 3.77,8.33 Z" fill="url(#linearGradient-16)"></path>
                            <path d="M3.67,7.95 L6.27,6.96 C6.59,6.84 6.75,6.48 6.63,6.17 L4.96,1.79 C4.84,1.47 4.48,1.31 4.17,1.43 L1.57,2.42 C1.25,2.54 1.09,2.9 1.21,3.21 L2.88,7.59 C2.99,7.91 3.35,8.07 3.67,7.95 Z" fill="url(#linearGradient-17)"></path>
                        </g>
                        <g transform="translate(126.000000, 18.000000)" id="Path">
                            <path d="M3.16,7.85 L5.84,6.83 C6.35,6.64 6.61,6.06 6.41,5.55 L4.73,1.13 C4.54,0.62 3.96,0.36 3.45,0.56 L0.77,1.58 C0.26,1.77 1.13686838e-13,2.35 0.2,2.86 L1.88,7.28 C2.07,7.79 2.65,8.04 3.16,7.85 Z" fill="url(#linearGradient-18)"></path>
                            <path d="M3.06,7.47 L5.66,6.48 C5.98,6.36 6.14,6 6.02,5.69 L4.35,1.31 C4.23,0.99 3.87,0.83 3.56,0.95 L0.96,1.94 C0.64,2.06 0.48,2.42 0.6,2.73 L2.27,7.11 C2.38,7.43 2.74,7.59 3.06,7.47 Z" fill="url(#linearGradient-19)"></path>
                        </g>
                        <g transform="translate(119.000000, 21.000000)" id="Path">
                            <path d="M3.55,7.37 L6.23,6.35 C6.74,6.16 7,5.58 6.8,5.07 L5.12,0.65 C4.93,0.14 4.35,-0.12 3.84,0.08 L1.16,1.1 C0.65,1.29 0.39,1.87 0.59,2.38 L2.27,6.8 C2.46,7.31 3.04,7.56 3.55,7.37 Z" fill="url(#linearGradient-20)"></path>
                            <path d="M3.45,6.99 L6.05,6 C6.37,5.88 6.53,5.52 6.41,5.21 L4.74,0.83 C4.62,0.51 4.26,0.35 3.95,0.47 L1.35,1.46 C1.03,1.58 0.87,1.94 0.99,2.25 L2.66,6.63 C2.77,6.95 3.13,7.11 3.45,6.99 Z" fill="url(#linearGradient-21)"></path>
                        </g>
                        <g transform="translate(112.000000, 23.000000)" id="Path">
                            <path d="M3.94,7.89 L6.62,6.87 C7.13,6.68 7.39,6.1 7.19,5.59 L5.51,1.17 C5.32,0.66 4.74,0.4 4.23,0.6 L1.55,1.62 C1.04,1.81 0.78,2.39 0.98,2.9 L2.66,7.32 C2.85,7.83 3.43,8.08 3.94,7.89 Z" fill="url(#linearGradient-22)"></path>
                            <path d="M3.84,7.51 L6.44,6.52 C6.76,6.4 6.92,6.04 6.8,5.73 L5.13,1.35 C5.01,1.03 4.65,0.87 4.34,0.99 L1.74,1.98 C1.42,2.1 1.26,2.46 1.38,2.77 L3.05,7.15 C3.16,7.47 3.52,7.63 3.84,7.51 Z" fill="url(#linearGradient-23)"></path>
                        </g>
                        <g transform="translate(106.000000, 26.000000)" id="Path">
                            <path d="M3.33,7.41 L6.01,6.39 C6.52,6.2 6.78,5.62 6.58,5.11 L4.9,0.69 C4.71,0.18 4.13,-0.08 3.62,0.12 L0.94,1.14 C0.43,1.33 0.17,1.91 0.37,2.42 L2.05,6.84 C2.24,7.34 2.82,7.6 3.33,7.41 Z" fill="url(#linearGradient-24)"></path>
                            <path d="M3.23,7.02 L5.83,6.03 C6.15,5.91 6.31,5.55 6.19,5.24 L4.52,0.86 C4.4,0.54 4.04,0.38 3.73,0.5 L1.13,1.49 C0.81,1.61 0.65,1.97 0.77,2.28 L2.44,6.66 C2.55,6.99 2.91,7.15 3.23,7.02 Z" fill="url(#linearGradient-25)"></path>
                        </g>
                        <g transform="translate(99.000000, 28.000000)" id="Path">
                            <path d="M3.72,7.93 L6.4,6.91 C6.91,6.72 7.17,6.14 6.97,5.63 L5.29,1.21 C5.1,0.7 4.52,0.44 4.01,0.64 L1.33,1.66 C0.82,1.85 0.56,2.43 0.76,2.94 L2.44,7.36 C2.63,7.86 3.21,8.12 3.72,7.93 Z" fill="url(#linearGradient-26)"></path>
                            <path d="M3.62,7.54 L6.22,6.55 C6.54,6.43 6.7,6.07 6.58,5.76 L4.91,1.38 C4.79,1.06 4.43,0.9 4.12,1.02 L1.52,2.01 C1.2,2.13 1.04,2.49 1.16,2.8 L2.83,7.18 C2.94,7.51 3.3,7.66 3.62,7.54 Z" fill="url(#linearGradient-27)"></path>
                        </g>
                        <g transform="translate(93.000000, 31.000000)" id="Path">
                            <path d="M3.11,7.44 L5.79,6.42 C6.3,6.23 6.56,5.65 6.36,5.14 L4.68,0.72 C4.49,0.21 3.91,-0.05 3.4,0.15 L0.72,1.17 C0.21,1.36 -0.05,1.94 0.15,2.45 L1.83,6.87 C2.02,7.38 2.6,7.64 3.11,7.44 Z" fill="url(#linearGradient-28)"></path>
                            <path d="M3.01,7.06 L5.61,6.07 C5.93,5.95 6.09,5.59 5.97,5.28 L4.3,0.9 C4.18,0.58 3.82,0.42 3.51,0.54 L0.91,1.53 C0.59,1.65 0.43,2.01 0.55,2.32 L2.22,6.7 C2.33,7.02 2.69,7.18 3.01,7.06 Z" fill="url(#linearGradient-29)"></path>
                        </g>
                        <g transform="translate(86.000000, 33.000000)" id="Path">
                            <path d="M3.5,7.96 L6.18,6.94 C6.69,6.75 6.95,6.17 6.75,5.66 L5.07,1.24 C4.88,0.73 4.3,0.47 3.79,0.67 L1.11,1.69 C0.6,1.88 0.34,2.46 0.54,2.97 L2.22,7.39 C2.41,7.9 2.98,8.16 3.5,7.96 Z" fill="url(#linearGradient-30)"></path>
                            <path d="M3.4,7.58 L6,6.59 C6.32,6.47 6.48,6.11 6.36,5.8 L4.69,1.42 C4.57,1.1 4.21,0.94 3.9,1.06 L1.3,2.05 C0.98,2.17 0.82,2.53 0.94,2.84 L2.61,7.22 C2.72,7.54 3.08,7.7 3.4,7.58 Z" fill="url(#linearGradient-31)"></path>
                        </g>
                        <g transform="translate(79.000000, 36.000000)" id="Path">
                            <path d="M3.89,7.48 L6.57,6.46 C7.08,6.27 7.34,5.69 7.14,5.18 L5.46,0.76 C5.27,0.25 4.69,-0.01 4.18,0.19 L1.5,1.21 C0.99,1.4 0.73,1.98 0.93,2.49 L2.61,6.91 C2.8,7.42 3.37,7.68 3.89,7.48 Z" fill="url(#linearGradient-32)"></path>
                            <path d="M3.79,7.1 L6.39,6.11 C6.71,5.99 6.87,5.63 6.75,5.32 L5.08,0.94 C4.96,0.62 4.6,0.46 4.29,0.58 L1.69,1.57 C1.37,1.69 1.21,2.05 1.33,2.36 L3,6.74 C3.11,7.06 3.47,7.22 3.79,7.1 Z" fill="url(#linearGradient-33)"></path>
                        </g>
                        <g transform="translate(73.000000, 38.000000)" id="Path">
                            <path d="M3.28,8 L5.96,6.98 C6.47,6.79 6.73,6.21 6.53,5.7 L4.85,1.28 C4.66,0.77 4.08,0.51 3.57,0.71 L0.89,1.73 C0.38,1.92 0.12,2.5 0.32,3.01 L2,7.43 C2.19,7.94 2.76,8.2 3.28,8 Z" fill="url(#linearGradient-34)"></path>
                            <path d="M3.18,7.62 L5.78,6.63 C6.1,6.51 6.26,6.15 6.14,5.84 L4.47,1.46 C4.35,1.14 3.99,0.98 3.68,1.1 L1.08,2.09 C0.76,2.21 0.6,2.57 0.72,2.88 L2.39,7.26 C2.5,7.58 2.86,7.74 3.18,7.62 Z" fill="url(#linearGradient-35)"></path>
                        </g>
                        <g transform="translate(66.000000, 41.000000)" id="Path">
                            <path d="M3.67,7.52 L6.35,6.5 C6.86,6.31 7.12,5.73 6.92,5.22 L5.24,0.8 C5.05,0.29 4.47,0.03 3.96,0.23 L1.28,1.25 C0.77,1.44 0.51,2.02 0.71,2.53 L2.39,6.95 C2.58,7.46 3.15,7.71 3.67,7.52 Z" fill="url(#linearGradient-36)"></path>
                            <path d="M3.57,7.14 L6.17,6.15 C6.49,6.03 6.65,5.67 6.53,5.36 L4.86,0.98 C4.74,0.66 4.38,0.5 4.07,0.62 L1.47,1.61 C1.15,1.73 0.99,2.09 1.11,2.4 L2.78,6.78 C2.89,7.1 3.25,7.26 3.57,7.14 Z" fill="url(#linearGradient-37)"></path>
                        </g>
                        <g transform="translate(60.000000, 43.000000)" id="Path">
                            <path d="M3.06,8.04 L5.74,7.02 C6.25,6.83 6.51,6.25 6.31,5.74 L4.63,1.32 C4.44,0.81 3.86,0.55 3.35,0.75 L0.67,1.77 C0.16,1.96 -0.1,2.54 0.1,3.05 L1.78,7.47 C1.97,7.98 2.54,8.23 3.06,8.04 Z" fill="url(#linearGradient-38)"></path>
                            <path d="M2.96,7.66 L5.56,6.67 C5.88,6.55 6.04,6.19 5.92,5.88 L4.25,1.5 C4.13,1.18 3.77,1.02 3.46,1.14 L0.86,2.13 C0.54,2.25 0.38,2.61 0.5,2.92 L2.17,7.3 C2.28,7.62 2.64,7.78 2.96,7.66 Z" fill="url(#linearGradient-39)"></path>
                        </g>
                        <g transform="translate(53.000000, 46.000000)" id="Path">
                            <path d="M3.44,7.56 L6.12,6.54 C6.63,6.35 6.89,5.77 6.69,5.26 L5.01,0.84 C4.82,0.33 4.24,0.07 3.73,0.27 L1.05,1.29 C0.54,1.48 0.28,2.06 0.48,2.57 L2.16,6.99 C2.36,7.5 2.93,7.75 3.44,7.56 Z" fill="url(#linearGradient-40)"></path>
                            <path d="M3.35,7.18 L5.95,6.19 C6.27,6.07 6.43,5.71 6.31,5.4 L4.64,1.02 C4.52,0.7 4.16,0.54 3.85,0.66 L1.25,1.65 C0.93,1.77 0.77,2.13 0.89,2.44 L2.56,6.82 C2.67,7.14 3.03,7.3 3.35,7.18 Z" fill="url(#linearGradient-41)"></path>
                        </g>
                        <g transform="translate(46.000000, 48.000000)" id="Path">
                            <path d="M3.83,8.08 L6.51,7.06 C7.02,6.87 7.28,6.29 7.08,5.78 L5.4,1.36 C5.21,0.85 4.63,0.59 4.12,0.79 L1.44,1.81 C0.93,2 0.67,2.58 0.87,3.09 L2.55,7.51 C2.75,8.02 3.32,8.27 3.83,8.08 Z" fill="url(#linearGradient-42)"></path>
                            <path d="M3.74,7.7 L6.34,6.71 C6.66,6.59 6.82,6.23 6.7,5.92 L5.03,1.54 C4.91,1.22 4.55,1.06 4.24,1.18 L1.64,2.17 C1.32,2.29 1.16,2.65 1.28,2.96 L2.95,7.34 C3.06,7.66 3.42,7.82 3.74,7.7 Z" fill="url(#linearGradient-43)"></path>
                        </g>
                        <g transform="translate(40.000000, 51.000000)" id="Path">
                            <path d="M3.22,7.6 L5.9,6.58 C6.41,6.39 6.67,5.81 6.47,5.3 L4.79,0.88 C4.6,0.37 4.02,0.11 3.51,0.31 L0.83,1.33 C0.32,1.52 0.06,2.1 0.26,2.61 L1.94,7.03 C2.14,7.53 2.71,7.79 3.22,7.6 Z" fill="url(#linearGradient-44)"></path>
                            <path d="M3.13,7.21 L5.73,6.22 C6.05,6.1 6.21,5.74 6.09,5.43 L4.42,1.05 C4.3,0.73 3.94,0.57 3.63,0.69 L1.03,1.68 C0.71,1.8 0.55,2.16 0.67,2.47 L2.34,6.85 C2.45,7.18 2.81,7.34 3.13,7.21 Z" fill="url(#linearGradient-45)"></path>
                        </g>
                        <g transform="translate(33.000000, 53.000000)" id="Path">
                            <path d="M3.61,8.12 L6.29,7.1 C6.8,6.91 7.06,6.33 6.86,5.82 L5.18,1.4 C4.99,0.89 4.41,0.63 3.9,0.83 L1.22,1.85 C0.71,2.04 0.45,2.62 0.65,3.13 L2.33,7.55 C2.53,8.05 3.1,8.31 3.61,8.12 Z" fill="url(#linearGradient-46)"></path>
                            <path d="M3.52,7.73 L6.12,6.74 C6.44,6.62 6.6,6.26 6.48,5.95 L4.81,1.57 C4.69,1.25 4.33,1.09 4.02,1.21 L1.42,2.2 C1.1,2.32 0.94,2.68 1.06,2.99 L2.73,7.37 C2.84,7.7 3.2,7.85 3.52,7.73 Z" fill="url(#linearGradient-47)"></path>
                        </g>
                        <g transform="translate(26.000000, 56.000000)" id="Path">
                            <path d="M4,7.63 L6.68,6.61 C7.19,6.42 7.45,5.84 7.25,5.33 L5.57,0.91 C5.38,0.4 4.8,0.14 4.29,0.34 L1.61,1.36 C1.1,1.55 0.84,2.13 1.04,2.64 L2.72,7.06 C2.92,7.57 3.49,7.83 4,7.63 Z" fill="url(#linearGradient-48)"></path>
                            <path d="M3.91,7.25 L6.51,6.26 C6.83,6.14 6.99,5.78 6.87,5.47 L5.2,1.09 C5.08,0.77 4.72,0.61 4.41,0.73 L1.81,1.72 C1.49,1.84 1.33,2.2 1.45,2.51 L3.12,6.89 C3.23,7.21 3.59,7.37 3.91,7.25 Z" fill="url(#linearGradient-49)"></path>
                        </g>
                        <g transform="translate(20.000000, 58.000000)" id="Path">
                            <path d="M3.39,8.15 L6.07,7.13 C6.58,6.94 6.84,6.36 6.64,5.85 L4.96,1.43 C4.77,0.92 4.19,0.66 3.68,0.86 L1,1.88 C0.49,2.07 0.23,2.65 0.43,3.16 L2.11,7.58 C2.31,8.09 2.88,8.35 3.39,8.15 Z" fill="url(#linearGradient-50)"></path>
                            <path d="M3.3,7.77 L5.9,6.78 C6.22,6.66 6.38,6.3 6.26,5.99 L4.59,1.61 C4.47,1.29 4.11,1.13 3.8,1.25 L1.2,2.24 C0.88,2.36 0.72,2.72 0.84,3.03 L2.51,7.41 C2.62,7.73 2.98,7.89 3.3,7.77 Z" fill="url(#linearGradient-51)"></path>
                        </g>
                        <g transform="translate(13.000000, 61.000000)" id="Path">
                            <path d="M3.78,7.67 L6.46,6.65 C6.97,6.46 7.23,5.88 7.03,5.37 L5.35,0.95 C5.16,0.44 4.58,0.18 4.07,0.38 L1.39,1.4 C0.88,1.59 0.62,2.17 0.82,2.68 L2.5,7.1 C2.7,7.61 3.27,7.87 3.78,7.67 Z" fill="url(#linearGradient-52)"></path>
                            <path d="M3.69,7.29 L6.29,6.3 C6.61,6.18 6.77,5.82 6.65,5.51 L4.98,1.13 C4.86,0.81 4.5,0.65 4.19,0.77 L1.59,1.76 C1.27,1.88 1.11,2.24 1.23,2.55 L2.9,6.93 C3.01,7.25 3.37,7.41 3.69,7.29 Z" fill="url(#linearGradient-53)"></path>
                        </g>
                        <g transform="translate(7.000000, 63.000000)" id="Path">
                            <path d="M3.17,8.19 L5.85,7.17 C6.36,6.98 6.62,6.4 6.42,5.89 L4.74,1.47 C4.55,0.96 3.97,0.7 3.46,0.9 L0.78,1.92 C0.27,2.11 0.01,2.69 0.21,3.2 L1.89,7.62 C2.09,8.13 2.66,8.39 3.17,8.19 Z" fill="url(#linearGradient-54)"></path>
                            <path d="M3.08,7.81 L5.68,6.82 C6,6.7 6.16,6.34 6.04,6.03 L4.37,1.65 C4.25,1.33 3.89,1.17 3.58,1.29 L0.98,2.28 C0.66,2.4 0.5,2.76 0.62,3.07 L2.29,7.45 C2.4,7.77 2.76,7.93 3.08,7.81 Z" fill="url(#linearGradient-55)"></path>
                        </g>
                        <g transform="translate(0.000000, 66.000000)" id="Path">
                            <path d="M3.56,7.71 L6.24,6.69 C6.75,6.5 7.01,5.92 6.81,5.41 L5.13,0.99 C4.94,0.48 4.36,0.22 3.85,0.42 L1.17,1.44 C0.66,1.63 0.4,2.21 0.6,2.72 L2.28,7.14 C2.48,7.65 3.05,7.9 3.56,7.71 Z" fill="url(#linearGradient-56)"></path>
                            <path d="M3.47,7.33 L6.07,6.34 C6.39,6.22 6.55,5.86 6.43,5.55 L4.76,1.17 C4.64,0.85 4.28,0.69 3.97,0.81 L1.37,1.8 C1.05,1.92 0.89,2.28 1.01,2.59 L2.68,6.97 C2.79,7.29 3.15,7.45 3.47,7.33 Z" fill="url(#linearGradient-57)"></path>
                        </g>
                    </g>
                    <g id="Group" transform="translate(79.000000, 63.000000)">
                        <path d="M226.42,5.19 C226.42,5.19 204.99,-5.01 170.14,5.52 C141.4,14.21 88.2,37.78 87.75,44.62 C87.54,47.81 90.01,46.87 86.69,50.21 L0.63,105.91 L16.07,102.42 L226.42,5.19 Z" id="Path" fill="url(#linearGradient-58)"></path>
                        <path d="M196.69,0.85 L17.56,94.97 L86.7,50.22 C90.02,46.89 87.55,47.83 87.76,44.63 C88.2,37.79 141.41,14.22 170.15,5.53 C180.17,2.49 189.07,1.18 196.69,0.85 Z" id="Path" fill="url(#linearGradient-59)"></path>
                    </g>
                    <g id="Group" transform="translate(0.000000, 56.000000)">
                        <path d="M103.05,30.31 C92.43,29.99 43.66,10.2 24.58,2.29 C19.65,0.25 14.1,0.31 9.21,2.45 L0.09,6.44 L44.05,52.96 L103.05,30.31 Z" id="Path" fill="url(#linearGradient-60)"></path>
                        <path d="M25.79,6.19 C20.86,4.15 15.31,4.21 10.42,6.35 L3.04,9.58 L0.08,6.45 L9.2,2.46 C14.09,0.32 19.64,0.26 24.57,2.3 C43.65,10.2 92.43,30 103.04,30.32 C89.14,35.64 41.88,12.86 25.79,6.19 Z" id="Path" fill="url(#linearGradient-61)"></path>
                    </g>
                    <g id="Group" transform="translate(6.000000, 107.000000)">
                        <path d="M67.11,1.89 C66.06,1.26 14.92,27.86 14.92,27.86 L0.64,31.03 L37.5,4.81 L61.15,0.01 L67.11,1.89 Z" id="Path" fill="url(#linearGradient-62)"></path>
                        <polygon id="Path" fill="url(#linearGradient-63)" points="61.16 0.01 0.64 31.03 37.51 4.81"></polygon>
                    </g>
                </g>
            </g>
        </g>
    </g>
</svg>
