<?xml version="1.0" encoding="UTF-8" standalone="no"?><!DOCTYPE svg PUBLIC "-//W3C//DTD SVG 1.1//EN" "http://www.w3.org/Graphics/SVG/1.1/DTD/svg11.dtd"><svg width="100%" height="100%" viewBox="0 0 1366 291" version="1.1" xmlns="http://www.w3.org/2000/svg" xmlns:xlink="http://www.w3.org/1999/xlink" xml:space="preserve" xmlns:serif="http://www.serif.com/" style="fill-rule:evenodd;clip-rule:evenodd;stroke-linejoin:round;stroke-miterlimit:1.41421;"><rect id="Artboard1" x="0" y="0" width="1366" height="291" style="fill:none;"/><clipPath id="_clip1"><rect x="0" y="0" width="1366" height="291"/></clipPath><g clip-path="url(#_clip1)"><g id="wave_blue"><path id="Path" d="M1458.77,153.281c-39.29,93.86 -196.29,154.63 -415.13,106.34c-228.06,-50.33 -325.46,-142.19 -432.59,-142.19c-234.43,0 -294.75,155.45 -518.29,89.77l0,-205.27l1366.01,0l0,151.35Z" style="fill:#525dea;"/><path id="Path1" serif:id="Path" d="M1366.01,120.607c-48.51,90.04 -154.19,146.2 -370.42,87.31c-216.23,-58.89 -336.92,-103.41 -477.3,-103.41c-234.43,0 -367.55,183.45 -518.29,137.53l0,-247.1l1366.01,0l0,125.67Z" style="fill:#4619b9;"/></g></g></svg>