<svg width="500px" height="416px" viewBox="0 0 500 416" version="1.1" xmlns="http://www.w3.org/2000/svg" xmlns:xlink="http://www.w3.org/1999/xlink">
    <g id="Paper-planes" stroke="none" stroke-width="1" fill="none" fill-rule="evenodd">
        <g id="Red-plane" transform="translate(425.590738, 54.907472) rotate(8.498350) translate(-425.590738, -54.907472) translate(365.453983, 0.000000)">
            <polyline id="Fill-67" fill="#DF5453" points="37.1949934 64.9807113 0.905783395 57.1039891 120.133438 0.137600973 37.1949934 64.9807113"></polyline>
            <polyline id="Fill-68" fill="#C1363B" points="36.636096 65.0894371 38.7842926 95.4030176 50.6467432 74.7264961 119.258769 0.230065359 36.636096 65.0894371"></polyline>
            <polyline id="Fill-69" fill="#A22F31" points="38.3463988 95.2136012 60.3093878 83.3965294 50.4972472 74.2964688 38.3463988 95.2136012"></polyline>
            <polyline id="Fill-70" fill="#DF5453" points="50.9555503 74.9797552 77.9654681 108.879913 119.982087 0.110824685 50.9555503 74.9797552"></polyline>
        </g>
        <path d="M387.050668,104.099669 C386.931738,104.087654 386.815311,104.042698 386.714735,103.962715 C386.415507,103.729885 386.359316,103.283524 386.588244,102.968984 C388.26377,100.658972 389.908377,98.3217987 391.480169,96.020766 C391.701189,95.698559 392.125271,95.6189254 392.430894,95.8432439 C392.736394,96.0686946 392.803891,96.5116194 392.583952,96.8339356 C391.003355,99.1455252 389.34982,101.494387 387.667651,103.815174 C387.517041,104.023163 387.279881,104.122825 387.050668,104.099669 Z M376.327779,117.314696 C376.182529,117.300376 376.043231,117.243537 375.924581,117.141933 C375.611799,116.870935 375.576489,116.389596 375.847566,116.064086 C377.785619,113.735319 379.732652,111.326152 381.63247,108.908635 C381.892322,108.575861 382.363587,108.516405 382.685656,108.779697 C383.005752,109.0391 383.054294,109.520512 382.794443,109.853287 C380.885984,112.283499 378.928338,114.701472 376.981508,117.044153 C376.813501,117.24435 376.565895,117.338171 376.327779,117.314696 Z M273.968227,111.442622 C273.899634,111.434702 273.832277,111.413765 273.766032,111.381113 C271.798109,110.397207 269.756493,109.777217 267.695386,109.539245 L267.675472,109.536946 C267.093539,109.469756 266.498682,109.432659 265.913154,109.426906 C265.537958,109.432278 265.223681,109.055152 265.231896,108.603401 C265.239987,108.152951 265.55967,107.789802 265.942975,107.793262 C266.578907,107.798254 267.229692,107.847073 267.850965,107.912224 C270.050364,108.166164 272.229031,108.826981 274.326124,109.875808 C274.678487,110.052038 274.836588,110.530888 274.682961,110.947426 C274.558139,111.284382 274.263619,111.476727 273.968227,111.442622 Z M249.301772,116.364779 C249.123754,116.333314 248.950903,116.232313 248.818419,116.066781 C248.549166,115.728888 248.559889,115.24978 248.844415,114.998835 C251.032127,113.059452 253.458049,111.600662 256.055502,110.660483 C256.413865,110.529479 256.832868,110.754156 256.996724,111.154802 C257.159397,111.556454 257.004488,111.986999 256.648492,112.115991 C254.192571,113.003449 251.895423,114.386612 249.820427,116.224453 C249.674612,116.352941 249.486593,116.397446 249.301772,116.364779 Z M366.045013,131.277842 C365.907917,131.263188 365.774636,131.201607 365.666992,131.09213 C365.412558,130.831564 365.407661,130.398425 365.655157,130.125462 C367.422376,128.178805 369.204732,126.145702 370.955802,124.085037 C371.193855,123.803359 371.599839,123.778505 371.864381,124.031345 C372.126989,124.282877 372.145411,124.71526 371.906335,124.996829 C370.146866,127.068705 368.354177,129.111711 366.5764,131.070449 C366.433808,131.229134 366.236332,131.298292 366.045013,131.277842 Z M286.780442,122.760258 C286.571177,122.738884 286.371485,122.640384 286.237183,122.474924 C284.321337,120.110214 282.265148,118.048042 280.124557,116.343217 C279.804413,116.088483 279.769058,115.648612 280.046106,115.363383 C280.324616,115.076072 280.80964,115.053089 281.131008,115.307949 C283.355956,117.079409 285.490413,119.218752 287.472798,121.66613 C287.724954,121.977518 287.652141,122.410803 287.312406,122.634957 C287.151448,122.739018 286.962784,122.778883 286.780442,122.760258 Z M239.357978,129.754939 C239.316702,129.750918 239.274841,129.74235 239.232271,129.730345 C238.872071,129.623413 238.670838,129.236738 238.781888,128.865891 C239.614641,126.129433 240.838718,123.506306 242.420486,121.070691 C242.630464,120.747649 243.053918,120.654195 243.368788,120.861108 C243.682322,121.070136 243.765408,121.501429 243.556391,121.825688 C242.047902,124.147207 240.880602,126.646772 240.087624,129.254645 C239.988105,129.581713 239.678407,129.786154 239.357978,129.754939 Z M352.404058,142.926185 C352.236933,142.908225 352.074396,142.823692 351.954204,142.677863 C351.698967,142.366318 351.728977,141.887887 352.019064,141.60812 C354.077406,139.631997 356.166834,137.539716 358.230766,135.388604 C358.511941,135.096904 358.956001,135.105605 359.221762,135.402429 C359.48839,135.701785 359.477321,136.182251 359.196146,136.473951 C357.119462,138.639545 355.015177,140.744862 352.942968,142.735346 C352.789196,142.883437 352.592351,142.94642 352.404058,142.926185 Z M293.939882,138.619272 C293.656146,138.600211 293.404578,138.429396 293.306071,138.156815 C292.242408,135.228713 291.068889,132.476697 289.812186,129.976437 C289.626917,129.609372 289.796487,129.144246 290.187409,128.936559 C290.583309,128.729206 291.049275,128.860246 291.234722,129.226091 C292.51454,131.774694 293.710818,134.577492 294.792084,137.55726 C294.934155,137.944817 294.712849,138.394155 294.304325,138.558795 C294.182727,138.608497 294.058106,138.627214 293.939882,138.619272 Z M338.468033,153.556611 C338.252844,153.544827 338.048862,153.46314 337.91601,153.317853 C337.666462,153.045289 337.756129,152.65228 338.117783,152.439378 C340.6571,150.94042 343.240454,149.33306 345.791887,147.663509 C346.139104,147.437727 346.636339,147.463949 346.904168,147.725425 C347.170898,147.985834 347.107498,148.381288 346.76138,148.608137 C344.187251,150.292564 341.58152,151.912802 339.018249,153.426567 C338.851367,153.525219 338.655537,153.566879 338.468033,153.556611 Z M240.057041,146.670298 C239.808493,146.643208 239.585565,146.459755 239.496663,146.177405 C238.560401,143.208107 238.069618,140.093664 238.039831,136.917195 C238.03594,136.493593 238.335945,136.14136 238.709238,136.128995 C239.094243,136.119141 239.390487,136.448765 239.394502,136.871148 C239.422923,139.878443 239.885775,142.828219 240.771846,145.637827 C240.896019,146.033826 240.712091,146.475204 240.360839,146.62445 C240.259642,146.667706 240.157106,146.681205 240.057041,146.670298 Z M298.723307,155.97415 C298.367804,155.92701 298.079799,155.637183 298.06334,155.291167 C297.92501,152.461419 297.559683,149.765353 296.977721,147.27593 C296.891718,146.906593 297.13434,146.560222 297.517765,146.501515 C297.908996,146.446011 298.286353,146.697793 298.371302,147.065906 C298.971265,149.633641 299.347503,152.410333 299.490161,155.31658 C299.507838,155.690958 299.203485,155.987927 298.810243,155.981339 C298.780364,155.980631 298.752933,155.978078 298.723307,155.97415 Z M326.064179,162.826546 C325.839216,162.786486 325.624539,162.632043 325.497173,162.391614 C325.291822,162.006405 325.393026,161.548562 325.72312,161.370023 C328.032949,160.112762 330.38525,158.701588 332.712724,157.175896 C333.027026,156.967632 333.466821,157.102221 333.69423,157.474232 C333.922814,157.845229 333.852908,158.313539 333.538656,158.520588 C331.183303,160.063335 328.805372,161.491964 326.465513,162.763451 C326.340352,162.83291 326.201406,162.850983 326.064179,162.826546 Z M251.354717,161.120321 C251.222377,161.106352 251.091449,161.056263 250.97635,160.968067 C248.501438,159.034964 246.354517,156.909512 244.59443,154.651741 C244.347264,154.331993 244.405639,153.876025 244.727247,153.631525 C245.048735,153.388182 245.510369,153.44627 245.759877,153.766265 C247.445774,155.929629 249.506996,157.968817 251.8868,159.826364 C252.206372,160.076538 252.261517,160.53396 252.009494,160.848982 C251.84736,161.051819 251.598315,161.146035 251.354717,161.120321 Z M308.562894,170.688378 C308.276305,170.645276 308.017053,170.417418 307.912725,170.084211 C307.77132,169.631835 307.971366,169.155537 308.359584,169.020951 C311.078051,168.083092 313.847828,166.943554 316.594442,165.6363 C316.967317,165.458347 317.413288,165.669123 317.592995,166.106731 C317.770313,166.543981 317.612229,167.043012 317.23944,167.219608 C314.449319,168.547691 311.633819,169.704988 308.870909,170.659429 C308.768544,170.69604 308.664394,170.703643 308.562894,170.688378 Z M266.14898,169.425272 C266.086675,169.418857 266.026258,169.406352 265.966508,169.38763 C262.896476,168.403267 260.004261,167.292662 257.371826,166.086251 C256.992559,165.914175 256.842426,165.517444 257.034359,165.202019 C257.227736,164.884648 257.690982,164.76894 258.065251,164.941549 C260.636493,166.119662 263.463515,167.204701 266.469132,168.167768 C266.870281,168.297057 267.080611,168.673799 266.941987,169.010425 C266.82369,169.295722 266.49105,169.460491 266.14898,169.425272 Z M292.12216,173.262252 C291.784247,173.230476 291.512362,172.958635 291.491299,172.604166 C291.465068,172.204858 291.766743,171.853892 292.163217,171.818809 C293.592781,171.692956 295.043502,171.514234 296.501009,171.287129 C297.06574,168.606697 297.504958,165.983325 297.808116,163.477884 C297.856626,163.080936 298.214638,162.791292 298.606206,162.828113 L298.608489,162.828328 C299.003347,162.866625 299.28295,163.220895 299.234305,163.618998 C298.946399,166.003319 298.535595,168.491635 298.014791,171.032635 C298.888128,170.876654 299.762473,170.702092 300.638834,170.510213 C301.029806,170.423256 301.403497,170.673157 301.479287,171.063119 C301.553802,171.454128 301.300005,171.839943 300.91031,171.925852 C299.820801,172.164218 298.728407,172.377802 297.640515,172.562629 C297.481413,172.809116 297.18734,172.946036 296.887035,172.888617 C296.765221,172.864324 296.659593,172.810038 296.571224,172.736367 C295.119828,172.960545 293.677367,173.137708 292.251362,173.262729 C292.208183,173.266839 292.16554,173.266331 292.12216,173.262252 Z M280.719655,173.461797 C278.819031,173.274914 276.909008,172.964178 275.044742,172.537572 C274.691061,172.456697 274.474137,172.042249 274.560577,171.610251 C274.646874,171.179519 274.99475,170.887192 275.357899,170.977962 C277.885398,171.554295 280.477605,171.91162 283.091296,172.039284 C283.438309,172.028587 283.720405,172.427674 283.685221,172.864712 C283.651987,173.303223 283.330386,173.644231 282.968569,173.626582 C282.217596,173.589877 281.46024,173.534616 280.719655,173.461797 Z M291.58324,190.860117 C291.519479,190.854 291.455219,190.84075 291.393062,190.820617 C290.968106,190.68302 290.743918,190.262403 290.896688,189.881494 C292.014581,187.055657 293.022066,184.240482 293.891705,181.51481 C294.015215,181.12519 294.461045,180.896382 294.904022,181.014453 C295.33699,181.128021 295.587772,181.534659 295.464262,181.924279 C294.584642,184.679694 293.567177,187.524613 292.435666,190.377482 C292.307662,190.702908 291.948888,190.895199 291.58324,190.860117 Z M285.429456,205.832882 C285.351015,205.825362 285.274082,205.804672 285.200772,205.772124 C284.850037,205.609788 284.703155,205.200688 284.872992,204.855236 C286.118636,202.317131 287.298668,199.768299 288.37902,197.278707 C288.531556,196.926048 288.939545,196.756552 289.303497,196.902401 C289.661845,197.047712 289.827662,197.449751 289.675126,197.802409 C288.585789,200.311113 287.397766,202.880262 286.140895,205.437264 C286.008865,205.709776 285.716328,205.860381 285.429456,205.832882 Z M277.319593,221.433242 C277.233853,221.422761 277.148829,221.392646 277.069871,221.340073 C276.766339,221.140564 276.659553,220.699463 276.832852,220.354082 C278.104117,217.82057 279.330903,215.271181 280.476553,212.774513 C280.638154,212.423063 281.021263,212.287775 281.331965,212.4754 C281.641758,212.661754 281.762267,213.097573 281.599556,213.450048 C280.44744,215.962165 279.214088,218.528152 277.934341,221.076868 C277.806791,221.331559 277.561685,221.462838 277.319593,221.433242 Z M268.063623,237.071758 C267.947753,237.060593 267.834872,237.02321 267.732003,236.960286 C267.39508,236.750009 267.304044,236.323763 267.530583,236.007636 C269.182446,233.702823 270.798675,231.36807 272.333972,229.068591 C272.549305,228.746967 273.000881,228.646903 273.347242,228.847045 C273.692433,229.047075 273.795795,229.468986 273.581508,229.791816 C272.038865,232.103839 270.414119,234.451025 268.753615,236.769363 C268.596131,236.988328 268.326962,237.097132 268.063623,237.071758 Z M258.266411,250.249043 C258.147739,250.237033 258.0305,250.191885 257.929212,250.110476 C257.631787,249.87723 257.57803,249.429917 257.806576,249.114468 C259.480355,246.808222 261.126897,244.471674 262.702343,242.166954 C262.922877,241.844956 263.348111,241.766331 263.649639,241.991958 C263.953325,242.217804 264.020522,242.661886 263.799865,242.985019 C262.21791,245.299411 260.562331,247.648817 258.880965,249.964625 C258.729527,250.173105 258.495123,250.272189 258.266411,250.249043 Z M247.363362,264.493229 C247.219421,264.479037 247.07787,264.421913 246.960529,264.320311 C246.646736,264.050106 246.611704,263.566889 246.88264,263.240873 C248.843449,260.878761 250.789992,258.472077 252.670627,256.084794 C252.930075,255.753945 253.402164,255.694428 253.721397,255.959002 C254.042364,256.218814 254.089428,256.701984 253.827464,257.033819 C251.940981,259.430392 249.985801,261.849791 248.015439,264.22206 C247.847384,264.423788 247.60128,264.516688 247.363362,264.493229 Z M236.237433,277.24235 C236.102139,277.227968 235.969502,277.167925 235.862354,277.063554 C235.600806,276.807126 235.589221,276.37599 235.835877,276.102479 C237.618882,274.117324 239.400862,272.081741 241.129629,270.055816 C241.369731,269.775045 241.779709,269.748615 242.047321,269.996936 C242.313676,270.247311 242.334893,270.676189 242.095824,270.957071 C240.358703,272.993046 238.570772,275.035654 236.780559,277.029888 C236.634393,277.19047 236.432628,277.263098 236.237433,277.24235 Z M223.275395,291.122366 C223.1123,291.105204 222.955118,291.031734 222.83293,290.901455 C222.555906,290.608996 222.565381,290.142677 222.851725,289.859681 C224.930635,287.810643 227.01279,285.708572 229.035917,283.615709 C229.317258,283.32507 229.775206,283.321069 230.057686,283.6058 C230.341192,283.891824 230.343449,284.357005 230.063257,284.647765 C228.028562,286.751271 225.939802,288.86095 223.853139,290.917475 C223.692491,291.076111 223.480985,291.143998 223.275395,291.122366 Z M210.771079,301.683353 C210.60379,301.665236 210.442127,301.581001 210.32511,301.429931 C210.074713,301.113661 210.106438,300.62776 210.395495,300.346432 C212.487024,298.309134 214.585136,296.218178 216.631997,294.127851 C216.915198,293.838474 217.353045,293.854998 217.609568,294.165753 C217.866341,294.474064 217.844521,294.961037 217.56132,295.250414 C215.506983,297.348582 213.400171,299.448481 211.30019,301.492277 C211.148248,301.640171 210.955978,301.703376 210.771079,301.683353 Z M197.797334,313.008705 C197.633587,312.983209 197.473838,312.889531 197.356734,312.733688 C197.126467,312.424833 197.154987,311.990917 197.420853,311.76264 C199.337831,310.121247 201.263943,308.429118 203.145174,306.73222 C203.406341,306.496553 203.810373,306.555021 204.045225,306.855711 C204.281917,307.160017 204.263568,307.595517 204.003482,307.830243 C202.113727,309.532472 200.179981,311.232291 198.256448,312.880431 C198.123548,312.99402 197.959048,313.033883 197.797334,313.008705 Z M183.144092,323.706983 C182.931137,323.695059 182.729474,323.61205 182.598557,323.463332 C182.351092,323.186168 182.442045,322.78759 182.798118,322.570856 C185.371518,321.011125 187.966199,319.404431 190.507652,317.792708 C190.858143,317.571565 191.349527,317.610348 191.604186,317.881768 C191.858684,318.154203 191.778778,318.554425 191.429049,318.778685 C188.87558,320.394858 186.272137,322.009257 183.689213,323.573578 C183.522511,323.67387 183.328404,323.717303 183.144092,323.706983 Z M169.611607,334.085107 C169.393013,334.072051 169.188506,333.975646 169.063687,333.805207 C168.843456,333.502783 168.956829,333.084283 169.315287,332.87039 C171.893349,331.329758 174.50311,329.733812 177.070715,328.126713 C177.424124,327.906042 177.894676,327.968686 178.121936,328.265053 C178.350568,328.560423 178.249108,328.980713 177.894325,329.202382 C175.318648,330.814395 172.70065,332.416325 170.110893,333.961656 C169.956319,334.054964 169.778271,334.09506 169.611607,334.085107 Z M154.156238,342.781956 C153.939658,342.743751 153.729674,342.602237 153.599542,342.381146 C153.379733,342.009741 153.463867,341.553857 153.788212,341.363701 C156.127621,339.994342 158.484109,338.571557 160.792038,337.135402 C161.112195,336.936101 161.555441,337.07193 161.78107,337.440758 C162.009115,337.80641 161.935087,338.266478 161.614979,338.464587 C159.297681,339.906293 156.931823,341.334631 154.584178,342.709742 C154.453049,342.78628 154.302515,342.807759 154.156238,342.781956 Z M139.780743,351.199815 C139.542353,351.190985 139.32576,351.088837 139.214047,350.909194 C139.036126,350.621207 139.195361,350.2457 139.568668,350.071276 C142.282077,348.798135 145.005084,347.492014 147.657761,346.185248 C148.027567,346.003831 148.478391,346.085241 148.665503,346.368666 C148.852615,346.652091 148.702867,347.027949 148.333892,347.211358 C145.668645,348.52158 142.938642,349.833325 140.21367,351.11094 C140.073977,351.17636 139.923065,351.205087 139.780743,351.199815 Z M122.492719,358.788288 C122.248023,358.77825 122.028671,358.658203 121.928575,358.451907 C121.774411,358.135487 121.954231,357.740579 122.329533,357.567404 C125.038486,356.321871 127.77258,355.033369 130.454249,353.737479 C130.826203,353.556833 131.258173,353.663602 131.420402,353.974067 C131.582447,354.285571 131.412511,354.684028 131.0419,354.863681 C128.349847,356.165431 125.605185,357.460833 122.886217,358.710145 C122.75668,358.768736 122.621446,358.793569 122.492719,358.788288 Z M107.468199,365.673369 C107.200276,365.633888 106.950698,365.445738 106.829872,365.161109 C106.655155,364.746671 106.822685,364.283891 107.203805,364.128389 C109.943339,363.010673 112.7197,361.835526 115.454966,360.633799 C115.831905,360.467418 116.286323,360.667793 116.469861,361.0784 C116.654611,361.489185 116.497824,361.956114 116.11984,362.119775 C113.374457,363.326425 110.587897,364.507766 107.837034,365.630226 C107.717518,365.679321 107.590644,365.691412 107.468199,365.673369 Z M92.2430957,373.626453 C91.9664969,373.584122 91.71262,373.366236 91.6013352,373.039716 C91.448452,372.586087 91.6335606,372.095363 92.0169872,371.944479 C94.7762117,370.858171 97.5651815,369.718125 100.306442,368.551349 C100.684661,368.387177 101.12392,368.623719 101.287785,369.074865 C101.450457,369.525828 101.275911,370.020944 100.896583,370.183558 C98.1429823,371.355385 95.3428638,372.500664 92.5725743,373.59083 C92.4641415,373.632525 92.3515892,373.643057 92.2430957,373.626453 Z M75.0644349,378.162627 C74.7955575,378.124969 74.5515855,377.943546 74.4562832,377.684432 C74.3303939,377.338074 74.5203138,376.983061 74.8810739,376.893594 C77.4785486,376.243208 80.1101909,375.553018 82.7067268,374.838207 C83.0635054,374.74196 83.463789,374.941127 83.599859,375.2858 C83.73379,375.629136 83.5547127,375.988778 83.1955729,376.086768 C80.5910693,376.803574 77.9479175,377.498375 75.3403363,378.149419 C75.2492979,378.171926 75.1551671,378.175334 75.0644349,378.162627 Z M58.3504497,382.755511 C58.0516783,382.743266 57.7951994,382.586449 57.7260739,382.345752 C57.6380442,382.037262 57.8913772,381.708782 58.2941028,381.611074 C61.1865124,380.909358 64.1214957,380.168799 67.0166251,379.411504 C67.4159566,379.306106 67.8198836,379.469909 67.9190401,379.776023 C68.0168495,380.083026 67.7721329,380.416579 67.3728014,380.521977 C64.4663789,381.282585 61.5190879,382.025471 58.6157177,382.728626 C58.5250238,382.750394 58.4366565,382.759044 58.3504497,382.755511 Z M41.703534,386.749481 C41.3777996,386.695169 41.0890234,386.417942 41.0038549,386.043181 C40.8959369,385.579232 41.1409327,385.144307 41.5507996,385.070321 C44.5146646,384.532985 47.5018751,383.948033 50.4337534,383.333523 C50.8392543,383.247966 51.2637577,383.55189 51.3816052,384.014784 C51.4982947,384.476129 51.2626963,384.920755 50.8560374,385.004764 C47.912872,385.622814 44.9133493,386.207068 41.9381971,386.747944 C41.859719,386.761968 41.7806816,386.762345 41.703534,386.749481 Z M25.002295,389.627571 C24.6983845,389.58674 24.4339461,389.353026 24.3741731,389.042843 C24.3022964,388.672552 24.5495252,388.334304 24.9249886,388.287279 C27.6532454,387.949882 30.3976631,387.576753 33.0823755,387.181522 C33.4586673,387.123779 33.82522,387.379876 33.9038103,387.749986 C33.9846938,388.119321 33.7470797,388.463193 33.3732468,388.518018 C30.6771517,388.91605 27.9225393,389.291059 25.1841706,389.629263 C25.122146,389.637175 25.061972,389.635589 25.002295,389.627571 Z M7.59864838,391.896264 C7.28775283,391.865496 7.03295479,391.616083 6.99984441,391.283834 C6.961483,390.900368 7.23364505,390.551013 7.60884141,390.505902 C10.3263089,390.168723 13.0638704,389.798607 15.7440852,389.402537 C16.1149816,389.346861 16.4577387,389.612866 16.5048902,389.996075 C16.5521658,390.37817 16.2869664,390.733847 15.9140275,390.788194 C13.222732,391.185421 10.4750491,391.557915 7.74674898,391.894022 C7.69580271,391.89912 7.64739507,391.901089 7.59864838,391.896264 Z M-9.81414601,393.238766 C-10.1523181,393.184502 -10.4370019,392.882165 -10.4762472,392.514648 C-10.5210924,392.103456 -10.2412365,391.763377 -9.85302406,391.757942 C-7.04477138,391.708316 -4.20385735,391.624719 -1.41016071,391.507405 C-1.0258287,391.489465 -0.665689102,391.809851 -0.612926811,392.222313 C-0.560100154,392.633598 -0.831165466,392.97984 -1.21889051,392.997236 C-4.02396162,393.113913 -6.87511911,393.197054 -9.69361525,393.246224 C-9.73471782,393.246758 -9.77456065,393.245118 -9.81414601,393.238766 Z M-27.0258343,394.5126 C-27.3717946,394.470923 -27.6447392,394.143187 -27.6523086,393.740661 C-27.6613809,393.30491 -27.3544776,392.944081 -26.9692723,392.937106 C-24.1981695,392.883296 -21.374267,392.792635 -18.5774529,392.665667 C-18.1827817,392.653478 -17.8644548,392.989223 -17.8474823,393.424655 C-17.8305098,393.860087 -18.1290805,394.228275 -18.5151924,394.245308 C-21.3221316,394.372327 -24.1562724,394.464296 -26.9384994,394.516766 C-26.9689879,394.518177 -26.9969115,394.516084 -27.0258343,394.5126 Z M-43.9281386,393.414468 C-44.2892804,393.385594 -44.5624133,393.100983 -44.5466947,392.757151 C-44.5285057,392.394521 -44.200076,392.103129 -43.8094327,392.105868 C-40.9831231,392.124994 -38.130265,392.114582 -35.3290693,392.074713 C-34.9301634,392.074946 -34.6295641,392.357532 -34.6376591,392.720969 C-34.6464639,393.081183 -34.9689878,393.379379 -35.3584858,393.385174 C-38.1699128,393.425281 -41.0330022,393.43593 -43.8717862,393.416863 C-43.8898684,393.416472 -43.9079506,393.416082 -43.9281386,393.414468 Z M-61.9597109,392.811562 C-62.3422949,392.764212 -62.6273933,392.355042 -62.5999544,391.880147 C-62.5717865,391.396877 -62.2274019,391.031753 -61.8308814,391.065308 C-58.9509316,391.298997 -56.0456949,391.494899 -53.1937916,391.65175 C-52.7983471,391.671064 -52.490218,392.081673 -52.5103676,392.565936 C-52.5292503,393.048944 -52.8686365,393.423152 -53.2652265,393.403697 C-56.126415,393.247107 -59.0431063,393.049787 -61.9332438,392.813427 C-61.9413835,392.813831 -61.9505472,392.812697 -61.9597109,392.811562 Z M-88.5957997,389.540463 L-88.6157012,389.538612 C-91.2182754,389.203508 -93.8589484,388.832165 -96.4624501,388.432841 C-96.8214823,388.379329 -97.0572906,387.988947 -96.9878788,387.560302 C-96.9198067,387.134048 -96.571235,386.816878 -96.2151498,386.886463 C-93.6198817,387.283764 -90.9877344,387.655571 -88.3941489,387.986067 C-88.034386,388.033359 -87.7915624,388.418107 -87.8524485,388.846286 C-87.9124578,389.267003 -88.2428091,389.573293 -88.5957997,389.540463 Z M-76.3858302,392.151982 C-77.529217,392.083892 -78.6827741,391.991709 -79.8333917,391.902844 C-80.224018,391.872231 -80.4733489,391.415433 -80.391731,390.88225 C-80.3105665,390.352159 -79.9322264,389.94483 -79.5443128,389.970579 L-79.538658,389.970955 C-78.3916599,390.061141 -77.2423944,390.135866 -76.102406,390.219342 C-74.4105143,390.331647 -72.7217831,390.426569 -71.0366661,390.507201 L-71.0276185,390.507802 C-70.6419667,390.533401 -70.3890135,390.981072 -70.460677,391.508672 C-70.5343783,392.04238 -70.910686,392.459211 -71.3031262,392.440967 C-72.992767,392.360035 -74.6871529,392.264737 -76.3858302,392.151982 Z" id="Tracejos" fill="#FFFDF3"></path>
        <g id="Planes" transform="translate(176.432342, 286.827855) rotate(-1.000000) translate(-176.432342, -286.827855) translate(21.956157, 173.394517)">
            <g id="Group" transform="translate(144.216104, 0.000000)">
                <polyline id="Fill-5" fill="#FFFFFE" points="14.659555 8.65816277 0.415344733 0.243909617 69.5783258 3.6253267 14.659555 8.65816277"></polyline>
                <polyline id="Fill-6" fill="#F7F0D7" points="14.659555 8.65816277 12.8340279 22.7923479 19.2749801 14.7263574 69.5783258 3.6253267 14.659555 8.65816277"></polyline>
                <polyline id="Fill-7" fill="#D9D4BF" points="12.8340279 22.7923479 22.0990756 19.9025218 19.2749801 14.7263574 12.8340279 22.7923479"></polyline>
                <polyline id="Fill-8" fill="#FFFFFE" points="19.2749801 14.7263574 23.1218931 34.6508814 69.5783258 3.6253267 19.2749801 14.7263574"></polyline>
            </g>
            <g id="Group-5" transform="translate(190.677223, 17.322332)">
                <polyline id="Fill-9" fill="#FFFFFE" points="16.7454756 33.5083994 0.292811635 33.9779807 60.6318602 0.0184870288 16.7454756 33.5083994"></polyline>
                <polyline id="Fill-10" fill="#F7F0D7" points="16.7454756 33.5083994 22.5731716 46.4306507 23.8207228 36.1831345 60.6318602 0.0184870288 16.7454756 33.5083994"></polyline>
                <polyline id="Fill-11" fill="#D9D4BF" points="22.5731716 46.4306507 28.9120472 39.0544676 23.8207228 36.1831345 22.5731716 46.4306507"></polyline>
                <polyline id="Fill-12" fill="#FFFFFE" points="23.8207228 36.1831345 37.4736857 50.9793283 60.6318602 0.0184870288 23.8207228 36.1831345"></polyline>
            </g>
            <g id="Group-8" transform="translate(214.707800, 101.070243) rotate(37.000000) translate(-214.707800, -101.070243) translate(192.600296, 75.086744)">
                <polyline id="Fill-13" fill="#FFFFFE" points="16.6179928 39.1618284 0.444018321 42.561597 42.3486366 0.205363556 16.6179928 39.1618284"></polyline>
                <polyline id="Fill-14" fill="#F7F0D7" points="16.6179928 39.1618284 21.8515552 51.6739787 24.078497 40.5292491 42.3486366 0.205363556 16.6179928 39.1618284"></polyline>
                <polyline id="Fill-15" fill="#D9D4BF" points="21.8515552 51.6739787 29.6147142 42.4470192 24.078497 40.5292491 21.8515552 51.6739787"></polyline>
                <polyline id="Fill-16" fill="#FFFFFE" points="24.078497 40.5292491 43.8108456 50.7654954 42.3486366 0.205363556 24.078497 40.5292491"></polyline>
            </g>
            <g id="Group-2" transform="translate(95.614955, 11.734483)">
                <polyline id="Fill-17" fill="#FFFFFE" points="8.21729118 5.1150475 0.528228236 0.0859832324 33.6894843 0.177320874 8.21729118 5.1150475"></polyline>
                <polyline id="Fill-18" fill="#F7F0D7" points="8.37248492 5.42440443 5.50606787 12.2551689 10.7465982 8.85291551 33.6931356 0.520685565 8.37248492 5.42440443"></polyline>
                <polyline id="Fill-19" fill="#D9D4BF" points="5.23734016 12.5012951 11.8695914 11.9962212 10.4654553 9.14858557 5.23734016 12.5012951"></polyline>
                <polyline id="Fill-20" fill="#FFFFFE" points="10.5918836 8.78234736 14.317757 20.4906497 33.8047629 0.374392634 10.5918836 8.78234736"></polyline>
            </g>
            <g id="Group-9" transform="translate(95.614955, 102.816425)">
                <polyline id="Fill-21" fill="#FFFFFE" points="18.2707312 28.3579448 0.540350899 24.5518791 61.3359871 0.977483753 18.2707312 28.3579448"></polyline>
                <polyline id="Fill-22" fill="#F7F0D7" points="18.5381918 27.8199398 18.2500331 42.7195686 25.3778839 32.5332981 61.359666 0.251914752 18.5381918 27.8199398"></polyline>
                <polyline id="Fill-23" fill="#D9D4BF" points="18.37868 42.9321834 29.9851196 37.2220117 25.3862408 32.8740549 18.37868 42.9321834"></polyline>
                <polyline id="Fill-24" fill="#FFFFFE" points="25.2739041 32.672801 40.4250542 51.7876536 61.1985982 0.379441045 25.2739041 32.672801"></polyline>
            </g>
            <g id="Group-10" transform="translate(144.790455, 138.621679)">
                <polyline id="Fill-26" fill="#F7F0D7" points="16.4362168 31.9163277 18.3795063 45.4023922 23.2792218 35.1311571 50.8481716 0.546282106 16.4362168 31.9163277"></polyline>
                <polyline id="Fill-25" fill="#FFFFFE" points="16.4362168 31.9163277 0.0222939529 31.1374514 50.8481716 0.546282106 16.4362168 31.9163277"></polyline>
                <polyline id="Fill-27" fill="#D9D4BF" points="18.3795063 45.4023922 28.1355878 38.3931339 23.2792218 35.1311571 18.3795063 45.4023922"></polyline>
                <polyline id="Fill-29" fill="#FFFFFE" points="23.2792218 35.1311571 39.7457831 50.065592 50.8481716 0.546282106 23.2792218 35.1311571"></polyline>
            </g>
            <g id="Group-12" transform="translate(54.496393, 167.102587)">
                <polyline id="Fill-30" fill="#FFFFFE" points="19.4778493 37.1553982 0.0222410266 36.2389829 60.2651896 0.275593592 19.4778493 37.1553982"></polyline>
                <polyline id="Fill-31" fill="#F7F0D7" points="19.4631872 37.5502887 21.7728023 53.5097323 27.5968892 41.3541595 60.3620697 0.42516503 19.4631872 37.5502887"></polyline>
                <polyline id="Fill-32" fill="#D9D4BF" points="21.8483079 53.2485522 33.4547475 44.8601779 27.67805 40.955284 21.8483079 53.2485522"></polyline>
                <polyline id="Fill-33" fill="#FFFFFE" points="28.02612 41.1545529 47.50175 58.6811555 60.6346885 0.567523978 28.02612 41.1545529"></polyline>
            </g>
            <g id="Group-11" transform="translate(82.813413, 73.200824)">
                <polyline id="Fill-34" fill="#FFFFFE" points="7.83286117 5.53920642 0.0153757734 0.51014215 33.7293195 0.601479792 7.83286117 5.53920642"></polyline>
                <polyline id="Fill-35" fill="#F7F0D7" points="7.80817702 5.54549919 4.88523929 12.7015381 10.2284596 9.13727271 33.6249946 0.408269909 7.80817702 5.54549919"></polyline>
                <polyline id="Fill-36" fill="#D9D4BF" points="5.03925505 12.3019224 11.6715063 11.7968485 10.2673701 8.94921293 5.03925505 12.3019224"></polyline>
                <polyline id="Fill-38" fill="#FFFFFE" points="9.99302304 9.01265333 13.7191897 21.0461863 33.2059023 0.371144309 9.99302304 9.01265333"></polyline>
            </g>
            <g id="Group-3" transform="translate(42.556945, 168.194260) rotate(-23.000000) translate(-42.556945, -168.194260) translate(23.212879, 156.459777)">
                <polyline id="Fill-39" fill="#FFFFFE" points="6.6312791 7.28622149 0.029833423 0.191341671 38.1652779 13.6021797 6.6312791 7.28622149"></polyline>
                <polyline id="Fill-40" fill="#F7F0D7" points="6.21799097 7.31851476 2.90676261 15.1415036 7.8138553 11.599139 37.7260815 13.7939346 6.21799097 7.31851476"></polyline>
                <polyline id="Fill-41" fill="#D9D4BF" points="3.068152 14.8733482 8.59502801 14.7959094 7.87155739 11.5206387 3.068152 14.8733482"></polyline>
                <polyline id="Fill-42" fill="#FFFFFE" points="7.63753166 11.4962908 6.53952467 23.2307741 38.042718 13.6206433 7.63753166 11.4962908"></polyline>
            </g>
            <g id="Group-7" transform="translate(283.636216, 115.964719) scale(1, -1) rotate(141.000000) translate(-283.636216, -115.964719) translate(270.371713, 92.495753)">
                <polyline id="Fill-43" fill="#FFFFFE" points="18.4330321 38.0671589 26.0173739 46.4001446 13.8582466 0.579781321 18.4330321 38.0671589"></polyline>
                <polyline id="Fill-44" fill="#F7F0D7" points="18.453704 38.012697 9.61070234 41.2601939 13.8987811 35.7866187 13.9784433 0.468894797 18.453704 38.012697"></polyline>
                <polyline id="Fill-45" fill="#D9D4BF" points="9.40416146 41.3412605 9.98065986 34.6358415 13.8256623 35.8024 9.40416146 41.3412605"></polyline>
                <polyline id="Fill-46" fill="#FFFFFE" points="14.190216 36.1735809 0.454873617 36.4477451 14.2720637 0.685510267 14.190216 36.1735809"></polyline>
            </g>
            <g id="Group-13" transform="translate(51.824532, 127.383662) scale(1, -1) rotate(102.000000) translate(-51.824532, -127.383662) translate(34.138529, 92.459605)">
                <polyline id="Fill-48" fill="#FFFFFE" points="26.2485111 55.682498 35.0784809 69.7594776 29.1732175 0.00761344452 26.2485111 55.682498"></polyline>
                <polyline id="Fill-49" fill="#F7F0D7" points="26.2485111 55.682498 12.3727555 58.0518159 20.0906791 51.2443488 29.1732175 0.00761344452 26.2485111 55.682498"></polyline>
                <polyline id="Fill-50" fill="#FFFFFE" points="20.0906791 51.2443488 0.292284475 48.0992978 29.1732175 0.00761344452 20.0906791 51.2443488"></polyline>
            </g>
            <g id="Group-4" transform="translate(150.718717, 62.337702) rotate(31.000000) translate(-150.718717, -62.337702) translate(127.505838, 42.221444)">
                <polyline id="Fill-54" fill="#FFFFFE" points="13.7470625 22.3412002 0.187611912 19.7175584 46.0606828 0.548588404 13.7470625 22.3412002"></polyline>
                <polyline id="Fill-55" fill="#F7F0D7" points="13.404456 22.2884855 13.4349121 33.601806 18.7678905 25.7487543 46.0130245 0.6334958 13.404456 22.2884855"></polyline>
                <polyline id="Fill-56" fill="#D9D4BF" points="13.4872214 33.6812361 22.330223 29.1082523 18.7150882 25.8582472 13.4872214 33.6812361"></polyline>
                <polyline id="Fill-57" fill="#FFFFFE" points="18.8050391 25.9409775 30.779756 40.0961854 45.8867316 0.981241146 18.8050391 25.9409775"></polyline>
            </g>
            <g id="Group-14" transform="translate(40.822497, 46.657630) scale(1, -1) rotate(94.000000) translate(-40.822497, -46.657630) translate(10.148335, 7.822078)">
                <polyline id="Fill-59" fill="#FFFFFE" points="41.9906461 64.3687085 61.3132376 77.1883488 28.7046691 0.634814964 41.9906461 64.3687085"></polyline>
                <polyline id="Fill-60" fill="#F7F0D7" points="42.0290379 63.9431875 28.7645355 77.3718971 31.6457772 61.8261192 28.8158774 0.259578384 42.0290379 63.9431875"></polyline>
                <polyline id="Fill-61" fill="#FFFFFE" points="31.3567755 62.0673583 0.406269796 65.0224693 28.5212952 0.203418745 31.3567755 62.0673583"></polyline>
            </g>
            <g id="Group-6" transform="translate(271.369612, 50.570035) rotate(22.000000) translate(-271.369612, -50.570035) translate(252.025546, 22.910182)">
                <polyline id="Fill-63" fill="#FFFFFE" points="13.7829591 47.0534572 0.225264769 54.6045878 36.1297234 0.0332759558 13.7829591 47.0534572"></polyline>
                <polyline id="Fill-64" fill="#F7F0D7" points="13.7829591 47.0534572 24.1931866 55.2895702 20.8454152 46.2027229 36.1297234 0.0332759558 13.7829591 47.0534572"></polyline>
                <polyline id="Fill-65" fill="#D9D4BF" points="24.1931866 55.2895702 26.3341379 46.3822875 20.8454152 46.2027229 24.1931866 55.2895702"></polyline>
                <polyline id="Fill-66" fill="#FFFFFE" points="20.8454152 46.2027229 38.6038918 52.5979849 36.1297234 0.0332759558 20.8454152 46.2027229"></polyline>
            </g>
        </g>
    </g>
</svg>
