<svg width="1000px" height="500px" viewBox="0 0 1000 500" version="1.1" xmlns="http://www.w3.org/2000/svg" xmlns:xlink="http://www.w3.org/1999/xlink">
    <g id="Paper-planes" stroke="none" stroke-width="1" fill="none" fill-rule="evenodd">
        <path d="M725.433387,107.345622 C725.258845,107.345622 725.082716,107.297091 724.924041,107.195007 C724.452777,106.898797 724.300449,106.254499 724.58289,105.760816 C726.648836,102.136011 728.665593,98.476062 730.582385,94.8797063 C730.852132,94.3759822 731.455096,94.1969175 731.934294,94.4797393 C732.413492,94.7642347 732.581687,95.4018389 732.313527,95.905563 C730.385628,99.5186537 728.357764,103.197011 726.283884,106.838551 C726.098235,107.164884 725.769778,107.345622 725.433387,107.345622 Z M711.355354,128.454925 C711.152089,128.454925 710.950491,128.39457 710.770551,128.268686 C710.295711,127.932423 710.172419,127.263344 710.49731,126.770158 C712.819862,123.241977 715.142415,119.599983 717.398324,115.952816 C717.706553,115.451007 718.349671,115.302707 718.836174,115.626899 C719.319345,115.945918 719.460964,116.613272 719.152734,117.115081 C716.886829,120.781217 714.550947,124.437006 712.218398,127.98588 C712.016799,128.289379 711.688576,128.454925 711.355354,128.454925 Z M564.82631,136.057269 C564.726309,136.057269 564.626307,136.03863 564.526306,136.003215 C561.553681,134.931453 558.524604,134.387185 555.519721,134.387185 C555.511656,134.387185 555.501978,134.387185 555.490688,134.387185 C554.642288,134.387185 553.779372,134.431919 552.934198,134.519524 C552.393868,134.58849 551.889022,134.105731 551.839021,133.464538 C551.78902,132.825209 552.200317,132.258574 552.753551,132.200792 C553.671306,132.103867 554.616481,132.066589 555.521334,132.057269 C558.727833,132.057269 561.960139,132.636952 565.127928,133.779543 C565.660194,133.971528 565.953747,134.623904 565.789228,135.239002 C565.655355,135.736672 565.256962,136.057269 564.82631,136.057269 Z M529.866555,146.370768 C529.606408,146.370768 529.349574,146.279971 529.147422,146.096811 C528.736489,145.722664 528.723233,145.102739 529.12091,144.714503 C532.178054,141.716631 535.609677,139.283893 539.321331,137.480474 C539.83334,137.229999 540.454711,137.424117 540.716515,137.90315 C540.976662,138.383749 540.777823,138.973931 540.269128,139.221275 C536.759627,140.924504 533.510272,143.230439 530.610543,146.071764 C530.406733,146.270578 530.136644,146.370768 529.866555,146.370768 Z M698.330536,149.294438 C698.121995,149.294438 697.911897,149.223445 697.732925,149.076504 C697.309617,148.726489 697.234915,148.077641 697.564847,147.628565 C699.921054,144.425597 702.2866,141.090548 704.600788,137.719176 C704.915157,137.258543 705.522106,137.15618 705.959421,137.492987 C706.393623,137.828143 706.488556,138.47369 706.172631,138.934323 C703.847549,142.323856 701.467997,145.675415 699.097782,148.898195 C698.907916,149.159055 698.621561,149.294438 698.330536,149.294438 Z M584.649396,149.99716 C584.348875,149.99716 584.05011,149.885643 583.833946,149.668982 C580.749646,146.572009 577.512449,143.927473 574.210227,141.805473 C573.716387,141.488447 573.598639,140.865548 573.948369,140.417888 C574.299856,139.967043 574.985256,139.863492 575.480853,140.180518 C578.913125,142.385359 582.273343,145.128666 585.464846,148.33397 C585.870814,148.741802 585.833908,149.371074 585.385762,149.740672 C585.173112,149.912726 584.911254,149.99716 584.649396,149.99716 Z M518.574175,167.5139 C518.512613,167.5139 518.449431,167.507185 518.384629,167.495435 C517.835433,167.388 517.474162,166.839077 517.576225,166.268332 C518.348988,162.054888 519.71793,157.953914 521.645789,154.081238 C521.901757,153.567567 522.510895,153.366127 523.00987,153.629677 C523.507225,153.896585 523.701631,154.529441 523.447284,155.04479 C521.608528,158.736171 520.302768,162.644098 519.567265,166.65946 C519.474923,167.163059 519.05209,167.5139 518.574175,167.5139 Z M681.127417,168.584101 C680.886013,168.584101 680.641391,168.48868 680.448268,168.299574 C680.037881,167.895339 680.010522,167.210046 680.383893,166.767642 C683.034506,163.641321 685.712478,160.344978 688.345388,156.968829 C688.704275,156.510811 689.339971,156.455293 689.763232,156.836975 C690.188103,157.222127 690.242821,157.907419 689.883934,158.365437 C687.234931,161.76414 684.537647,165.081303 681.869331,168.230178 C681.67138,168.464391 681.399398,168.584101 681.127417,168.584101 Z M597.547448,170.426964 C597.183643,170.426964 596.832603,170.217608 596.657083,169.855841 C594.764659,165.970195 592.765327,162.334101 590.706957,159.04805 C590.403786,158.565694 590.533033,157.917528 590.99098,157.599307 C591.45531,157.281086 592.071225,157.416749 592.374396,157.89743 C594.471062,161.247125 596.508689,164.950213 598.433026,168.904528 C598.685136,169.418706 598.487277,170.050123 597.999013,170.3114 C597.85381,170.390117 597.699033,170.426964 597.547448,170.426964 Z M663.073052,184.85699 C662.767532,184.85699 662.462012,184.748133 662.242251,184.535086 C661.829531,184.135428 661.867051,183.521168 662.328011,183.161942 C665.563667,180.633368 668.836844,177.933733 672.05106,175.140793 C672.488793,174.762907 673.194527,174.761352 673.630474,175.142348 C674.064635,175.52179 674.064635,176.137605 673.628688,176.517047 C670.385885,179.334868 667.084122,182.056274 663.818093,184.60973 C663.605479,184.776125 663.339266,184.85699 663.073052,184.85699 Z M521.906864,190.991472 C521.566289,190.991472 521.238982,190.777231 521.079752,190.410197 C519.403414,186.550535 518.310919,182.430129 517.834703,178.158592 C517.771306,177.588943 518.129573,177.070778 518.633802,176.999364 C519.154248,176.929611 519.600977,177.32986 519.664374,177.897848 C520.115526,181.941858 521.147572,185.844701 522.733976,189.496766 C522.956603,190.011609 522.767886,190.632743 522.312311,190.885182 C522.181093,190.958256 522.043979,190.991472 521.906864,190.991472 Z M605.741717,194.503769 C605.17741,194.503769 604.689067,194.126647 604.620337,193.611354 C604.052412,189.397987 603.144456,185.430075 601.92179,181.814902 C601.740922,181.278477 602.079145,180.711168 602.6742,180.54699 C603.281916,180.386063 603.905909,180.688411 604.084968,181.22321 C605.345617,184.95217 606.280703,189.038746 606.864906,193.3659 C606.939062,193.923456 606.497744,194.428995 605.879177,194.497267 C605.832151,194.502143 605.788743,194.503769 605.741717,194.503769 Z M645.160141,200.281687 C644.831607,200.281687 644.511288,200.132297 644.312525,199.852387 C643.992206,199.404217 644.11212,198.792503 644.58028,198.487433 C647.855754,196.342505 651.183794,193.990003 654.469125,191.495974 C654.912644,191.156308 655.558212,191.228644 655.909742,191.654799 C656.262915,192.079382 656.188995,192.697385 655.745476,193.035479 C652.420721,195.557814 649.056543,197.938621 645.738359,200.108709 C645.560951,200.226649 645.360546,200.281687 645.160141,200.281687 Z M539.371007,209.927024 C539.179454,209.927024 538.984511,209.875143 538.80652,209.766359 C534.973773,207.374797 531.581767,204.658557 528.723735,201.694626 C528.321983,201.274555 528.337239,200.613486 528.761028,200.215171 C529.184817,199.81853 529.854404,199.831919 530.259546,200.25199 C532.997222,203.092075 536.253616,205.697858 539.938884,207.995699 C540.433869,208.305314 540.581348,208.95132 540.267744,209.440009 C540.066021,209.754644 539.723599,209.927024 539.371007,209.927024 Z M622.831817,213.207137 C622.439761,213.207137 622.068942,212.970026 621.899051,212.571404 C621.668719,212.030173 621.899051,211.394441 622.413624,211.152175 C626.01727,209.461471 629.673189,207.507883 633.283369,205.348111 C633.773439,205.0543 634.395827,205.23471 634.6768,205.750169 C634.954506,206.265628 634.782982,206.921978 634.292912,207.214071 C630.625558,209.408207 626.909197,211.392722 623.246743,213.112636 C623.111157,213.177927 622.97067,213.207137 622.831817,213.207137 Z M561.524797,218.816312 C561.439952,218.816312 561.35677,218.807815 561.273588,218.790821 C556.996371,217.887324 552.940418,216.788399 549.220521,215.523785 C548.684829,215.343935 548.425301,214.82846 548.638247,214.375295 C548.852856,213.919298 549.460085,213.69838 549.989122,213.879646 C553.62251,215.11452 557.586963,216.187955 561.774343,217.071627 C562.333326,217.190583 562.671045,217.670654 562.532963,218.145061 C562.414844,218.547245 561.990616,218.816312 561.524797,218.816312 Z M599.040564,220.778929 C598.555255,220.778929 598.124051,220.422133 598.035515,219.911459 C597.932223,219.336528 598.302763,218.786961 598.860212,218.682121 C600.870309,218.305033 602.901719,217.84847 604.934769,217.320886 C605.293832,213.360624 605.484021,209.50013 605.500416,205.829024 C605.503696,205.247329 605.964411,204.778929 606.526779,204.778929 C606.526779,204.778929 606.528418,204.778929 606.530058,204.778929 C607.097345,204.78062 607.553141,205.255784 607.549862,205.83917 C607.535106,209.332723 607.362953,212.993683 607.043239,216.745955 C608.258151,216.400996 609.471422,216.028982 610.684694,215.631603 C611.225748,215.45236 611.797953,215.763499 611.970107,216.318138 C612.140621,216.874469 611.843861,217.468001 611.304447,217.645553 C609.796055,218.139318 608.279465,218.597572 606.764515,219.013552 C606.579245,219.39233 606.184112,219.630757 605.74799,219.588483 C605.570917,219.569882 605.41188,219.505625 605.274158,219.410931 C603.249305,219.933442 601.229372,220.386623 599.224194,220.762019 C599.16353,220.773856 599.102867,220.778929 599.040564,220.778929 Z M582.736269,222.5308 C579.834064,222.5308 576.89672,222.3429 574.008891,221.971016 C573.461034,221.900554 573.063318,221.299668 573.120819,220.626362 C573.17832,219.955013 573.654301,219.455905 574.21813,219.540069 C578.132992,220.041133 582.10855,220.197716 586.077718,220.00003 C586.600019,219.931525 587.093569,220.499138 587.114334,221.172444 C587.138292,221.847707 586.710229,222.417277 586.160775,222.444679 C585.020338,222.50144 583.867123,222.5308 582.736269,222.5308 Z M601.602581,244.133243 C601.51533,244.133243 601.426297,244.123497 601.339046,244.104005 C600.74253,243.970806 600.373937,243.421767 600.52173,242.877601 C601.597239,238.842654 602.524955,234.836945 603.279948,230.972557 C603.386787,230.420269 603.954812,230.046663 604.572696,230.150623 C605.176334,230.24971 605.57876,230.776007 605.471921,231.328295 C604.708025,235.234917 603.771406,239.282859 602.681652,243.356792 C602.558787,243.821363 602.102942,244.133243 601.602581,244.133243 Z M594.096124,267.54466 C593.979078,267.54466 593.862031,267.524684 593.748329,267.486395 C593.203227,267.293288 592.917299,266.70065 593.109589,266.157954 C594.519164,262.170965 595.830085,258.177317 597.003894,254.286881 C597.169432,253.735861 597.74296,253.422895 598.304783,253.589366 C598.858246,253.755837 599.170927,254.335158 599.00539,254.886178 C597.821548,258.806578 596.502266,262.831856 595.079315,266.84881 C594.930499,267.276641 594.52418,267.54466 594.096124,267.54466 Z M585.440729,290.664237 C585.318575,290.664237 585.194984,290.637253 585.077142,290.578524 C584.624454,290.356306 584.418949,289.770604 584.620143,289.269026 C586.096048,285.589735 587.507283,281.896158 588.810736,278.288293 C588.994685,277.780367 589.517791,277.531166 589.979101,277.735924 C590.438974,277.939094 590.663162,278.515273 590.477776,279.024787 C589.167138,282.654873 587.748717,286.372259 586.262752,290.073772 C586.11473,290.443606 585.785634,290.664237 585.440729,290.664237 Z M573.656376,313.812364 C573.486045,313.812364 573.315714,313.773222 573.155706,313.694938 C572.630949,313.43236 572.427929,312.815874 572.704932,312.316813 C574.724815,308.678236 576.687921,305.000517 578.539194,301.386403 C578.798992,300.880819 579.439023,300.6688 579.975823,300.915068 C580.510903,301.161337 580.731129,301.769669 580.473052,302.276884 C578.613176,305.910569 576.639747,309.607859 574.60954,313.267638 C574.416843,313.613392 574.043491,313.812364 573.656376,313.812364 Z M562.630529,334.724533 C562.456377,334.724533 562.279059,334.675888 562.119156,334.57189 C561.650529,334.274991 561.501708,333.629193 561.783518,333.134361 C563.848009,329.516219 565.868171,325.857819 567.790174,322.25645 C568.059318,321.753231 568.6641,321.575427 569.137476,321.860585 C569.614019,322.145742 569.781838,322.78483 569.512695,323.289726 C567.582775,326.906191 565.551531,330.58472 563.47754,334.217959 C563.290723,334.545051 562.966167,334.724533 562.630529,334.724533 Z M548.556059,355.833835 C548.354634,355.833835 548.14988,355.773398 547.97176,355.647345 C547.495665,355.312354 547.37248,354.640645 547.69709,354.146792 C550.045937,350.56895 552.368149,346.930671 554.602134,343.328654 C554.910098,342.829621 555.554324,342.68112 556.037078,343.007477 C556.521497,343.326927 556.661329,343.996909 556.350036,344.497669 C554.109392,348.1135 551.777192,351.770773 549.416693,355.364157 C549.215268,355.669793 548.888993,355.833835 548.556059,355.833835 Z M533.766078,375.314132 C533.560239,375.314132 533.351257,375.245139 533.173701,375.105512 C532.740025,374.762194 532.655175,374.116623 532.983575,373.666531 C535.356224,370.400897 537.719446,367.0597 540.004102,363.7415 C540.321503,363.281552 540.934306,363.176421 541.375839,363.506598 C541.815801,363.840061 541.914792,364.480703 541.598962,364.940651 C539.303307,368.275278 536.932229,371.627973 534.550152,374.908391 C534.355312,375.172862 534.063052,375.314132 533.766078,375.314132 Z M517.459879,396.401382 C517.224037,396.401382 516.988195,396.319972 516.793875,396.152065 C516.353747,395.775544 516.297278,395.107305 516.664328,394.659552 C519.330007,391.416728 521.992364,388.097582 524.571679,384.800485 C524.930424,384.342555 525.584803,384.267929 526.031574,384.632577 C526.480006,384.998921 526.553084,385.663768 526.195999,386.121698 C523.601737,389.435756 520.931075,392.766774 518.255431,396.02147 C518.049484,396.272483 517.757173,396.401382 517.459879,396.401382 Z M501.58804,414.134694 C501.346556,414.134694 501.103483,414.039953 500.914426,413.843454 C500.510893,413.432912 500.485474,412.738147 500.857232,412.29427 C503.546922,409.080107 506.238201,405.788748 508.856399,402.506161 C509.218625,402.051757 509.846166,402.007896 510.257643,402.409666 C510.669119,402.807928 510.708837,403.502692 510.346611,403.957096 C507.718881,407.251964 505.016481,410.557359 502.31567,413.782048 C502.120258,414.015391 501.854944,414.134694 501.58804,414.134694 Z M484.82065,431.306377 C484.57489,431.306377 484.32913,431.212383 484.141376,431.024396 C483.771973,430.651454 483.776552,430.052623 484.152061,429.684229 C486.859998,427.034216 489.577094,424.31295 492.227026,421.594716 C492.594902,421.217226 493.200906,421.211162 493.576415,421.571976 C493.954976,421.937338 493.965662,422.536168 493.599312,422.912143 C490.937168,425.639473 488.209387,428.372867 485.492291,431.033492 C485.304537,431.216931 485.063356,431.306377 484.82065,431.306377 Z M465.908936,449.017637 C465.606852,449.017637 465.304768,448.907297 465.087479,448.689769 C464.677633,448.284664 464.716498,447.663607 465.168741,447.299485 C468.438672,444.678123 471.728034,441.982674 474.941434,439.284074 C475.384845,438.913647 476.084408,438.930986 476.503087,439.326633 C476.921765,439.723857 476.8988,440.34649 476.457156,440.721646 C473.227857,443.428128 469.927894,446.136187 466.645598,448.765431 C466.433609,448.934093 466.170389,449.017637 465.908936,449.017637 Z M447.37123,465.830102 C447.061927,465.830102 446.754333,465.70186 446.542435,465.453597 C446.168195,465.012971 446.236549,464.365185 446.692814,464.006765 C449.973817,461.425485 453.287287,458.757066 456.539239,456.075494 C456.98696,455.707209 457.660249,455.759821 458.043032,456.190583 C458.427525,456.6197 458.376259,457.26913 457.92683,457.639059 C454.664625,460.328852 451.340901,463.007135 448.044519,465.596636 C447.848,465.752828 447.607052,465.830102 447.37123,465.830102 Z M426.840934,480.333954 C426.524301,480.333954 426.210983,480.199183 426.008736,479.943583 C425.667236,479.514484 425.761729,478.90724 426.22093,478.588127 C429.533146,476.289273 432.866914,473.917612 436.129398,471.539754 C436.581968,471.209797 437.23347,471.284154 437.583259,471.708605 C437.936363,472.128409 437.85679,472.738752 437.40422,473.06716 C434.128474,475.454312 430.781444,477.835267 427.457623,480.143416 C427.271953,480.271991 427.054786,480.333954 426.840934,480.333954 Z M407.466652,495.129646 C407.115618,495.129646 406.77157,494.973318 406.560251,494.68183 C406.223189,494.214472 406.355918,493.581016 406.855399,493.268358 C410.484495,490.986937 414.118829,488.650149 417.650124,486.316618 C418.14262,485.992561 418.82373,486.100037 419.173017,486.559253 C419.522304,487.018468 419.403547,487.651925 418.912798,487.979238 C415.364039,490.319283 411.720972,492.665841 408.076158,494.955405 C407.88929,495.072652 407.676224,495.129646 407.466652,495.129646 Z M384.946725,508.324884 C384.587508,508.324884 384.236804,508.142556 384.037617,507.810582 C383.731176,507.30144 383.891206,506.640932 384.393429,506.331318 C388.019647,504.103822 391.671402,501.804083 395.244844,499.495743 C395.740257,499.17409 396.397402,499.320296 396.714058,499.819117 C397.030714,500.319659 396.886005,500.985328 396.392295,501.305262 C392.805233,503.623922 389.139859,505.935701 385.500021,508.170078 C385.326371,508.275002 385.135697,508.324884 384.946725,508.324884 Z M364.446569,520.592777 C364.078995,520.592777 363.723063,520.401285 363.533454,520.063741 C363.259021,519.57203 363.445303,518.955363 363.949263,518.687599 C367.571785,516.762947 371.239215,514.758778 374.848431,512.728644 C375.345738,512.447898 375.981093,512.61667 376.267169,513.10189 C376.554909,513.58711 376.383596,514.207023 375.884626,514.484523 C372.262103,516.522772 368.581368,518.536678 364.943876,520.469443 C364.785869,520.55383 364.614556,520.592777 364.446569,520.592777 Z M342.83254,533.349644 C342.454647,533.349644 342.093044,533.126097 341.915499,532.739655 C341.671173,532.202449 341.881294,531.554336 342.387865,531.292665 C346.033221,529.408979 349.714412,527.45251 353.328821,525.471779 C353.827248,525.194512 354.441323,525.405928 354.700309,525.937936 C354.957667,526.469943 354.762205,527.121521 354.26215,527.397056 C350.631453,529.386451 346.935602,531.351584 343.275586,533.242203 C343.132247,533.314985 342.980764,533.349644 342.83254,533.349644 Z M319.90478,542.410128 C319.51632,542.410128 319.148643,542.211677 318.985586,541.880458 C318.769775,541.437435 319.004769,540.923137 319.511525,540.734468 C323.159526,539.367667 326.852289,537.94077 330.492297,536.48732 C330.992659,536.290266 331.585739,536.483128 331.815937,536.921958 C332.042938,537.35939 331.82393,537.87788 331.320371,538.07773 C327.669172,539.535372 323.960424,540.970654 320.298035,542.340251 C320.170147,542.387768 320.035865,542.410128 319.90478,542.410128 Z M296.566777,551.352633 C296.138484,551.352633 295.73389,551.11804 295.574762,550.736637 C295.371619,550.247774 295.649248,549.704426 296.197734,549.521292 C300.137015,548.206055 304.127082,546.825738 308.056206,545.421205 C308.597921,545.225963 309.214122,545.46207 309.4325,545.946392 C309.649186,546.432227 309.3851,546.983143 308.843386,547.178385 C304.899026,548.588972 300.89203,549.97383 296.937513,551.292093 C296.813934,551.332958 296.690355,551.352633 296.566777,551.352633 Z M272.766841,559.61553 C272.322921,559.61553 271.914046,559.33609 271.773861,558.896262 C271.59696,558.352264 271.899027,557.77189 272.448086,557.598274 C276.418337,556.339969 280.416958,555.018831 284.338812,553.672891 C284.881196,553.486047 285.475315,553.770447 285.665566,554.311138 C285.854149,554.850175 285.565434,555.440471 285.021381,555.625662 C281.084508,556.978215 277.069198,558.301006 273.083927,559.565925 C272.978788,559.598995 272.87198,559.61553 272.766841,559.61553 Z M248.748984,566.929029 C248.295647,566.929029 247.878578,566.65071 247.754941,566.226387 C247.606576,565.719937 247.932978,565.198278 248.481928,565.0614 C252.471289,564.072834 256.480432,563.031037 260.398908,561.969469 C260.947858,561.817382 261.518237,562.107868 261.676493,562.612797 C261.838046,563.116206 261.52648,563.643948 260.980827,563.791472 C257.045866,564.859124 253.021887,565.905483 249.017689,566.897091 C248.927022,566.919904 248.838003,566.929029 248.748984,566.929029 Z M224.973803,572.955967 C224.505541,572.955967 224.084596,572.618335 223.980175,572.122915 C223.859439,571.551146 224.206964,570.984467 224.758435,570.860612 C228.750895,569.947818 232.767827,568.982428 236.695024,567.986498 C237.238338,567.847373 237.793072,568.196882 237.926861,568.766954 C238.06065,569.33533 237.724546,569.910492 237.177969,570.04792 C233.234457,571.047243 229.20284,572.017723 225.194065,572.930517 C225.119013,572.945787 225.047224,572.955967 224.973803,572.955967 Z M200.984276,578.033507 C200.500452,578.033507 200.073264,577.701706 199.989121,577.234727 C199.893651,576.712448 200.264204,576.214746 200.814371,576.127188 C204.793373,575.480483 208.816064,574.783086 212.769176,574.051895 C213.31287,573.948976 213.848474,574.288457 213.955271,574.810736 C214.062068,575.33148 213.704459,575.835326 213.155911,575.938245 C209.186618,576.670972 205.149363,577.369905 201.155798,578.018146 C201.097545,578.027362 201.040911,578.033507 200.984276,578.033507 Z M175.899457,581.364062 C175.399319,581.364062 174.966724,580.953443 174.904006,580.394151 C174.834855,579.788842 175.227246,579.23486 175.777237,579.160524 C179.733313,578.620702 183.760149,578.020702 187.743563,577.374685 C188.30642,577.291499 188.80495,577.705658 188.885358,578.309197 C188.965766,578.912737 188.58624,579.475568 188.036249,579.564064 C184.03836,580.211851 179.997052,580.81539 176.024894,581.355213 C175.981474,581.362292 175.94127,581.364062 175.899457,581.364062 Z M151.496487,583.306849 C150.980929,583.306849 150.542223,582.918491 150.500594,582.408479 C150.458965,581.870393 150.868851,581.400932 151.421235,581.358821 C155.417615,581.053126 159.446018,580.70064 163.395966,580.310723 C163.959558,580.263933 164.43669,580.646052 164.492729,581.184138 C164.547167,581.717545 164.146889,582.196364 163.597706,582.250952 C159.633348,582.64243 155.590536,582.996475 151.576543,583.30373 C151.550925,583.305289 151.525307,583.306849 151.496487,583.306849 Z M125.976719,585.73861 C125.443382,585.73861 125.001064,585.239292 124.981902,584.600541 C124.96274,583.950486 125.393881,583.405946 125.944782,583.38522 C129.944807,583.221293 133.97517,583.002723 137.92729,582.740816 C138.474998,582.701248 138.949252,583.198682 138.979592,583.848738 C139.011528,584.496909 138.588372,585.052754 138.039067,585.092323 C134.074173,585.356114 130.027841,585.574683 126.013445,585.736726 C126.002268,585.73861 125.989493,585.73861 125.976719,585.73861 Z M87.4550015,584.793049 C87.4438284,584.793049 87.4358477,584.793049 87.4246747,584.793049 C83.4422913,584.649738 79.3960621,584.456075 75.4009095,584.213996 C74.8502393,584.18301 74.4256646,583.615576 74.4543952,582.945501 C74.4815297,582.2793 74.9507965,581.740916 75.4998706,581.797078 C79.482254,582.037221 83.515714,582.232821 87.4837321,582.370321 C88.0344023,582.391624 88.4685539,582.949375 88.4525925,583.617513 C88.436631,584.274031 87.9929025,584.793049 87.4550015,584.793049 Z M105.342467,585.931271 C103.73145,585.942968 102.101293,585.919574 100.475921,585.900858 C99.9240282,585.89384 99.482195,585.23411 99.4869802,584.426993 C99.4917654,583.624555 99.9367887,582.976522 100.483896,582.976522 C100.487086,582.976522 100.488682,582.976522 100.491872,582.976522 C102.112459,582.997578 103.733045,582.995238 105.342467,583.006936 C107.728685,583.006936 110.106929,582.981201 112.477196,582.934412 C112.480387,582.934412 112.485172,582.934412 112.489957,582.934412 C113.033874,582.934412 113.478898,583.580105 113.486873,584.377864 C113.493253,585.184981 113.053015,585.84705 112.501122,585.858748 C110.124474,585.905537 107.738256,585.931271 105.342467,585.931271 Z" id="Tracejos" fill="#FFFDF3" transform="translate(403.447022, 340.140017) rotate(26.000000) translate(-403.447022, -340.140017) "></path>
        <g id="Planes" transform="translate(269.553429, 336.765885) rotate(23.000000) translate(-269.553429, -336.765885) translate(-9.946571, 133.765885)">
            <g id="Group" transform="translate(260.936022, 0.000000)">
                <polyline id="Fill-5" fill="#FFFFFE" points="26.524125 15.494625 0.7515 0.4365 125.890875 6.487875 26.524125 15.494625"></polyline>
                <polyline id="Fill-6" fill="#F7F0D7" points="26.524125 15.494625 23.221125 40.789125 34.875 26.35425 125.890875 6.487875 26.524125 15.494625"></polyline>
                <polyline id="Fill-7" fill="#D9D4BF" points="23.221125 40.789125 39.98475 35.6175 34.875 26.35425 23.221125 40.789125"></polyline>
                <polyline id="Fill-8" fill="#FFFFFE" points="34.875 26.35425 41.835375 62.011125 125.890875 6.487875 34.875 26.35425"></polyline>
            </g>
            <g id="Group-5" transform="translate(345.000000, 31.000000)">
                <polyline id="Fill-9" fill="#FFFFFE" points="30.2982653 59.9665422 0.529795918 60.8069036 109.703673 0.0330843373 30.2982653 59.9665422"></polyline>
                <polyline id="Fill-10" fill="#F7F0D7" points="30.2982653 59.9665422 40.842551 83.0921687 43.0997959 64.753241 109.703673 0.0330843373 30.2982653 59.9665422"></polyline>
                <polyline id="Fill-11" fill="#D9D4BF" points="40.842551 83.0921687 52.3117347 69.8917711 43.0997959 64.753241 40.842551 83.0921687"></polyline>
                <polyline id="Fill-12" fill="#FFFFFE" points="43.0997959 64.753241 67.8026531 91.2324699 109.703673 0.0330843373 43.0997959 64.753241"></polyline>
            </g>
            <g id="Group-8" transform="translate(388.479495, 180.875038) rotate(37.000000) translate(-388.479495, -180.875038) translate(348.479495, 134.375038)">
                <polyline id="Fill-13" fill="#FFFFFE" points="30.0676056 70.0839036 0.803380282 76.1681205 76.6230986 0.367518072 30.0676056 70.0839036"></polyline>
                <polyline id="Fill-14" fill="#F7F0D7" points="30.0676056 70.0839036 39.5369014 92.4756145 43.5661972 72.5310361 76.6230986 0.367518072 30.0676056 70.0839036"></polyline>
                <polyline id="Fill-15" fill="#D9D4BF" points="39.5369014 92.4756145 53.5830986 75.9630723 43.5661972 72.5310361 39.5369014 92.4756145"></polyline>
                <polyline id="Fill-16" fill="#FFFFFE" points="43.5661972 72.5310361 79.2687324 90.8497952 76.6230986 0.367518072 43.5661972 72.5310361"></polyline>
            </g>
            <g id="Group-2" transform="translate(173.000000, 21.000000)">
                <polyline id="Fill-17" fill="#FFFFFE" points="14.8678768 9.15387536 0.955744681 0.153875363 60.9557447 0.317332963 14.8678768 9.15387536"></polyline>
                <polyline id="Fill-18" fill="#F7F0D7" points="15.1486751 9.70749969 9.96235099 21.9318175 19.4442542 15.843154 60.962351 0.931817498 15.1486751 9.70749969"></polyline>
                <polyline id="Fill-19" fill="#D9D4BF" points="9.47613108 22.3722843 21.4761311 21.4684054 18.9355709 16.3722843 9.47613108 22.3722843"></polyline>
                <polyline id="Fill-20" fill="#FFFFFE" points="19.1643229 15.7168654 25.9056959 36.6700121 61.1643229 0.67001206 19.1643229 15.7168654"></polyline>
            </g>
            <g id="Group-9" transform="translate(173.000000, 184.000000)">
                <polyline id="Fill-21" fill="#FFFFFE" points="33.0579719 50.7493023 0.977678706 43.9379773 110.977679 1.74930232 33.0579719 50.7493023"></polyline>
                <polyline id="Fill-22" fill="#F7F0D7" points="33.5418992 49.7864901 33.020522 76.450826 45.9172303 58.2215035 111.020522 0.450825969 33.5418992 49.7864901"></polyline>
                <polyline id="Fill-23" fill="#D9D4BF" points="33.253288 76.8313209 54.253288 66.6124128 45.9323508 58.8313209 33.253288 76.8313209"></polyline>
                <polyline id="Fill-24" fill="#FFFFFE" points="45.7290954 58.4711575 73.1426833 92.6790467 110.729095 0.679046682 45.7290954 58.4711575"></polyline>
            </g>
            <g id="Group-10" transform="translate(261.975219, 248.076987)">
                <polyline id="Fill-26" fill="#F7F0D7" points="29.7387108 57.117375 33.2547831 81.252 42.1200361 62.870625 92.0016506 0.977625 29.7387108 57.117375"></polyline>
                <polyline id="Fill-25" fill="#FFFFFE" points="29.7387108 57.117375 0.0403373494 55.7235 92.0016506 0.977625 29.7387108 57.117375"></polyline>
                <polyline id="Fill-27" fill="#D9D4BF" points="33.2547831 81.252 50.9068554 68.70825 42.1200361 62.870625 33.2547831 81.252"></polyline>
                <polyline id="Fill-29" fill="#FFFFFE" points="42.1200361 62.870625 71.9136506 89.59725 92.0016506 0.977625 42.1200361 62.870625"></polyline>
            </g>
            <g id="Group-12" transform="translate(98.602524, 299.046344)">
                <polyline id="Fill-30" fill="#FFFFFE" points="35.2420595 66.4932016 0.0402415877 64.8531871 109.040242 0.493201557 35.2420595 66.4932016"></polyline>
                <polyline id="Fill-31" fill="#F7F0D7" points="35.2155307 67.1998965 39.3944106 95.7608742 49.9321662 74.0072935 109.215531 0.760874204 35.2155307 67.1998965"></polyline>
                <polyline id="Fill-32" fill="#D9D4BF" points="39.5310259 95.293467 60.5310259 80.2816548 50.0790137 73.293467 39.5310259 95.293467"></polyline>
                <polyline id="Fill-33" fill="#FFFFFE" points="50.7087908 73.650078 85.9468347 105.015639 109.708791 1.0156394 50.7087908 73.650078"></polyline>
            </g>
            <g id="Group-11" transform="translate(149.837653, 131.000000)">
                <polyline id="Fill-34" fill="#FFFFFE" points="14.1723121 9.91294903 0.0278200077 0.912949031 61.02782 1.07640663 14.1723121 9.91294903"></polyline>
                <polyline id="Fill-35" fill="#F7F0D7" points="14.12765 9.92421056 8.83906075 22.7306387 18.5067651 16.3520389 60.8390608 0.73063874 14.12765 9.92421056"></polyline>
                <polyline id="Fill-36" fill="#D9D4BF" points="9.1177277 22.0154876 21.1177277 21.1116087 18.5771675 16.0154876 9.1177277 22.0154876"></polyline>
                <polyline id="Fill-38" fill="#FFFFFE" points="18.0807802 16.1290204 24.8226841 37.6641989 60.0807802 0.664198865 18.0807802 16.1290204"></polyline>
            </g>
            <g id="Group-3" transform="translate(77.000000, 301.000000) rotate(-23.000000) translate(-77.000000, -301.000000) translate(42.000000, 280.000000)">
                <polyline id="Fill-39" fill="#FFFFFE" points="11.9982411 13.0394026 0.0539788171 0.342424544 69.0539788 24.3424245 11.9982411 13.0394026"></polyline>
                <polyline id="Fill-40" fill="#F7F0D7" points="11.2504622 13.0971945 5.25932299 27.0971945 14.137924 20.7577883 68.259323 24.6855886 11.2504622 13.0971945"></polyline>
                <polyline id="Fill-41" fill="#D9D4BF" points="5.55133133 26.6173043 15.5513313 26.4787199 14.2423267 20.6173043 5.55133133 26.6173043"></polyline>
                <polyline id="Fill-42" fill="#FFFFFE" points="13.8188945 20.5737314 11.8322261 41.5737314 68.8322261 24.3754668 13.8188945 20.5737314"></polyline>
            </g>
            <g id="Group-7" transform="translate(513.194461, 207.530152) scale(1, -1) rotate(141.000000) translate(-513.194461, -207.530152) translate(489.194461, 165.530152)">
                <polyline id="Fill-43" fill="#FFFFFE" points="33.3516294 68.124886 47.0742853 83.0375751 25.0742853 1.03757511 33.3516294 68.124886"></polyline>
                <polyline id="Fill-44" fill="#F7F0D7" points="33.3890319 68.0274212 17.3890319 73.8391329 25.1476259 64.0436374 25.2917621 0.839132879 33.3890319 68.0274212"></polyline>
                <polyline id="Fill-45" fill="#D9D4BF" points="17.0153292 73.9842096 18.058411 61.9842096 25.0153292 64.0718795 17.0153292 73.9842096"></polyline>
                <polyline id="Fill-46" fill="#FFFFFE" points="25.6749309 64.7361439 0.823021207 65.2267873 25.8230212 1.22678734 25.6749309 64.7361439"></polyline>
            </g>
            <g id="Group-13" transform="translate(93.768220, 227.965463) scale(1, -1) rotate(102.000000) translate(-93.768220, -227.965463) translate(61.768220, 165.465463)">
                <polyline id="Fill-48" fill="#FFFFFE" points="47.4924912 99.64925 63.4689123 124.841375 52.7842807 0.013625 47.4924912 99.64925"></polyline>
                <polyline id="Fill-49" fill="#F7F0D7" points="47.4924912 99.64925 22.3865263 103.889375 36.3508772 91.70675 52.7842807 0.013625 47.4924912 99.64925"></polyline>
                <polyline id="Fill-50" fill="#FFFFFE" points="36.3508772 91.70675 0.528842105 86.078375 52.7842807 0.013625 36.3508772 91.70675"></polyline>
            </g>
            <g id="Group-4" transform="translate(272.701462, 111.559384) rotate(31.000000) translate(-272.701462, -111.559384) translate(230.701462, 75.559384)">
                <polyline id="Fill-54" fill="#FFFFFE" points="24.8731153 39.9817523 0.33945381 35.2864899 83.3394538 0.981752345 24.8731153 39.9817523"></polyline>
                <polyline id="Fill-55" fill="#F7F0D7" points="24.2532236 39.8874141 24.3083291 60.1337024 33.9575022 46.079902 83.2532236 1.13370239 24.2532236 39.8874141"></polyline>
                <polyline id="Fill-56" fill="#D9D4BF" points="24.4029744 60.2758502 40.4029744 52.0920506 33.861965 46.2758502 24.4029744 60.2758502"></polyline>
                <polyline id="Fill-57" fill="#FFFFFE" points="34.0247168 46.4239041 55.6910558 71.7560265 83.0247168 1.75602654 34.0247168 46.4239041"></polyline>
            </g>
            <g id="Group-14" transform="translate(73.861792, 83.498371) scale(1, -1) rotate(94.000000) translate(-73.861792, -83.498371) translate(18.361792, 13.998371)">
                <polyline id="Fill-59" fill="#FFFFFE" points="75.9753719 115.194069 110.936517 138.136063 51.9365171 1.13606317 75.9753719 115.194069"></polyline>
                <polyline id="Fill-60" fill="#F7F0D7" points="76.0448358 114.432558 52.0448358 138.464541 57.2579828 110.643858 52.1377309 0.464540784 76.0448358 114.432558"></polyline>
                <polyline id="Fill-61" fill="#FFFFFE" points="56.7350804 111.075579 0.735080351 116.364038 51.6047313 0.364037644 56.7350804 111.075579"></polyline>
            </g>
            <g id="Group-6" transform="translate(491.000000, 90.500000) rotate(22.000000) translate(-491.000000, -90.500000) translate(456.000000, 41.000000)">
                <polyline id="Fill-63" fill="#FFFFFE" points="24.9380645 84.2067416 0.407580645 97.7202247 65.3709677 0.0595505618 24.9380645 84.2067416"></polyline>
                <polyline id="Fill-64" fill="#F7F0D7" points="24.9380645 84.2067416 43.7737097 98.9460674 37.7164516 82.6842697 65.3709677 0.0595505618 24.9380645 84.2067416"></polyline>
                <polyline id="Fill-65" fill="#D9D4BF" points="43.7737097 98.9460674 47.6474194 83.005618 37.7164516 82.6842697 43.7737097 98.9460674"></polyline>
                <polyline id="Fill-66" fill="#FFFFFE" points="37.7164516 82.6842697 69.8475806 94.1292135 65.3709677 0.0595505618 37.7164516 82.6842697"></polyline>
            </g>
        </g>
        <g id="Pink-plane" transform="translate(846.378601, 237.685492) rotate(20.498350) translate(-846.378601, -237.685492) translate(795.878601, 191.777309)">
            <polyline id="Fill-67" fill="#FF5FAF" points="31.165 55.2165669 0.638 48.6117764 100.934 0.844311377 31.165 55.2165669"></polyline>
            <polyline id="Fill-68" fill="#EE45A8" points="31.165 55.2165669 32.979 80.6287425 42.996 63.2954092 100.934 0.844311377 31.165 55.2165669"></polyline>
            <polyline id="Fill-69" fill="#CE40A7" points="32.979 80.6287425 51.085 70.8363273 42.996 63.2954092 32.979 80.6287425"></polyline>
            <polyline id="Fill-70" fill="#F857A4" points="42.996 63.2954092 65.667 91.5728543 100.934 0.844311377 42.996 63.2954092"></polyline>
        </g>
    </g>
</svg>
