<?xml version="1.0" encoding="utf-8"?>
<!-- Generator: Adobe Illustrator 23.0.1, SVG Export Plug-In . SVG Version: 6.00 Build 0)  -->
<svg version="1.1" id="Layer_1" xmlns="http://www.w3.org/2000/svg" xmlns:xlink="http://www.w3.org/1999/xlink" x="0px" y="0px"
	 viewBox="0 0 1000 1000" style="enable-background:new 0 0 1000 1000;" xml:space="preserve">
<path style="fill:#FFFFFF;" d="M735.52,0H264.48C119.02,0,0,119.02,0,264.48v471.03C0,880.98,119.02,1000,264.48,1000h471.03
	C880.98,1000,1000,880.98,1000,735.52V264.48C1000,119.02,880.98,0,735.52,0z"/>
<g>
	
		<linearGradient id="SVGID_1_" gradientUnits="userSpaceOnUse" x1="500.0041" y1="112.0727" x2="500.0041" y2="631.9119" gradientTransform="matrix(1 0 0 -1 0 1000)">
		<stop  offset="0" style="stop-color:#94C1FF"/>
		<stop  offset="0.5" style="stop-color:#1E88E5"/>
		<stop  offset="1" style="stop-color:#116FFF"/>
	</linearGradient>
	<path style="fill:url(#SVGID_1_);" d="M509.23,361.97h-18.45c-56.06,0-101.5,45.45-101.5,101.5v327.47
		c0,56.06,45.45,101.5,101.5,101.5h18.45c56.06,0,101.5-45.45,101.5-101.5V463.47C610.73,407.41,565.29,361.97,509.23,361.97z
		 M541.52,773c0,22.84-18.69,41.52-41.52,41.52l0,0c-22.84,0-41.52-18.69-41.52-41.52V481.42c0-22.84,18.69-41.52,41.52-41.52l0,0
		c22.84,0,41.52,18.69,41.52,41.52V773z"/>
	
		<linearGradient id="SVGID_2_" gradientUnits="userSpaceOnUse" x1="499.9971" y1="894.7734" x2="499.9971" y2="657.3241" gradientTransform="matrix(1 0 0 -1 0 1000)">
		<stop  offset="0" style="stop-color:#94C1FF"/>
		<stop  offset="0.5" style="stop-color:#1E88E5"/>
		<stop  offset="1" style="stop-color:#116FFF"/>
	</linearGradient>
	<path style="fill:url(#SVGID_2_);" d="M518.75,109.09c-75.78-12.43-140.37,52.16-127.94,127.94c7.53,45.89,44.54,82.9,90.43,90.44
		c75.78,12.43,140.38-52.16,127.94-127.95C601.66,153.63,564.64,116.62,518.75,109.09z M529.36,247.64
		c-16.22,16.22-42.51,16.22-58.73,0s-16.22-42.51,0-58.73s42.51-16.22,58.73,0S545.58,231.42,529.36,247.64z"/>
	
		<linearGradient id="SVGID_3_" gradientUnits="userSpaceOnUse" x1="476.8498" y1="112.0727" x2="476.8498" y2="631.9119" gradientTransform="matrix(1 0 0 -1 0 1000)">
		<stop  offset="0" style="stop-color:#116FFF"/>
		<stop  offset="0.5" style="stop-color:#1E88E5"/>
		<stop  offset="1" style="stop-color:#94C1FF"/>
	</linearGradient>
	<path style="fill:url(#SVGID_3_);" d="M500,814.52L500,814.52c-22.84,0-41.52-18.69-41.52-41.52V481.42l0,0
		c0-1.03,0.93-8.11,1.73-11.8c2.13-9.78,6.4-24.41,14.65-39.01c8.37-14.82,19.16-26.72,32.05-35.36
		c16.03-10.75,35.38-16.45,57.51-16.98c-15.89-10.31-34.83-16.3-55.18-16.3h-18.45c-56.06,0-101.5,45.45-101.5,101.5v327.47
		c0,42.18,25.73,78.34,62.34,93.67c38.8-6.37,60.26-30.21,71.71-50.48c12.21-21.61,15.66-43.28,16.4-49.09
		C534.53,802.06,518.65,814.52,500,814.52z"/>
	<g>
		
			<linearGradient id="SVGID_4_" gradientUnits="userSpaceOnUse" x1="466.1084" y1="891.4629" x2="466.1084" y2="670.7528" gradientTransform="matrix(1 0 0 -1 0 1000)">
			<stop  offset="0" style="stop-color:#94C1FF"/>
			<stop  offset="0.5" style="stop-color:#1E88E5"/>
			<stop  offset="1" style="stop-color:#116FFF"/>
		</linearGradient>
		<path style="fill:url(#SVGID_4_);" d="M529.59,247.39c-0.08,0.08-0.14,0.17-0.23,0.25c-21.55,21.55-60.88,14.47-70.73-21.25
			c-3.73-13.52,1.46-27.95,11.86-37.35l0.34-0.31c2.52-15.15,7.85-28.38,15.9-39.32c6.66-9.05,15.18-16.56,25.32-22.34
			c13.12-7.47,25.6-10.05,30.9-10.87c-44.78-18.82-99.41-6.92-131.69,35.78c-29.2,38.62-29.34,93.35-0.33,132.13
			c12.8,17.11,29.18,29.32,47.09,36.64c5.59-0.91,17.61-3.56,30.24-10.76C504.08,300.99,524.05,282.81,529.59,247.39z"/>
		
			<linearGradient id="SVGID_5_" gradientUnits="userSpaceOnUse" x1="534.5185" y1="891.4629" x2="534.5185" y2="670.7528" gradientTransform="matrix(1 0 0 -1 0 1000)">
			<stop  offset="0" style="stop-color:#116FFF"/>
			<stop  offset="0.5" style="stop-color:#1E88E5"/>
			<stop  offset="1" style="stop-color:#94C1FF"/>
		</linearGradient>
		<path style="fill:url(#SVGID_5_);" d="M589.67,153.25c-12.57-17.15-28.73-29.4-46.41-36.91c-5.11,0.76-17.78,3.3-31.13,10.9
			c-15.63,8.9-35.3,26.76-41.1,61.32c16.24-15.85,42.25-15.75,58.34,0.35c16.06,16.06,16.19,41.98,0.44,58.23
			c-2.42,15.72-7.85,29.41-16.15,40.67c-6.66,9.05-15.18,16.56-25.32,22.34c-12.46,7.1-24.32,9.78-30.03,10.74
			c44.55,18.08,98.49,5.96,130.46-36.36C617.73,246.2,618.07,192,589.67,153.25z"/>
	</g>
	<g>
		
			<linearGradient id="SVGID_6_" gradientUnits="userSpaceOnUse" x1="429.4" y1="854.2176" x2="563.0547" y2="700.6318" gradientTransform="matrix(1 0 0 -1 0 1000)">
			<stop  offset="0" style="stop-color:#94C1FF"/>
			<stop  offset="0.5" style="stop-color:#1E88E5"/>
			<stop  offset="1" style="stop-color:#116FFF"/>
		</linearGradient>
		<path style="fill:url(#SVGID_6_);" d="M529.59,247.39c-0.08,0.08-0.14,0.17-0.23,0.25c-21.55,21.55-60.88,14.47-70.73-21.25
			c-3.73-13.52,1.46-27.95,11.86-37.35l0.34-0.31c2.52-15.15,7.85-28.38,15.9-39.32c6.66-9.05,15.18-16.56,25.32-22.34
			c13.12-7.47,25.6-10.05,30.9-10.87c-44.78-18.82-99.41-6.92-131.69,35.78c-29.2,38.62-29.34,93.35-0.33,132.13
			c12.8,17.11,29.18,29.32,47.09,36.64c5.59-0.91,17.61-3.56,30.24-10.76C504.08,300.99,524.05,282.81,529.59,247.39z"/>
		
			<linearGradient id="SVGID_7_" gradientUnits="userSpaceOnUse" x1="540.972" y1="693.688" x2="355.4127" y2="999.8609" gradientTransform="matrix(1 0 0 -1 0 1000)">
			<stop  offset="0" style="stop-color:#000000;stop-opacity:0.5"/>
			<stop  offset="0.3293" style="stop-color:#FFFFFF;stop-opacity:0"/>
		</linearGradient>
		<path style="fill:url(#SVGID_7_);" d="M529.59,247.39c-0.08,0.08-0.14,0.17-0.23,0.25c-21.55,21.55-60.88,14.47-70.73-21.25
			c-3.73-13.52,1.46-27.95,11.86-37.35l0.34-0.31c2.52-15.15,7.85-28.38,15.9-39.32c6.66-9.05,15.18-16.56,25.32-22.34
			c13.12-7.47,25.6-10.05,30.9-10.87c-44.78-18.82-99.41-6.92-131.69,35.78c-29.2,38.62-29.34,93.35-0.33,132.13
			c12.8,17.11,29.18,29.32,47.09,36.64c5.59-0.91,17.61-3.56,30.24-10.76C504.08,300.99,524.05,282.81,529.59,247.39z"/>
		
			<linearGradient id="SVGID_8_" gradientUnits="userSpaceOnUse" x1="440.0361" y1="859.71" x2="642.1791" y2="627.4229" gradientTransform="matrix(1 0 0 -1 0 1000)">
			<stop  offset="0" style="stop-color:#000000;stop-opacity:0.5"/>
			<stop  offset="0.3293" style="stop-color:#FFFFFF;stop-opacity:0"/>
		</linearGradient>
		<path style="fill:url(#SVGID_8_);" d="M589.67,153.25c-12.57-17.15-28.73-29.4-46.41-36.91c-5.11,0.76-17.78,3.3-31.13,10.9
			c-15.63,8.9-35.3,26.76-41.1,61.32c16.24-15.85,42.25-15.75,58.34,0.35c16.06,16.06,16.19,41.98,0.44,58.23
			c-2.42,15.72-7.85,29.41-16.15,40.67c-6.66,9.05-15.18,16.56-25.32,22.34c-12.46,7.1-24.32,9.78-30.03,10.74
			c44.55,18.08,98.49,5.96,130.46-36.36C617.73,246.2,618.07,192,589.67,153.25z"/>
	</g>
</g>
</svg>
