<?xml version="1.0" encoding="utf-8"?>
<!-- Generator: Adobe Illustrator 23.0.1, SVG Export Plug-In . SVG Version: 6.00 Build 0)  -->
<svg version="1.1" id="Layer_1" xmlns="http://www.w3.org/2000/svg" xmlns:xlink="http://www.w3.org/1999/xlink" x="0px" y="0px"
	 viewBox="0 0 1000 1000" style="enable-background:new 0 0 1000 1000;" xml:space="preserve">
<g>
	<g>
		<g>
			<g>
				<path style="fill:#212121;" d="M9.53,674.16L9.53,674.16c4.23,0,7.65,3.43,7.65,7.65v66.56c0,4.23-3.43,7.65-7.65,7.65h0
					c-4.23,0-7.65-3.43-7.65-7.65v-66.56C1.88,677.58,5.3,674.16,9.53,674.16z"/>
				<path style="fill:#212121;" d="M45.75,674.16L45.75,674.16c3.05,0,5.76,1.93,6.76,4.82l1.4,4.06c3.98-2.96,8.49-5.41,13.54-7.34
					c5.05-1.94,10.13-2.91,15.23-2.91c8.67,0,15.04,2.63,19.13,7.88c4.08,5.25,6.12,12.01,6.12,20.27v47.44
					c0,4.23-3.43,7.65-7.65,7.65h0c-4.23,0-7.65-3.43-7.65-7.65v-45.6c0-4.89-1.38-8.8-4.13-11.7c-2.75-2.91-6.53-4.36-11.32-4.36
					c-4.28,0-8.19,0.61-11.71,1.84c-3.52,1.23-7.37,3.06-11.55,5.51v54.32c0,4.23-3.43,7.65-7.65,7.65h0
					c-4.23,0-7.65-3.43-7.65-7.65V681.3C38.6,677.36,41.8,674.16,45.75,674.16z"/>
				<path style="fill:#212121;" d="M133.32,747.07c-4.8-6.58-7.19-17-7.19-31.29c0-10.3,1-18.54,2.98-24.71
					c1.99-6.17,5.23-10.71,9.72-13.62c4.49-2.91,10.56-4.36,18.21-4.36c7.04,0,15,1.48,23.87,4.44v-30.6c0-4.23,3.43-7.65,7.65-7.65
					h0c4.23,0,7.65,3.43,7.65,7.65v101.79c0,4.04-3.27,7.31-7.31,7.31l0,0c-3.13,0-5.91-1.99-6.92-4.96l-1.07-3.15
					c-2.55,2.25-6.35,4.31-11.4,6.2c-5.05,1.89-9.72,2.83-14,2.83C145.51,756.94,138.11,753.65,133.32,747.07z M180.91,738.27
					v-49.73c-0.62-0.2-2.25-0.69-4.9-1.45c-2.66-0.77-5.15-1.33-7.5-1.68c-2.35-0.36-4.64-0.54-6.89-0.54c-5,0-8.93,0.9-11.78,2.68
					c-2.86,1.78-4.95,4.84-6.27,9.18c-1.33,4.34-1.99,10.43-1.99,18.29c0,7.34,0.62,13.14,1.84,17.36c1.23,4.24,3.21,7.3,5.97,9.18
					c2.75,1.89,6.43,2.83,11.02,2.83C166.73,744.39,173.56,742.35,180.91,738.27z"/>
				<path style="fill:#212121;" d="M228.57,753.12c-5.05-2.55-8.67-6.83-10.86-12.86c-2.2-6.02-3.29-14.43-3.29-25.25
					c0-11.01,1.1-19.53,3.29-25.55c2.19-6.02,5.79-10.25,10.78-12.7s11.94-3.67,20.81-3.67c7.75,0,13.93,0.82,18.52,2.45
					c4.59,1.63,7.96,4.44,10.1,8.42c2.14,3.98,3.21,9.49,3.21,16.52c0,7.25-2.09,12.47-6.27,15.69c-4.18,3.21-10.2,4.82-18.06,4.82
					h-27.08c0.1,6.23,0.79,11.04,2.07,14.47c1.27,3.41,3.59,5.89,6.96,7.42c3.37,1.53,8.21,2.3,14.54,2.3h20.64
					c2.71,0,4.91,2.2,4.91,4.91v0c0,2.46-1.83,4.54-4.27,4.87c-3.88,0.53-7.41,0.97-10.57,1.31c-4.29,0.46-9.13,0.69-14.54,0.69
					C240.58,756.94,233.62,755.67,228.57,753.12z M255.43,711.34c4.18,0,7.22-0.79,9.1-2.37c1.89-1.59,2.83-4.37,2.83-8.34
					c0-6.12-1.36-10.35-4.05-12.7c-2.71-2.35-7.37-3.52-14-3.52c-5.2,0-9.21,0.77-12.01,2.3c-2.81,1.53-4.8,4.21-5.97,8.03
					c-1.17,3.82-1.76,9.36-1.76,16.6H255.43z"/>
				<path style="fill:#212121;" d="M306.95,674.16L306.95,674.16c3.05,0,5.76,1.93,6.76,4.82l1.4,4.06
					c3.98-2.96,8.49-5.41,13.54-7.34c5.05-1.94,10.13-2.91,15.23-2.91c8.67,0,15.04,2.63,19.13,7.88
					c4.08,5.25,6.12,12.01,6.12,20.27v47.44c0,4.23-3.43,7.65-7.65,7.65l0,0c-4.23,0-7.65-3.43-7.65-7.65v-45.6
					c0-4.89-1.38-8.8-4.13-11.7c-2.75-2.91-6.53-4.36-11.32-4.36c-4.28,0-8.19,0.61-11.71,1.84c-3.52,1.23-7.37,3.06-11.55,5.51
					v54.32c0,4.23-3.43,7.65-7.65,7.65l0,0c-4.23,0-7.65-3.43-7.65-7.65V681.3C299.8,677.36,303,674.16,306.95,674.16z"/>
				<path style="fill:#212121;" d="M397.73,674.16L397.73,674.16c4.23,0,7.65,3.43,7.65,7.65v66.56c0,4.23-3.43,7.65-7.65,7.65l0,0
					c-4.23,0-7.65-3.43-7.65-7.65v-66.56C390.08,677.58,393.51,674.16,397.73,674.16z"/>
				<path style="fill:#212121;" d="M425.34,742.42l42.78-55.71h-39.56c-3.42,0-6.2-2.77-6.2-6.2v-0.16c0-3.42,2.77-6.2,6.2-6.2h48.9
					c4.73,0,8.56,3.83,8.56,8.56l0,0c0,1.89-0.63,3.73-1.78,5.23l-42.9,55.69h38.49c3.42,0,6.2,2.77,6.2,6.2l0,0
					c0,3.42-2.77,6.2-6.2,6.2h-47.78c-4.67,0-8.45-3.79-8.45-8.45l0,0C423.59,745.7,424.2,743.89,425.34,742.42z"/>
				<path style="fill:#212121;" d="M515.55,753.27c-5.2-2.45-9.06-6.71-11.55-12.78c-2.5-6.07-3.75-14.56-3.75-25.48
					c0-11.22,1.27-19.87,3.82-25.94c2.55-6.06,6.4-10.25,11.56-12.54c5.15-2.3,12.06-3.44,20.73-3.44c8.67,0,15.58,1.17,20.73,3.52
					c5.15,2.35,9,6.55,11.55,12.62c2.55,6.07,3.82,14.67,3.82,25.78c0,11.01-1.25,19.56-3.75,25.63c-2.5,6.07-6.33,10.31-11.48,12.7
					c-5.15,2.4-12.11,3.6-20.89,3.6C527.69,756.94,520.75,755.71,515.55,753.27z M548.37,742.33c2.91-1.38,5.1-4.18,6.58-8.42
					c1.48-4.23,2.22-10.58,2.22-19.05s-0.74-14.82-2.22-19.05c-1.48-4.23-3.67-7.01-6.58-8.34s-6.91-1.99-12.01-1.99
					c-5.21,0-9.21,0.67-12.01,1.99c-2.81,1.33-4.95,4.11-6.42,8.34c-1.48,4.24-2.22,10.59-2.22,19.05c0,8.57,0.74,14.97,2.22,19.2
					c1.48,4.23,3.62,7.01,6.42,8.34c2.81,1.33,6.81,1.99,12.01,1.99C541.46,744.39,545.47,743.7,548.37,742.33z"/>
				<path style="fill:#212121;" d="M597.18,750.66c-4.13-4.18-6.19-10.46-6.19-18.82v-50.04c0-4.23,3.43-7.65,7.65-7.65l0,0
					c4.23,0,7.65,3.43,7.65,7.65v45.91c0,5.82,1.32,9.87,3.98,12.17c2.65,2.3,6.68,3.44,12.09,3.44c7.55,0,15.09-2.39,22.65-7.19
					v-54.32c0-4.23,3.43-7.65,7.65-7.65l0,0c4.23,0,7.65,3.43,7.65,7.65v67.07c0,3.95-3.2,7.15-7.15,7.15l0,0
					c-3.05,0-5.76-1.94-6.76-4.82l-1.4-4.06c-10.2,6.53-20.15,9.79-29.84,9.79C607.31,756.94,601.31,754.85,597.18,750.66z"/>
				<path style="fill:#212121;" d="M719.45,747.76c-5.76-6.12-8.65-16.94-8.65-32.44c0-10.91,1.33-19.43,3.98-25.55
					c2.65-6.12,6.4-10.4,11.24-12.86c4.85-2.45,10.99-3.67,18.44-3.67c8.66,0,16.5,0.61,23.5,1.84c2.27,0.4,3.89,2.43,3.89,4.74
					v0.24c0,2.66-2.15,4.81-4.81,4.81h-18.29c-5.41,0-9.69,0.84-12.86,2.53c-3.16,1.68-5.56,4.75-7.19,9.18
					c-1.63,4.44-2.45,10.74-2.45,18.9c0,7.96,0.84,14.08,2.53,18.36c1.68,4.29,4.13,7.25,7.35,8.88c3.21,1.63,7.47,2.44,12.78,2.44
					h19.37c2.66,0,4.81,2.15,4.81,4.81l0,0c0,2.33-1.65,4.31-3.93,4.74c-2.92,0.55-6.15,1.01-9.68,1.39
					c-5.21,0.56-10.36,0.84-15.46,0.84C733.4,756.94,725.21,753.88,719.45,747.76z"/>
				<path style="fill:#212121;" d="M801.08,753.27c-5.2-2.45-9.06-6.71-11.55-12.78c-2.5-6.07-3.75-14.56-3.75-25.48
					c0-11.22,1.27-19.87,3.82-25.94c2.55-6.06,6.4-10.25,11.56-12.54c5.15-2.3,12.06-3.44,20.73-3.44c8.67,0,15.58,1.17,20.73,3.52
					c5.15,2.35,9,6.55,11.55,12.62c2.55,6.07,3.82,14.67,3.82,25.78c0,11.01-1.25,19.56-3.75,25.63c-2.5,6.07-6.33,10.31-11.48,12.7
					c-5.15,2.4-12.11,3.6-20.89,3.6C813.22,756.94,806.28,755.71,801.08,753.27z M833.9,742.33c2.91-1.38,5.1-4.18,6.58-8.42
					c1.48-4.23,2.22-10.58,2.22-19.05s-0.74-14.82-2.22-19.05c-1.48-4.23-3.67-7.01-6.58-8.34s-6.91-1.99-12.01-1.99
					c-5.21,0-9.21,0.67-12.01,1.99c-2.81,1.33-4.95,4.11-6.42,8.34c-1.48,4.24-2.22,10.59-2.22,19.05c0,8.57,0.74,14.97,2.22,19.2
					c1.48,4.23,3.62,7.01,6.42,8.34c2.81,1.33,6.81,1.99,12.01,1.99C826.99,744.39,830.99,743.7,833.9,742.33z"/>
				<path style="fill:#212121;" d="M883.81,674.16L883.81,674.16c3.05,0,5.76,1.93,6.76,4.82l1.4,4.06c4.59-3.16,9.26-5.66,14-7.5
					c4.75-1.84,9.97-2.75,15.69-2.75c4.89,0,9.13,1.07,12.7,3.21c3.57,2.14,6.38,5.05,8.42,8.72c4.08-3.16,9.05-5.94,14.92-8.34
					c5.86-2.39,11.4-3.59,16.6-3.59c8.77,0,15.25,2.58,19.43,7.73c4.18,5.15,6.28,12.12,6.28,20.89v46.98
					c0,4.23-3.43,7.65-7.65,7.65h0c-4.23,0-7.65-3.43-7.65-7.65v-45.6c0-4.89-1.4-8.8-4.21-11.7c-2.81-2.91-6.61-4.36-11.4-4.36
					c-3.88,0-7.93,0.74-12.16,2.22c-4.24,1.48-8.29,3.44-12.17,5.89c0.81,2.75,1.23,5.46,1.23,8.11v45.45
					c0,4.23-3.43,7.65-7.65,7.65h0c-4.23,0-7.65-3.43-7.65-7.65v-45.6c0-4.89-1.38-8.8-4.13-11.7c-2.75-2.91-6.53-4.36-11.32-4.36
					c-4.28,0-8.19,0.61-11.71,1.84c-3.52,1.23-7.37,3.06-11.55,5.51v54.32c0,4.23-3.43,7.65-7.65,7.65h0
					c-4.23,0-7.65-3.43-7.65-7.65V681.3C876.67,677.36,879.87,674.16,883.81,674.16z"/>
			</g>
		</g>
		<path style="fill:#212121;" d="M16.62,652.07L16.62,652.07c0,4.59-3.72,8.31-8.31,8.31h0c-4.59,0-8.31-3.72-8.31-8.31l0,0
			c0-4.59,3.72-8.31,8.31-8.31h0C12.9,643.77,16.62,647.49,16.62,652.07z"/>
		<path style="fill:#212121;" d="M406.04,652.07L406.04,652.07c0,4.59-3.72,8.31-8.31,8.31l0,0c-4.59,0-8.31-3.72-8.31-8.31l0,0
			c0-4.59,3.72-8.31,8.31-8.31l0,0C402.32,643.77,406.04,647.49,406.04,652.07z"/>
		<path style="fill:#212121;" d="M685.46,738.33L685.46,738.33c4.7,0,8.51,3.81,8.51,8.51v0.4c0,4.7-3.81,8.51-8.51,8.51h0
			c-4.7,0-8.51-3.81-8.51-8.51v-0.4C676.96,742.14,680.76,738.33,685.46,738.33z"/>
	</g>
	<g>
		<linearGradient id="SVGID_1_" gradientUnits="userSpaceOnUse" x1="500.0008" y1="585.0201" x2="500.0008" y2="348.051">
			<stop  offset="0" style="stop-color:#94C1FF"/>
			<stop  offset="0.5" style="stop-color:#1E88E5"/>
			<stop  offset="1" style="stop-color:#116FFF"/>
		</linearGradient>
		<path style="fill:url(#SVGID_1_);" d="M504.21,345.26h-8.41c-25.55,0-46.27,20.72-46.27,46.27v149.28
			c0,25.55,20.72,46.27,46.27,46.27h8.41c25.55,0,46.27-20.72,46.27-46.27V391.53C550.48,365.98,529.76,345.26,504.21,345.26z
			 M518.93,532.63c0,10.41-8.52,18.93-18.93,18.93h0c-10.41,0-18.93-8.52-18.93-18.93V399.71c0-10.41,8.52-18.93,18.93-18.93h0
			c10.41,0,18.93,8.52,18.93,18.93V532.63z"/>
		<linearGradient id="SVGID_2_" gradientUnits="userSpaceOnUse" x1="500.0008" y1="228.2255" x2="500.0008" y2="336.4669">
			<stop  offset="0" style="stop-color:#94C1FF"/>
			<stop  offset="0.5" style="stop-color:#1E88E5"/>
			<stop  offset="1" style="stop-color:#116FFF"/>
		</linearGradient>
		<path style="fill:url(#SVGID_2_);" d="M508.55,229.99c-34.54-5.67-63.99,23.78-58.32,58.32c3.43,20.92,20.3,37.79,41.22,41.22
			c34.55,5.67,63.99-23.78,58.32-58.32C546.34,250.29,529.47,233.42,508.55,229.99z M513.39,293.14c-7.39,7.39-19.38,7.39-26.77,0
			c-7.39-7.39-7.39-19.38,0-26.77c7.39-7.39,19.38-7.39,26.77,0C520.78,273.77,520.78,285.75,513.39,293.14z"/>
		<linearGradient id="SVGID_3_" gradientUnits="userSpaceOnUse" x1="489.4437" y1="585.0201" x2="489.4437" y2="348.051">
			<stop  offset="0" style="stop-color:#116FFF"/>
			<stop  offset="0.5" style="stop-color:#1E88E5"/>
			<stop  offset="1" style="stop-color:#94C1FF"/>
		</linearGradient>
		<path style="fill:url(#SVGID_3_);" d="M500,551.56L500,551.56c-10.41,0-18.93-8.52-18.93-18.93V399.71v0
			c0-0.47,0.42-3.7,0.79-5.38c0.97-4.46,2.91-11.13,6.68-17.78c3.82-6.76,8.73-12.18,14.61-16.12c7.31-4.9,16.13-7.5,26.22-7.74
			c-7.24-4.7-15.88-7.43-25.15-7.43h-8.41c-25.55,0-46.27,20.72-46.27,46.27v149.28c0,19.23,11.73,35.71,28.42,42.7
			c17.69-2.9,27.47-13.77,32.69-23.01c5.57-9.85,7.14-19.73,7.48-22.37C515.74,545.88,508.5,551.56,500,551.56z"/>
		<g>
			<linearGradient id="SVGID_4_" gradientUnits="userSpaceOnUse" x1="484.5513" y1="229.7346" x2="484.5513" y2="330.3454">
				<stop  offset="0" style="stop-color:#94C1FF"/>
				<stop  offset="0.5" style="stop-color:#1E88E5"/>
				<stop  offset="1" style="stop-color:#116FFF"/>
			</linearGradient>
			<path style="fill:url(#SVGID_4_);" d="M513.49,293.03c-0.04,0.04-0.07,0.08-0.1,0.11c-9.82,9.82-27.75,6.59-32.24-9.69
				c-1.7-6.16,0.66-12.74,5.41-17.02l0.15-0.14c1.15-6.91,3.58-12.94,7.25-17.92c3.04-4.12,6.92-7.55,11.54-10.18
				c5.98-3.41,11.67-4.58,14.09-4.96c-20.41-8.58-45.32-3.16-60.03,16.31c-13.31,17.61-13.37,42.56-0.15,60.23
				c5.84,7.8,13.3,13.36,21.47,16.7c2.55-0.42,8.03-1.62,13.79-4.91C501.86,317.46,510.96,309.18,513.49,293.03z"/>
			<linearGradient id="SVGID_5_" gradientUnits="userSpaceOnUse" x1="515.7373" y1="229.7345" x2="515.7373" y2="330.3454">
				<stop  offset="0" style="stop-color:#116FFF"/>
				<stop  offset="0.5" style="stop-color:#1E88E5"/>
				<stop  offset="1" style="stop-color:#94C1FF"/>
			</linearGradient>
			<path style="fill:url(#SVGID_5_);" d="M540.87,250.12c-5.73-7.82-13.09-13.4-21.16-16.82c-2.33,0.35-8.1,1.5-14.19,4.97
				c-7.12,4.06-16.09,12.2-18.74,27.96c7.4-7.23,19.26-7.18,26.6,0.16c7.32,7.32,7.38,19.14,0.2,26.55
				c-1.1,7.17-3.58,13.4-7.36,18.54c-3.04,4.12-6.92,7.55-11.54,10.18c-5.68,3.23-11.08,4.46-13.69,4.89
				c20.31,8.24,44.9,2.72,59.47-16.57C553.67,292.49,553.82,267.78,540.87,250.12z"/>
		</g>
		<g>
			<linearGradient id="SVGID_6_" gradientUnits="userSpaceOnUse" x1="467.817" y1="246.7127" x2="528.7437" y2="316.7249">
				<stop  offset="0" style="stop-color:#94C1FF"/>
				<stop  offset="0.5" style="stop-color:#1E88E5"/>
				<stop  offset="1" style="stop-color:#116FFF"/>
			</linearGradient>
			<path style="fill:url(#SVGID_6_);" d="M513.49,293.03c-0.04,0.04-0.07,0.08-0.1,0.11c-9.82,9.82-27.75,6.59-32.24-9.69
				c-1.7-6.16,0.66-12.74,5.41-17.02l0.15-0.14c1.15-6.91,3.58-12.94,7.25-17.92c3.04-4.12,6.92-7.55,11.54-10.18
				c5.98-3.41,11.67-4.58,14.09-4.96c-20.41-8.58-45.32-3.16-60.03,16.31c-13.31,17.61-13.37,42.56-0.15,60.23
				c5.84,7.8,13.3,13.36,21.47,16.7c2.55-0.42,8.03-1.62,13.79-4.91C501.86,317.46,510.96,309.18,513.49,293.03z"/>
			<linearGradient id="SVGID_7_" gradientUnits="userSpaceOnUse" x1="518.6775" y1="319.8901" x2="434.0901" y2="180.321">
				<stop  offset="0" style="stop-color:#000000;stop-opacity:0.5"/>
				<stop  offset="0.3293" style="stop-color:#FFFFFF;stop-opacity:0"/>
			</linearGradient>
			<path style="fill:url(#SVGID_7_);" d="M513.49,293.03c-0.04,0.04-0.07,0.08-0.1,0.11c-9.82,9.82-27.75,6.59-32.24-9.69
				c-1.7-6.16,0.66-12.74,5.41-17.02l0.15-0.14c1.15-6.91,3.58-12.94,7.25-17.92c3.04-4.12,6.92-7.55,11.54-10.18
				c5.98-3.41,11.67-4.58,14.09-4.96c-20.41-8.58-45.32-3.16-60.03,16.31c-13.31,17.61-13.37,42.56-0.15,60.23
				c5.84,7.8,13.3,13.36,21.47,16.7c2.55-0.42,8.03-1.62,13.79-4.91C501.86,317.46,510.96,309.18,513.49,293.03z"/>
			<linearGradient id="SVGID_8_" gradientUnits="userSpaceOnUse" x1="472.6657" y1="244.2088" x2="564.8127" y2="350.097">
				<stop  offset="0" style="stop-color:#000000;stop-opacity:0.5"/>
				<stop  offset="0.3293" style="stop-color:#FFFFFF;stop-opacity:0"/>
			</linearGradient>
			<path style="fill:url(#SVGID_8_);" d="M540.87,250.12c-5.73-7.82-13.09-13.4-21.16-16.82c-2.33,0.35-8.1,1.5-14.19,4.97
				c-7.12,4.06-16.09,12.2-18.74,27.96c7.4-7.23,19.26-7.18,26.6,0.16c7.32,7.32,7.38,19.14,0.2,26.55
				c-1.1,7.17-3.58,13.4-7.36,18.54c-3.04,4.12-6.92,7.55-11.54,10.18c-5.68,3.23-11.08,4.46-13.69,4.89
				c20.31,8.24,44.9,2.72,59.47-16.57C553.67,292.49,553.82,267.78,540.87,250.12z"/>
		</g>
	</g>
</g>
<g>
</g>
<g>
</g>
<g>
</g>
<g>
</g>
<g>
</g>
<g>
</g>
<g>
</g>
<g>
</g>
<g>
</g>
<g>
</g>
<g>
</g>
<g>
</g>
<g>
</g>
<g>
</g>
<g>
</g>
</svg>
