<?xml version="1.0" encoding="utf-8"?>
<!-- Generator: Adobe Illustrator 23.0.1, SVG Export Plug-In . SVG Version: 6.00 Build 0)  -->
<svg version="1.1" id="Layer_1" xmlns="http://www.w3.org/2000/svg" xmlns:xlink="http://www.w3.org/1999/xlink" x="0px" y="0px"
	 viewBox="0 0 1000 1000" style="enable-background:new 0 0 1000 1000;" xml:space="preserve">
<g>
	<g>
		<path style="fill:#333333;" d="M443.62,982.8l3.02-0.64l2.99-0.75l1.5-0.37l1.48-0.43l2.96-0.85l2.92-0.96l1.46-0.48l1.44-0.53
			c0.96-0.36,1.93-0.7,2.88-1.08c3.8-1.52,7.52-3.22,11.15-5.09c3.61-1.91,7.12-3.99,10.52-6.25c3.38-2.29,6.64-4.75,9.78-7.37
			c3.14-2.61,6.11-5.44,8.96-8.38c5.7-5.88,10.78-12.4,15.28-19.31c4.5-6.92,8.41-14.26,11.75-21.87
			c3.35-7.61,6.12-15.49,8.36-23.52c0.31-1.12,0.61-2.25,0.9-3.38c-9.72,11.7-24.37,19.19-40.68,19.19h0
			c-29.1,0-52.9-23.81-52.9-52.9v-371.5c0-6.38,1.15-12.51,3.24-18.18c1.01-4.28,2.16-8.52,3.48-12.72
			c3.14-10.08,7.13-19.9,12.03-29.25c4.89-9.35,10.72-18.23,17.53-26.3c6.8-8.07,14.59-15.32,23.22-21.41
			c4.31-3.05,8.82-5.8,13.5-8.26c4.68-2.45,9.53-4.56,14.48-6.39c4.96-1.81,10.01-3.37,15.15-4.56c5.14-1.19,10.34-2.14,15.58-2.8
			c1.31-0.17,2.62-0.28,3.94-0.43l1.97-0.21l1.97-0.14c1.32-0.09,2.63-0.2,3.95-0.27l3.96-0.15c0.49-0.03,0.98-0.03,1.47-0.04
			c-20.34-13.34-44.66-21.1-70.8-21.1h-23.51c-71.42,0-129.32,57.9-129.32,129.32v417.23c0,49.65,27.99,92.76,69.05,114.43
			c4.14-0.41,8.25-0.97,12.32-1.71C441.6,983.23,442.61,983.02,443.62,982.8z"/>
		<path style="fill:#333333;" d="M591.93,351.75h-2.57h-3.95c-1.32,0-2.66-0.02-3.88,0.05l-3.76,0.14
			c-1.26,0.07-2.53,0.17-3.79,0.26l-1.9,0.13l-1.89,0.2c-1.26,0.14-2.52,0.25-3.77,0.41c-5.02,0.63-9.98,1.54-14.88,2.67
			c-4.9,1.14-9.7,2.62-14.4,4.33c-4.7,1.73-9.28,3.73-13.71,6.05c-4.42,2.32-8.68,4.93-12.76,7.8
			c-16.34,11.5-29.39,27.45-38.74,45.4c-3.27,6.24-6.12,12.72-8.57,19.36c9.55-9.35,22.6-15.14,36.94-15.14h0
			c29.1,0,52.9,23.81,52.9,52.9v371.5c0,4.65-0.61,9.16-1.75,13.47l0,0c-0.45,4.3-1.19,8.56-2.04,12.79
			c-0.86,4.23-1.88,8.43-3.04,12.59c-2.33,8.32-5.2,16.49-8.67,24.4c-3.47,7.91-7.54,15.56-12.25,22.8
			c-4.71,7.24-10.04,14.08-16.06,20.29c-3.01,3.1-6.14,6.08-9.46,8.85c-3.31,2.77-6.77,5.37-10.34,7.79
			c-3.6,2.39-7.32,4.59-11.14,6.61c-3.84,1.98-7.77,3.78-11.78,5.38c-1,0.4-2.02,0.76-3.03,1.14l-1.52,0.56l-1.54,0.51l-3.08,1.01
			l-3.11,0.9l-1.56,0.45l-1.57,0.39l-3.14,0.79l-3.17,0.67c-1.06,0.23-2.11,0.45-3.18,0.62c-0.85,0.15-1.69,0.29-2.54,0.43
			c15.2,6.27,31.85,9.74,49.31,9.74h23.51c71.42,0,129.32-57.9,129.32-129.32V453.45C641.37,412.18,622.04,375.42,591.93,351.75z"/>
	</g>
	<g>
		<path style="fill:#333333;" d="M441.77,264.43l2.62-0.35l0.66-0.09l0.55-0.1l1.14-0.2c3.22-0.59,6.45-1.36,9.64-2.27
			c12.77-3.63,24.93-9.43,35.37-17.37c10.47-7.93,19.17-18.03,25.53-29.53c4.98-8.95,8.5-18.71,10.81-28.85
			c-20.46,13.04-47.93,10.65-65.8-7.22c-20.66-20.66-20.66-54.15,0-74.81c0.08-0.08,0.16-0.15,0.24-0.23
			c2.48-14.9,7.34-29.51,15.18-42.47c3.91-6.48,8.56-12.51,13.82-17.94c5.27-5.43,11.15-10.26,17.47-14.41
			c6.32-4.16,13.07-7.66,20.09-10.47c7.02-2.82,14.3-5.01,21.72-6.46c1.2-0.21,2.41-0.43,3.61-0.65C537.59,3.92,519.1,0,499.69,0
			c-77.91,0-141.06,63.16-141.06,141.06c0,53.9,30.24,100.74,74.68,124.49l3.21-0.42L441.77,264.43z"/>
		<path style="fill:#333333;" d="M566.21,16.65l-2.91,0.55l-5.59,1.06c-0.93,0.17-1.86,0.37-2.8,0.51l-1.34,0.23
			c-0.43,0.07-0.86,0.15-1.29,0.24c-6.89,1.34-13.75,3.4-20.31,6.04c-6.57,2.64-12.86,5.9-18.73,9.76
			c-5.87,3.86-11.31,8.33-16.17,13.34c-4.86,5.02-9.15,10.57-12.76,16.56c-5.77,9.52-9.83,20.1-12.44,31.14
			c20.4-12.64,47.52-10.12,65.23,7.58c20.56,20.56,20.65,53.83,0.28,74.51c-2.21,13.98-6.47,27.71-13.37,40.11
			c-6.85,12.4-16.3,23.37-27.6,31.93c-11.29,8.59-24.31,14.77-37.93,18.65c-3.41,0.96-6.86,1.79-10.34,2.43
			c-0.65,0.13-1.3,0.23-1.95,0.33c16.5,6.77,34.57,10.51,53.51,10.51c77.91,0,141.06-63.16,141.06-141.06
			C640.75,87.21,610.57,40.42,566.21,16.65z"/>
	</g>
</g>
<g>
</g>
<g>
</g>
<g>
</g>
<g>
</g>
<g>
</g>
<g>
</g>
<g>
</g>
<g>
</g>
<g>
</g>
<g>
</g>
<g>
</g>
<g>
</g>
<g>
</g>
<g>
</g>
<g>
</g>
</svg>
