<?xml version="1.0" standalone="no"?>
<!DOCTYPE svg PUBLIC "-//W3C//DTD SVG 20010904//EN"
 "http://www.w3.org/TR/2001/REC-SVG-20010904/DTD/svg10.dtd">
<svg version="1.0" xmlns="http://www.w3.org/2000/svg"
 width="1000.000000pt" height="1000.000000pt" viewBox="0 0 1000.000000 1000.000000"
 preserveAspectRatio="xMidYMid meet">
<g transform="translate(0.000000,1000.000000) scale(0.100000,-0.100000)"
fill="#000000" stroke="none">
<path d="M2375 9989 c-62 -8 -204 -30 -275 -44 -266 -50 -622 -197 -875 -360
-79 -50 -241 -168 -255 -184 -3 -4 -21 -19 -40 -35 -57 -46 -221 -208 -276
-272 -121 -143 -223 -283 -295 -409 -68 -121 -99 -179 -99 -189 0 -7 -4 -16
-9 -21 -28 -30 -155 -382 -177 -494 -3 -12 -11 -51 -19 -85 -7 -33 -16 -79
-20 -101 -3 -23 -7 -52 -10 -65 -17 -90 -20 -442 -20 -2755 0 -2414 1 -2587
18 -2690 24 -153 25 -158 54 -270 14 -55 26 -104 27 -110 19 -81 115 -325 179
-450 76 -148 190 -328 277 -435 87 -107 107 -130 187 -212 301 -310 647 -530
1053 -670 47 -16 92 -31 100 -33 8 -2 51 -13 96 -24 45 -12 92 -24 105 -26 70
-15 204 -36 279 -44 96 -11 5230 -10 5270 1 14 4 45 9 70 12 113 14 297 55
415 93 594 189 1089 563 1429 1078 78 118 176 290 176 309 0 7 4 16 9 21 34
35 166 416 186 535 3 19 10 51 15 70 11 42 17 83 35 220 11 87 13 548 11 2680
-1 1416 -5 2595 -9 2620 -5 25 -10 59 -11 75 -7 54 -27 158 -47 240 -11 44
-22 88 -24 97 -2 9 -16 54 -31 100 -189 579 -561 1067 -1070 1404 -173 114
-446 248 -599 294 -22 6 -49 15 -60 20 -11 5 -31 11 -45 14 -14 4 -68 17 -120
31 -82 21 -156 35 -319 62 -58 10 -5208 11 -5286 2z"/>
</g>
</svg>
